{"glyphs":{"0":{"ha":946,"x_min":50,"x_max":826,"o":"m 346 -501 q 134 -365 218 -501 q 50 10 50 -229 q 60 181 50 90 q 127 484 81 357 q 231 697 174 611 q 344 833 289 782 q 439 908 399 885 q 490 936 479 932 q 424 950 465 950 l 401 949 q 360 989 368 949 q 394 1029 360 1017 l 424 1032 q 653 911 538 1032 q 732 792 692 867 q 799 614 772 718 q 826 379 826 510 q 769 -6 826 199 q 588 -371 703 -240 q 346 -501 472 -501 m 346 -419 q 467 -375 403 -419 q 589 -234 531 -331 q 690 15 647 -137 q 744 379 744 225 q 711 638 744 535 q 638 799 678 740 q 571 879 597 858 l 561 876 q 506 852 560 876 q 379 757 453 828 q 241 549 310 689 q 142 172 172 408 q 132 6 132 83 q 161 -232 132 -137 q 240 -373 190 -326 q 346 -419 289 -419 z "},"1":{"ha":444,"x_min":50,"x_max":394,"o":"m 90 -708 l 86 -708 q 50 -665 50 -694 l 313 1288 q 354 1324 326 1324 q 383 1309 372 1322 q 394 1281 394 1296 l 131 -672 q 116 -698 128 -687 q 90 -708 104 -708 z "},"2":{"ha":1122,"x_min":49,"x_max":1072,"o":"m 90 -487 q 63 -475 75 -487 q 50 -446 50 -462 q 63 -417 49 -432 q 156 -302 81 -396 q 340 -69 232 -208 q 561 231 447 71 q 812 616 725 465 q 928 851 899 767 q 957 974 957 935 q 950 1010 957 1003 q 850 1068 914 1068 q 797 1058 825 1068 q 598 933 686 1021 q 494 804 510 844 q 504 775 504 794 q 464 735 504 744 q 408 788 415 735 q 446 879 408 829 q 508 956 483 929 q 847 1149 694 1149 q 1017 1054 950 1149 q 1039 974 1039 1021 q 626 185 1039 771 q 226 -346 354 -192 q 467 -274 308 -314 q 771 -233 625 -233 q 944 -263 879 -233 q 1039 -336 1008 -293 q 1072 -422 1069 -379 q 1062 -450 1072 -437 q 1035 -464 1051 -462 q 1008 -454 1021 -464 q 992 -429 994 -444 q 924 -342 982 -368 q 769 -315 867 -315 q 567 -337 675 -315 q 363 -387 460 -358 q 201 -442 267 -417 q 119 -476 135 -467 q 90 -487 107 -487 z "},"3":{"ha":1001,"x_min":50,"x_max":951,"o":"m 321 -704 q 63 -589 182 -704 q 50 -560 50 -575 q 63 -533 50 -546 q 92 -519 75 -519 q 119 -532 106 -519 q 222 -603 171 -582 q 321 -624 272 -624 q 400 -612 363 -624 q 469 -583 438 -600 q 694 -358 607 -507 q 782 -61 782 -210 q 775 8 782 -25 q 704 131 758 89 q 579 186 650 172 q 446 200 508 200 q 360 196 394 200 q 325 192 326 192 l 319 192 q 279 229 283 192 q 296 264 279 250 q 358 310 300 267 q 500 424 415 353 q 669 581 585 494 q 812 758 754 668 q 869 924 869 847 q 836 1017 869 979 q 744 1056 803 1056 q 615 1019 683 1056 q 486 935 546 982 q 389 853 426 889 q 349 815 351 817 q 319 801 333 801 q 279 843 288 801 q 289 871 279 857 q 322 903 293 875 q 398 969 351 931 q 502 1047 444 1008 q 623 1110 560 1085 q 744 1136 686 1136 q 893 1074 835 1133 q 951 925 951 1014 q 897 743 951 838 q 761 560 842 649 q 598 399 681 471 q 456 282 515 326 l 456 282 q 553 275 501 282 q 790 160 717 249 q 863 -62 863 71 q 782 -367 863 -208 q 571 -615 696 -525 q 321 -704 446 -704 z "},"4":{"ha":1013,"x_min":50,"x_max":963,"o":"m 554 -787 q 526 -778 540 -787 q 512 -758 519 -774 q 504 -699 504 -743 q 538 -424 504 -628 q 668 215 571 -221 q 804 800 764 636 q 622 494 739 679 q 397 181 506 310 q 164 21 260 21 q 80 63 110 25 q 50 181 50 100 q 103 470 50 301 q 210 775 156 639 q 283 947 265 911 q 321 971 299 971 q 361 928 361 967 l 358 914 q 267 694 319 831 q 172 415 214 558 q 131 182 131 272 q 138 120 131 138 q 165 101 144 103 q 233 133 186 101 q 366 270 281 165 q 583 586 451 375 q 732 838 665 718 q 840 1034 799 957 q 882 1115 881 1111 q 895 1136 886 1126 q 922 1146 904 1146 q 963 1106 963 1138 l 961 1096 q 893 822 956 1079 q 753 222 831 565 q 617 -444 649 -244 q 585 -696 585 -643 q 590 -719 585 -714 q 594 -747 594 -724 q 583 -774 594 -761 q 554 -787 572 -787 z "},"5":{"ha":1000,"x_min":50,"x_max":950,"o":"m 236 -662 q 173 -650 207 -662 q 107 -604 139 -637 q 53 -510 75 -571 q 50 -496 50 -503 q 89 -456 50 -461 q 128 -483 114 -456 q 236 -581 163 -581 q 401 -500 307 -581 q 581 -281 496 -419 q 722 165 722 -40 q 708 268 722 226 q 657 331 694 310 q 578 346 624 346 q 424 320 507 346 q 269 261 342 294 q 156 203 197 228 q 135 197 144 197 q 107 210 119 197 q 94 240 94 224 l 239 819 l 215 813 q 203 810 207 810 q 163 851 171 810 q 189 888 163 874 q 261 913 201 893 l 289 1024 q 331 1054 304 1054 q 369 1013 369 1046 l 369 1004 l 353 942 q 638 1026 474 981 q 906 1085 801 1072 l 910 1085 q 950 1044 942 1085 q 914 1004 950 1017 q 633 940 808 990 q 331 849 457 890 l 196 317 q 292 359 229 333 q 430 406 354 385 q 576 426 506 426 q 726 380 667 426 q 800 238 786 333 q 804 168 804 203 q 651 -324 804 -61 q 286 -657 478 -601 q 236 -662 265 -662 z "},"6":{"ha":878,"x_min":50,"x_max":828,"o":"m 319 -443 l 294 -443 q 115 -357 181 -433 q 50 -151 50 -281 q 101 133 50 -24 q 221 441 151 290 q 353 707 290 592 q 547 1035 453 890 q 648 1165 619 1140 q 685 1189 676 1190 l 690 1189 q 731 1149 726 1189 q 707 1111 731 1125 q 636 1021 690 1099 q 506 815 582 943 q 351 528 431 688 q 156 31 188 188 q 249 122 186 67 q 392 221 311 176 q 561 268 474 265 q 680 240 624 268 q 774 157 736 213 q 828 -7 828 74 q 781 -175 828 -90 q 576 -367 708 -290 q 319 -443 444 -443 m 321 -362 q 537 -297 425 -362 q 710 -132 649 -232 q 737 -76 726 -107 q 747 -8 747 -44 q 714 104 747 46 q 563 188 651 188 q 440 154 501 186 q 324 76 379 122 q 226 -16 269 31 q 158 -94 183 -62 q 133 -126 133 -125 l 132 -150 q 180 -311 132 -262 q 321 -362 228 -360 z "},"7":{"ha":913,"x_min":50,"x_max":864,"o":"m 175 -642 q 136 -600 136 -635 l 136 -593 q 263 -182 182 -403 q 432 250 344 39 q 111 197 274 235 q 80 205 94 197 q 63 235 65 213 q 94 278 63 263 q 177 294 96 278 q 371 325 258 311 l 467 333 q 728 965 642 738 q 772 1099 763 1058 q 782 1151 782 1140 q 785 1147 782 1144 l 776 1147 q 676 1127 753 1147 q 433 1040 600 1107 q 276 972 350 1004 q 157 917 203 939 q 110 893 111 894 q 90 888 99 888 q 50 928 60 888 q 71 963 50 949 q 122 988 74 964 q 249 1048 171 1013 q 417 1119 328 1083 q 648 1203 563 1179 q 776 1228 733 1228 q 863 1153 864 1228 q 785 885 863 1078 q 556 336 707 693 q 675 322 622 336 q 757 278 728 307 q 767 250 767 263 q 754 222 767 235 q 726 208 742 208 q 697 222 713 208 q 542 254 657 254 l 521 254 q 345 -194 428 32 q 217 -610 263 -419 q 175 -642 203 -642 z "},"8":{"ha":1121,"x_min":50,"x_max":1072,"o":"m 290 -512 q 118 -470 186 -512 q 50 -346 50 -428 l 51 -324 q 158 -124 67 -233 q 351 78 249 -14 q 503 208 454 171 q 330 354 404 283 q 235 490 256 425 q 226 557 226 522 q 329 799 226 674 q 581 983 431 915 q 879 1051 731 1051 q 939 1049 908 1051 q 1021 1020 992 1042 q 1061 970 1050 999 q 1072 914 1072 942 q 863 500 1072 776 q 622 215 699 290 q 749 101 689 161 q 848 -25 808 40 q 888 -158 888 -90 q 635 -433 883 -321 q 290 -512 456 -512 m 293 -432 q 600 -361 429 -432 q 806 -160 803 -268 q 772 -55 806 -108 q 683 52 738 -1 q 567 156 628 106 q 391 6 490 96 q 215 -179 292 -85 q 131 -346 139 -274 q 175 -412 131 -392 q 293 -432 219 -432 m 560 265 q 673 392 603 310 q 815 572 743 474 q 939 763 888 671 q 990 913 990 854 q 986 936 990 926 q 976 953 986 943 q 929 967 965 963 q 876 969 904 969 q 613 910 744 969 q 390 746 481 850 q 307 556 307 646 q 314 510 307 532 q 399 401 329 463 q 560 265 468 339 z "},"9":{"ha":767,"x_min":50,"x_max":717,"o":"m 481 -733 q 444 -711 461 -733 q 431 -675 439 -704 q 424 -565 424 -646 q 441 -285 424 -474 q 506 238 458 -96 q 603 853 561 615 l 617 846 q 500 658 569 767 q 342 444 407 518 q 233 343 276 369 q 161 317 189 317 q 132 321 144 317 q 76 367 99 331 q 50 485 54 404 q 130 824 50 628 q 310 1081 210 1019 q 390 1100 353 1100 q 478 1078 438 1100 q 550 1029 519 1057 q 599 981 581 1001 q 627 1033 615 1011 q 639 1054 639 1054 q 678 1079 656 1079 q 717 1038 717 1074 l 717 1031 q 695 911 715 1025 q 646 616 675 797 q 588 228 617 435 q 522 -293 539 -107 q 506 -565 506 -479 q 513 -656 506 -639 q 521 -693 521 -672 q 481 -733 521 -725 m 160 397 q 199 416 169 397 q 284 500 228 435 q 431 703 340 565 q 556 904 506 818 q 478 984 521 949 q 390 1019 436 1019 q 346 1008 369 1019 q 202 788 274 961 q 131 485 131 614 q 160 397 128 407 z "}," ":{"ha":706,"x_min":0,"x_max":0,"o":""},"!":{"ha":628,"x_min":149,"x_max":493,"o":"m 210 -86 q 181 -74 193 -86 q 167 -43 168 -62 q 190 172 167 3 q 239 522 213 342 q 281 796 265 701 q 293 878 285 824 q 313 1002 301 932 q 338 1149 325 1072 q 363 1299 350 1225 q 386 1435 375 1374 q 405 1535 397 1496 q 417 1583 413 1575 q 453 1603 433 1603 q 481 1590 468 1603 q 493 1560 493 1576 l 490 1547 q 474 1466 486 1533 q 443 1292 461 1399 q 404 1054 425 1185 q 361 783 383 924 q 319 508 339 643 q 283 260 299 374 q 258 67 267 146 q 249 -39 249 -12 l 249 -44 q 237 -73 249 -60 q 210 -86 225 -86 m 190 -375 q 162 -362 175 -375 q 149 -333 149 -349 q 162 -303 149 -317 q 190 -290 175 -290 q 220 -303 207 -290 q 233 -333 233 -317 q 220 -362 233 -349 q 190 -375 207 -375 z "},"\"":{"ha":346,"x_min":50,"x_max":296,"o":"m 90 1046 l 89 1046 q 50 1088 53 1051 l 56 1239 q 99 1278 63 1274 q 138 1235 133 1271 l 131 1085 q 90 1046 121 1046 m 250 1046 q 222 1058 235 1046 q 208 1088 208 1071 l 215 1238 q 257 1278 215 1268 q 296 1239 296 1268 l 290 1085 q 278 1058 290 1071 q 250 1046 265 1046 z "},"#":{"ha":1229,"x_min":107,"x_max":1179,"o":"m 622 -611 l 619 -610 q 583 -568 592 -610 l 650 269 l 401 206 l 360 -214 q 344 -241 357 -232 q 315 -250 331 -250 q 278 -208 276 -239 l 318 183 l 232 163 q 221 160 225 160 q 181 199 190 160 q 211 240 181 225 l 328 269 l 356 551 q 163 488 263 521 q 147 483 154 483 q 107 525 115 483 q 136 564 107 549 q 202 585 138 564 q 365 640 267 607 l 407 1054 q 446 1090 418 1090 q 475 1078 463 1089 q 488 1049 488 1068 l 449 667 q 688 736 554 700 l 738 1358 q 778 1397 738 1388 q 818 1356 818 1388 l 771 758 q 969 800 893 789 q 1086 811 1046 811 q 1133 807 1118 811 q 1156 800 1149 803 q 1179 761 1179 783 q 1165 732 1175 744 q 1136 722 1154 719 q 1112 729 1121 726 q 1083 732 1103 732 q 763 672 983 732 l 740 376 l 838 400 q 879 360 878 403 q 849 319 879 333 l 733 290 l 665 -574 q 622 -611 656 -611 m 411 292 l 657 354 l 681 650 q 440 578 568 619 l 411 292 z "},"$":{"ha":975,"x_min":50,"x_max":783,"o":"m 386 -617 q 347 -592 361 -617 q 338 -553 343 -586 q 332 -412 332 -519 q 342 -94 332 -304 l 346 -94 q 340 -97 346 -96 q 285 -100 310 -100 q 138 -58 200 -100 q 51 61 75 -15 l 50 71 q 62 100 50 90 q 90 113 74 110 q 131 85 115 113 q 197 0 151 19 q 286 -19 243 -19 l 299 -19 q 344 -14 313 -19 q 386 599 357 217 q 288 691 335 643 q 212 791 242 739 q 182 897 182 843 q 383 1142 182 1033 q 431 1164 414 1157 l 465 1567 q 479 1594 467 1583 q 506 1604 492 1604 q 547 1564 547 1596 l 547 1560 q 514 1192 529 1372 q 565 1196 536 1196 q 638 1184 607 1196 q 689 1156 668 1172 q 761 1048 739 1113 q 783 922 783 983 q 772 831 783 872 q 732 801 757 801 q 692 843 692 808 q 698 879 694 863 q 701 921 701 896 q 687 1017 701 969 q 638 1092 672 1064 q 565 1115 607 1115 q 507 1106 532 1115 q 469 632 488 874 l 469 633 q 586 526 531 581 q 677 413 642 471 q 713 290 713 354 q 670 128 713 203 q 562 1 628 54 q 424 -76 496 -51 q 413 -421 413 -287 q 416 -531 413 -504 q 425 -575 419 -557 q 400 -614 425 -600 l 386 -617 m 428 14 q 525 74 479 33 q 601 169 571 114 q 631 289 631 224 q 579 413 628 353 q 463 531 531 472 q 428 14 442 251 m 393 701 q 424 1072 408 900 l 431 1075 l 424 1069 q 264 897 261 985 q 304 796 264 847 q 393 701 344 744 z "},"%":{"ha":1081,"x_min":50,"x_max":1031,"o":"m 93 -696 q 65 -685 78 -696 q 51 -657 51 -674 l 50 -626 q 120 -243 50 -468 q 297 228 190 -18 q 521 707 404 475 q 737 1119 638 939 q 888 1389 836 1299 l 283 1092 q 338 1005 306 1065 q 371 881 371 944 q 348 792 371 828 q 290 738 325 756 q 219 718 256 719 q 126 757 164 718 q 83 875 89 796 q 114 1021 83 946 q 186 1128 144 1096 q 200 1142 190 1135 l 972 1521 q 990 1525 982 1525 q 1031 1485 1022 1525 q 1025 1464 1031 1475 q 928 1296 1018 1454 q 707 888 839 1138 q 444 354 575 638 q 222 -192 313 71 q 132 -626 132 -454 l 132 -657 q 120 -683 132 -671 q 93 -696 108 -696 m 224 799 q 269 821 250 800 q 289 881 289 842 q 263 972 289 924 q 217 1046 238 1019 q 184 981 203 1029 q 165 882 165 933 q 181 816 168 833 q 221 799 194 799 l 224 799 m 561 -279 q 444 -226 494 -279 q 393 -108 393 -174 q 427 3 393 -49 q 506 88 461 56 q 585 119 551 119 l 597 118 l 604 119 q 624 114 614 119 q 761 -75 761 39 q 693 -224 753 -168 q 561 -279 633 -279 m 561 -199 q 645 -161 614 -199 q 681 -75 676 -124 q 604 32 681 -11 l 601 32 q 578 39 589 32 q 551 24 574 39 q 504 -26 529 8 q 485 -60 496 -39 q 475 -108 475 -82 q 504 -174 475 -149 q 561 -199 533 -199 z "},"&":{"ha":1264,"x_min":50,"x_max":1101,"o":"m 394 -690 q 356 -658 363 -690 q 350 -579 350 -625 q 371 -278 350 -465 q 272 -293 326 -293 q 113 -231 176 -293 q 50 -62 50 -168 q 113 164 50 38 q 281 388 182 296 q 478 533 379 479 q 476 536 476 529 q 481 560 481 557 q 323 608 379 567 q 267 718 267 650 q 312 849 267 779 q 424 980 357 918 q 564 1085 492 1042 q 590 1246 576 1164 q 635 1483 619 1410 q 659 1574 650 1556 q 676 1594 668 1593 q 694 1599 686 1599 q 735 1557 726 1599 q 729 1538 735 1547 q 714 1469 725 1525 q 688 1326 703 1414 q 654 1129 672 1239 q 696 1145 675 1139 q 751 1151 717 1151 q 832 1125 797 1151 q 869 1063 860 1099 q 879 1000 879 1028 q 875 957 879 968 q 835 925 863 925 q 794 965 794 932 q 797 1000 797 975 q 793 1035 797 1018 q 778 1063 789 1053 q 751 1071 769 1071 q 694 1059 724 1071 q 636 1032 664 1047 l 575 638 q 774 660 639 639 l 779 660 q 808 647 799 660 q 821 618 818 635 q 789 579 821 592 q 718 556 788 579 q 550 481 649 533 q 467 -140 494 99 q 468 -138 461 -143 q 485 -125 475 -133 q 671 53 576 -53 q 845 264 765 158 q 975 441 925 369 q 1028 517 1025 513 q 1061 535 1043 535 q 1101 494 1092 535 q 1096 472 1101 483 q 1038 388 1089 463 q 905 207 986 314 q 727 -8 824 100 q 535 -190 631 -115 q 456 -242 492 -224 q 431 -581 431 -474 q 436 -650 431 -640 q 394 -690 436 -681 m 492 639 l 546 975 q 409 849 471 924 q 347 719 347 775 l 350 703 q 381 665 351 685 q 492 639 410 646 m 271 -212 q 381 -187 324 -212 q 461 426 419 146 q 316 309 392 385 q 185 128 240 233 q 132 -61 132 19 q 169 -174 132 -135 q 271 -212 207 -212 z "},"'":{"ha":188,"x_min":50,"x_max":138,"o":"m 90 1046 l 89 1046 q 50 1088 53 1051 l 56 1239 q 99 1278 63 1274 q 138 1235 133 1271 l 131 1085 q 90 1046 121 1046 z "},"(":{"ha":992,"x_min":190,"x_max":942,"o":"m 589 -812 q 554 -793 568 -812 q 280 -168 369 -472 q 190 428 190 136 q 349 1163 190 811 q 456 1367 399 1274 q 571 1538 513 1461 q 683 1672 629 1614 q 778 1769 736 1729 q 847 1829 821 1808 q 878 1853 874 1850 q 901 1861 890 1861 q 942 1821 933 1861 q 926 1789 942 1803 q 891 1760 925 1788 q 802 1678 857 1732 q 681 1544 747 1624 q 547 1360 614 1464 q 421 1126 479 1256 q 316 815 358 990 q 274 425 274 639 q 307 74 274 260 q 417 -319 340 -112 q 625 -751 494 -525 q 629 -771 629 -762 q 589 -812 629 -804 z "},")":{"ha":933,"x_min":50,"x_max":743,"o":"m 90 -714 q 64 -702 78 -714 q 50 -674 50 -690 q 60 -647 50 -661 q 430 -108 299 -371 q 612 394 561 156 q 663 835 663 633 q 650 1050 663 950 q 606 1298 635 1183 q 544 1503 578 1413 q 481 1659 511 1594 q 432 1758 451 1724 q 411 1793 413 1793 q 406 1815 406 1804 q 418 1843 406 1831 q 446 1856 431 1856 q 481 1838 464 1856 q 504 1796 483 1833 q 556 1691 525 1758 q 622 1530 588 1624 q 685 1317 656 1436 q 731 1058 714 1199 q 743 828 743 943 q 588 46 743 432 q 122 -700 433 -340 q 90 -714 106 -714 z "},"*":{"ha":543,"x_min":50,"x_max":493,"o":"m 258 1119 q 218 1160 226 1119 l 225 1282 l 136 1203 q 108 1193 122 1193 q 82 1206 96 1193 q 68 1235 68 1218 q 82 1265 68 1249 l 204 1374 l 68 1465 q 50 1499 50 1481 q 63 1526 50 1514 q 90 1539 75 1539 q 113 1531 101 1539 l 236 1450 l 244 1597 q 258 1624 246 1613 q 285 1635 271 1635 q 326 1593 326 1629 l 318 1472 l 408 1553 q 435 1563 422 1563 q 476 1521 467 1563 q 463 1490 476 1506 l 339 1382 l 475 1292 q 493 1257 493 1275 q 481 1229 493 1242 q 453 1217 468 1217 q 431 1224 442 1217 l 308 1306 l 299 1157 q 258 1119 288 1119 z "},"+":{"ha":1168,"x_min":150,"x_max":993,"o":"m 517 -12 q 476 29 485 -12 l 511 461 q 199 401 351 438 q 150 442 156 401 q 183 482 150 468 q 285 503 185 482 q 521 544 385 525 l 518 544 l 543 864 q 583 900 556 900 q 624 860 624 893 l 600 553 q 763 563 686 563 q 979 510 921 563 q 993 481 993 496 q 980 453 993 467 q 951 440 967 440 q 924 450 939 440 q 767 482 883 482 q 593 471 685 482 l 557 25 q 517 -12 544 -12 z "},",":{"ha":440,"x_min":50,"x_max":292,"o":"m 90 -385 q 50 -344 57 -385 q 71 -308 50 -324 q 156 -226 125 -276 q 199 -133 186 -175 q 211 -90 211 -92 q 251 -56 224 -56 q 292 -97 292 -61 l 292 -103 q 286 -128 292 -107 q 268 -181 281 -149 q 235 -251 256 -214 q 184 -322 215 -287 q 111 -379 153 -356 q 90 -385 101 -385 z "},"-":{"ha":1022,"x_min":176,"x_max":789,"o":"m 749 422 l 217 422 q 176 463 186 422 q 217 503 176 493 l 749 503 q 789 463 781 503 q 749 422 789 431 z "},".":{"ha":593,"x_min":218,"x_max":303,"o":"m 260 -22 q 231 -9 244 -22 q 218 21 218 4 q 231 49 218 36 q 260 63 244 63 q 290 49 276 63 q 303 21 303 36 q 290 -9 303 4 q 260 -22 276 -22 z "},"/":{"ha":1000,"x_min":50,"x_max":1092,"o":"m 90 -757 l 88 -757 q 60 -742 71 -756 q 50 -715 50 -729 l 50 -711 q 249 -71 83 -503 q 597 783 415 361 q 861 1386 779 1206 q 967 1617 933 1546 q 1013 1707 1001 1689 q 1025 1725 1024 1725 q 1051 1733 1039 1733 q 1079 1721 1067 1733 q 1092 1692 1092 1708 q 1082 1667 1092 1679 q 1047 1596 1075 1656 q 973 1437 1018 1536 q 870 1208 928 1338 q 747 925 813 1078 q 610 607 681 772 q 271 -248 393 92 q 131 -721 149 -587 q 116 -747 128 -736 q 90 -757 104 -757 m 1068 1657 m 1068 1657 z "},":":{"ha":371,"x_min":50,"x_max":194,"o":"m 92 -75 q 63 -62 76 -75 q 50 -33 50 -50 q 63 -3 50 -17 q 92 10 76 10 q 122 -3 108 10 q 135 -33 135 -17 q 122 -62 135 -50 q 92 -75 108 -75 m 153 326 q 123 340 136 326 q 110 369 110 353 q 123 398 110 385 q 153 411 136 411 q 181 398 168 411 q 194 369 194 385 q 181 340 194 353 q 153 326 168 326 z "},";":{"ha":524,"x_min":50,"x_max":346,"o":"m 90 -318 q 50 -278 58 -318 q 69 -242 50 -258 q 155 -159 124 -210 q 199 -67 186 -108 q 211 -24 211 -25 q 253 10 225 10 q 292 -32 292 1 l 292 -37 q 283 -73 292 -42 q 253 -149 274 -104 q 199 -238 233 -193 q 111 -314 164 -283 q 90 -318 99 -318 m 303 332 q 274 345 286 332 q 261 375 261 358 q 274 404 261 392 q 303 417 286 417 q 333 404 319 417 q 346 375 346 392 q 333 345 346 358 q 303 332 319 332 z "},"<":{"ha":997,"x_min":176,"x_max":793,"o":"m 615 35 q 589 44 601 35 l 190 396 q 176 428 176 413 q 190 458 176 446 q 457 688 250 511 q 735 910 664 864 q 754 914 744 914 q 793 874 785 914 q 772 838 793 854 q 279 426 631 735 l 642 106 q 656 75 656 90 q 643 48 656 61 q 615 35 631 35 z "},"=":{"ha":1035,"x_min":135,"x_max":858,"o":"m 175 544 q 135 583 144 544 q 175 625 139 619 l 817 638 q 858 597 849 638 q 818 556 854 561 l 175 544 m 213 331 q 171 369 182 331 q 211 411 175 406 l 743 424 q 785 383 779 419 q 744 342 781 347 l 213 331 z "},">":{"ha":842,"x_min":50,"x_max":693,"o":"m 90 17 q 64 29 78 17 q 50 57 50 42 q 64 88 50 72 l 590 553 l 172 888 q 158 919 158 903 q 171 947 158 935 q 199 960 183 960 q 225 951 211 960 l 679 585 q 693 554 693 571 q 679 522 693 539 l 118 26 q 90 17 104 17 z "},"?":{"ha":908,"x_min":150,"x_max":914,"o":"m 215 -104 q 188 -96 201 -103 q 174 -60 174 -89 q 219 253 174 110 q 334 519 264 396 q 484 747 404 642 q 638 944 564 851 q 761 1121 711 1038 q 832 1342 832 1246 q 794 1456 832 1415 q 681 1497 756 1497 q 619 1490 651 1497 q 438 1383 524 1468 q 297 1197 353 1299 q 242 1029 242 1094 q 248 1002 242 1014 q 254 975 254 990 q 213 935 254 944 q 172 967 183 935 q 160 1029 160 999 q 224 1230 160 1111 q 388 1446 288 1349 q 603 1571 488 1543 q 679 1579 644 1579 q 850 1513 786 1579 q 914 1342 914 1446 q 832 1078 914 1224 q 618 789 744 942 q 388 458 492 636 q 261 68 283 281 l 279 99 q 314 118 296 118 q 342 106 329 118 q 356 76 356 93 q 350 56 356 68 q 274 -63 301 -22 q 215 -104 247 -104 m 192 -412 q 163 -399 176 -412 q 150 -369 150 -386 q 163 -341 150 -354 q 192 -328 176 -328 q 222 -341 208 -328 q 235 -369 235 -354 q 222 -399 235 -386 q 192 -412 208 -412 z "},"@":{"ha":1688,"x_min":164,"x_max":1539,"o":"m 622 -517 q 393 -449 497 -517 q 226 -256 289 -381 q 164 39 164 -131 q 245 461 164 238 q 463 872 326 685 q 1086 1264 742 1249 q 1338 1199 1238 1264 q 1489 1015 1439 1133 q 1539 738 1539 896 q 1492 406 1539 579 q 1368 85 1446 233 q 1195 -158 1290 -64 q 1004 -251 1100 -251 q 892 -200 935 -251 q 849 -44 849 -149 q 879 190 849 65 q 931 375 910 315 l 888 317 q 715 101 785 175 q 603 1 646 26 q 532 -25 560 -25 l 517 -24 q 469 9 492 -19 q 446 101 446 38 q 516 400 446 221 q 681 657 586 579 q 796 697 742 697 q 881 676 844 697 q 942 628 918 656 q 971 578 965 600 q 1010 639 992 610 q 1042 687 1029 668 q 1054 706 1054 706 q 1088 724 1069 724 q 1115 711 1103 724 q 1128 682 1128 699 l 1125 668 q 1047 463 1092 590 q 965 195 1001 335 q 929 -46 929 56 q 944 -137 929 -101 q 1003 -171 961 -171 q 1182 -54 1082 -171 q 1378 311 1300 90 q 1457 739 1457 532 q 1368 1065 1457 946 q 1088 1183 1279 1183 q 526 825 785 1169 q 322 438 400 650 q 244 40 244 226 q 295 -216 244 -110 q 432 -378 346 -322 q 622 -435 518 -435 q 803 -383 717 -435 q 822 -379 814 -379 q 864 -419 856 -379 q 844 -454 864 -437 q 622 -517 738 -517 m 533 57 q 569 74 540 57 q 658 158 597 92 q 824 364 719 225 q 896 468 861 417 q 904 503 904 481 q 861 590 904 550 q 836 608 853 599 q 796 617 819 617 q 728 592 765 617 q 588 365 650 526 q 526 103 526 204 q 533 57 526 68 z "},"A":{"ha":1390,"x_min":-349,"x_max":1340,"o":"m 949 -744 q 919 -731 933 -744 q 853 -450 853 -664 q 881 -81 853 -296 q 949 375 910 133 q 357 274 636 335 q 110 -318 233 -53 q -208 -722 -69 -697 q -236 -725 -221 -725 q -283 -715 -257 -725 q -336 -679 -310 -706 q -349 -650 -349 -665 q -336 -622 -349 -635 q -307 -610 -324 -610 q -279 -622 -293 -610 q -236 -644 -254 -644 q -83 -509 -164 -633 q 83 -185 -3 -385 q 260 250 169 14 q -3 171 140 221 q -18 167 -7 167 q -58 206 -50 167 q -31 246 -58 231 q 296 343 132 303 q 350 482 322 408 q 598 1103 489 850 q 801 1489 707 1357 q 988 1621 894 1621 q 1103 1530 1067 1617 q 1140 1292 1140 1443 q 1112 914 1140 1129 q 1046 468 1083 699 q 1296 499 1154 482 l 1300 499 q 1340 458 1332 499 q 1304 417 1340 431 q 1033 385 1157 401 q 965 -67 996 158 q 935 -456 935 -293 q 945 -594 935 -537 q 979 -675 956 -650 q 989 -703 989 -689 q 976 -731 989 -718 q 949 -744 964 -744 m 392 364 q 961 458 644 419 q 1029 910 999 685 q 1060 1299 1060 1135 q 983 1539 1060 1540 q 931 1515 963 1539 q 851 1421 899 1490 q 740 1221 804 1351 q 425 454 588 888 l 392 364 z "},"B":{"ha":1349,"x_min":-71,"x_max":1136,"o":"m 424 -735 q 341 -719 376 -735 q 285 -682 306 -703 q 210 -551 232 -631 q 188 -389 188 -472 q 219 -165 188 -268 q 258 -137 236 -137 q 288 -150 276 -140 q 300 -179 300 -160 l 299 -189 q 268 -386 268 -283 q 306 -579 268 -504 q 424 -654 343 -654 q 628 -562 513 -654 q 860 -283 744 -471 q 1000 24 946 -140 q 1054 346 1054 188 q 1036 502 1054 422 q 969 653 1018 582 q 832 778 921 725 q 674 818 760 818 q 610 814 640 818 q 509 667 569 747 q 382 527 449 588 q 257 467 315 467 q 190 497 218 467 q 163 565 163 526 q 279 747 163 646 q 561 888 396 849 q 803 1464 769 1236 q 806 1507 806 1485 q 800 1555 806 1535 q 779 1585 794 1575 q 751 1593 767 1593 q 673 1555 721 1593 q 558 1416 625 1517 q 401 1132 490 1315 q 201 663 313 949 l 185 619 q 50 -271 96 69 q 54 -276 49 -275 q 90 -318 90 -290 q 87 -348 90 -321 q 68 -458 83 -375 q 31 -594 47 -560 q 4 -635 15 -629 q -24 -643 -11 -643 q -68 -583 -71 -643 q -37 -306 -68 -529 q 40 214 -6 -82 q 130 795 85 510 q 206 1271 175 1081 q 239 1472 238 1461 q 279 1504 253 1504 q 319 1464 319 1497 l 319 1458 q 242 976 271 1160 q 507 1488 375 1303 q 751 1674 639 1674 q 846 1632 804 1674 q 888 1507 888 1590 q 817 1213 888 1385 q 663 900 747 1040 q 771 889 719 900 q 874 849 822 878 q 1069 644 1003 774 q 1136 343 1136 515 q 929 -326 1136 35 q 550 -707 749 -622 q 424 -735 478 -735 m 256 547 q 493 782 354 572 q 388 728 444 767 q 288 644 331 689 q 244 564 244 599 q 256 547 244 547 z "},"C":{"ha":1296,"x_min":-108,"x_max":1367,"o":"m 325 -581 q 101 -519 199 -581 q -53 -335 3 -457 q -108 -37 -108 -214 q -32 444 -108 172 q 181 979 44 715 q 420 1350 300 1213 q 638 1501 540 1488 l 664 1503 q 793 1446 739 1503 q 865 1281 844 1386 q 886 1057 886 1176 q 871 799 886 926 q 841 587 856 672 q 824 489 826 501 q 783 457 811 457 q 755 469 767 460 q 743 499 743 479 l 743 504 q 783 752 763 597 q 804 1060 804 907 q 791 1247 804 1165 q 747 1375 778 1328 q 661 1422 717 1422 q 460 1272 575 1413 q 233 910 344 1131 q 48 437 122 689 q -26 -37 -26 185 q -5 -226 -26 -133 q 73 -388 17 -319 q 232 -486 129 -457 q 325 -499 279 -499 q 533 -444 431 -499 q 731 -302 636 -390 q 910 -108 826 -214 q 1063 105 993 -1 q 1182 300 1132 211 q 1260 444 1232 389 q 1289 504 1288 500 q 1325 526 1304 526 q 1353 515 1339 526 q 1367 485 1367 503 l 1364 472 q 1338 418 1363 468 q 1267 285 1313 368 q 1158 103 1221 203 q 1018 -100 1096 3 q 658 -463 832 -346 q 325 -581 485 -581 z "},"D":{"ha":1243,"x_min":-74,"x_max":1156,"o":"m 332 -583 q 274 -573 300 -583 q 229 -547 247 -562 q 158 -434 176 -506 q 139 -292 139 -362 q 144 -203 139 -244 q 153 -135 149 -161 q 158 -104 157 -108 q 199 -72 172 -72 q 227 -85 215 -75 q 239 -115 239 -94 l 239 -121 q 219 -294 219 -192 q 232 -406 219 -354 q 276 -483 244 -457 q 331 -501 301 -501 q 619 -236 451 -501 q 926 457 788 29 q 1074 1236 1074 926 q 1028 1505 1074 1408 q 876 1601 982 1601 l 851 1600 q 367 901 665 1571 q 172 404 250 631 q 83 121 94 178 q 81 108 83 115 q 31 -261 49 -118 q 49 -273 38 -261 q 61 -301 61 -285 q 42 -454 58 -379 q 1 -553 26 -529 q -28 -562 -14 -562 q -74 -503 -74 -562 q -36 -148 -74 -433 q 49 472 1 138 q 134 1053 97 807 q 174 1315 171 1300 q 214 1349 186 1349 q 254 1307 254 1343 l 254 1303 q 146 574 188 869 q 293 935 169 646 q 843 1681 608 1650 l 876 1682 q 1083 1567 1011 1682 q 1156 1235 1156 1453 q 1006 431 1156 913 q 756 -161 894 93 q 485 -521 617 -415 q 401 -569 440 -556 q 332 -583 363 -583 z "},"E":{"ha":1269,"x_min":-176,"x_max":1342,"o":"m 104 -711 q -99 -635 -24 -711 q -176 -449 -174 -558 q -115 -226 -176 -346 q 39 16 -54 -106 q 235 246 132 138 q 425 437 338 354 q 561 560 513 519 q 385 600 500 569 q 147 688 271 631 q -64 836 24 746 q -114 971 -114 894 q -8 1228 -114 1086 q 286 1503 97 1369 q 969 1789 611 1728 q 1072 1799 1025 1799 q 1293 1706 1222 1799 q 1331 1626 1319 1669 q 1342 1535 1342 1582 q 1327 1406 1342 1471 q 1293 1286 1313 1340 q 1258 1197 1274 1232 q 1240 1158 1243 1163 q 1201 1135 1225 1135 q 1174 1148 1185 1139 q 1164 1176 1164 1157 q 1168 1194 1164 1185 q 1183 1227 1169 1196 q 1215 1308 1197 1258 q 1247 1418 1233 1358 q 1261 1533 1261 1478 q 1220 1667 1261 1618 q 1072 1717 1179 1717 q 981 1708 1031 1717 q 477 1529 706 1660 q 108 1242 249 1399 q -33 971 -33 1086 q -3 890 -33 922 q 179 763 71 814 q 397 682 288 711 q 581 640 507 653 q 661 626 656 626 q 696 589 690 621 q 681 556 696 569 q 597 483 675 551 q 403 302 518 414 q 176 58 289 190 q -16 -208 63 -75 q -94 -447 -94 -340 q -44 -577 -93 -525 q 104 -629 4 -629 q 343 -564 204 -629 q 645 -367 501 -485 q 884 -149 789 -250 q 989 -12 979 -47 q 986 6 986 -6 q 1026 46 986 38 q 1072 -8 1063 46 q 971 -172 1058 -76 q 844 -303 883 -268 q 447 -601 644 -490 q 104 -711 250 -711 m 1011 -31 z "},"F":{"ha":1233,"x_min":-119,"x_max":1656,"o":"m 404 -854 q 362 -822 369 -854 q 354 -721 354 -789 q 372 254 354 -487 q 378 417 376 349 q 224 368 286 389 q 157 346 161 347 q 142 343 146 343 q 101 383 111 343 q 128 421 101 407 q 208 449 139 425 q 381 501 278 472 q 399 1033 390 808 q 408 1294 407 1258 q 68 1153 175 1225 q -39 1019 -39 1081 q -7 978 -39 989 q 67 961 25 967 q 140 946 108 956 q 172 908 172 936 q 131 868 172 875 q 78 872 121 868 q -14 892 35 875 q -94 947 -62 910 q -119 1019 -119 981 q 104 1264 -119 1147 q 797 1471 328 1381 q 1363 1558 1115 1531 q 1613 1586 1610 1586 q 1641 1576 1628 1586 q 1656 1546 1654 1565 q 1617 1504 1656 1515 q 1420 1482 1614 1504 q 969 1418 1226 1460 q 493 1318 711 1376 q 493 1318 493 1318 q 490 1315 490 1318 q 461 525 476 933 q 693 578 569 554 q 917 603 817 603 q 977 600 944 603 q 1033 586 1010 597 q 1057 549 1057 575 q 1017 510 1053 510 q 972 518 993 514 q 915 522 951 522 q 698 497 822 522 q 460 439 574 471 q 436 -532 440 -182 q 426 -546 426 -543 q 431 -549 426 -550 q 458 -560 446 -549 q 471 -587 471 -572 l 472 -643 q 458 -792 472 -729 q 404 -854 444 -854 z "},"G":{"ha":1624,"x_min":-139,"x_max":1665,"o":"m 603 -1157 q 499 -1103 544 -1157 q 454 -950 454 -1050 q 479 -784 454 -881 q 560 -564 504 -687 q 757 -241 643 -387 q 989 18 871 -94 q 1015 376 1014 286 q 795 60 944 267 q 475 -331 646 -146 q 171 -560 304 -515 q 82 -572 124 -572 q -43 -531 6 -572 q -115 -416 -92 -489 q -139 -251 -139 -343 q -108 19 -139 -125 q -37 291 -78 163 q 36 506 3 419 q 399 1263 194 931 q 583 1508 479 1392 q 788 1644 686 1625 l 813 1646 q 933 1597 879 1646 q 1032 1412 1000 1531 q 1074 1167 1064 1293 q 1083 964 1083 1042 l 1082 886 q 1042 847 1072 847 q 1000 889 1000 853 q 1001 968 1000 892 q 994 1143 1001 1042 q 966 1340 986 1244 q 908 1501 946 1436 q 811 1565 871 1565 q 481 1240 676 1546 q 111 478 285 935 q -57 -251 -57 10 q 82 -490 -57 -494 q 151 -481 113 -490 q 347 -347 236 -454 q 576 -91 458 -239 q 794 200 693 57 q 959 440 896 343 q 1026 543 1022 536 q 1060 561 1040 561 q 1088 549 1076 558 q 1100 521 1100 539 q 1097 386 1100 507 q 1079 101 1093 265 q 1271 256 1178 189 q 1438 369 1364 322 q 1558 440 1513 415 q 1607 467 1603 464 q 1625 471 1617 471 q 1665 431 1656 471 q 1644 394 1665 410 q 1592 365 1642 393 q 1460 285 1542 338 q 1276 156 1378 232 q 1069 -19 1175 79 q 982 -548 1044 -275 q 803 -1015 919 -821 q 603 -1157 704 -1157 m 601 -1075 q 733 -971 663 -1075 q 894 -565 836 -801 q 975 -111 951 -328 q 795 -325 886 -200 q 633 -599 704 -450 q 559 -803 582 -714 q 536 -953 536 -892 q 554 -1047 536 -1018 q 601 -1075 572 -1075 z "},"H":{"ha":1319,"x_min":-139,"x_max":1499,"o":"m 854 -935 q 828 -924 840 -935 q 817 -910 822 -921 q 811 -861 811 -899 q 840 -481 811 -783 q 933 386 869 -178 q 274 253 624 326 q 244 -268 249 -151 q 279 -308 279 -281 l 279 -312 q 272 -361 279 -315 q 254 -472 265 -407 q 240 -512 250 -493 q 203 -532 231 -532 q 166 -506 172 -528 q 160 -468 160 -485 q 190 235 160 -206 l -87 175 q -99 174 -94 174 q -139 214 -129 174 q -130 238 -139 226 q -107 254 -121 250 q 196 318 -11 275 q 260 1148 228 768 q 293 1535 293 1528 q 333 1572 306 1572 q 375 1532 369 1572 q 360 1356 375 1525 q 322 918 344 1186 q 279 336 300 650 q 942 472 594 404 q 1039 1313 996 949 q 1085 1700 1082 1676 q 1125 1735 1097 1735 q 1153 1721 1142 1735 q 1165 1693 1165 1707 l 1165 1689 q 1025 488 1094 1107 q 1450 553 1363 553 q 1485 542 1471 551 q 1499 511 1499 533 q 1485 482 1497 493 q 1457 471 1472 471 q 1015 401 1369 471 q 927 -421 963 -65 q 892 -864 892 -776 l 892 -876 l 894 -892 q 881 -921 894 -907 q 854 -935 868 -935 z "},"I":{"ha":760,"x_min":50,"x_max":628,"o":"m 321 -704 l 319 -704 q 279 -664 289 -704 q 385 102 293 -411 q 531 1069 478 615 q 546 1332 546 1233 q 532 1501 546 1460 q 506 1543 518 1542 q 492 1546 500 1546 q 440 1525 467 1546 q 396 1482 414 1504 q 272 1285 332 1411 q 171 1006 211 1158 q 131 706 131 853 q 147 547 131 622 q 200 411 164 472 q 206 390 206 400 q 192 363 206 375 q 164 350 179 350 q 129 368 146 350 q 67 534 85 446 q 50 707 50 622 q 61 865 50 790 q 85 994 72 939 q 333 1536 169 1342 q 420 1607 381 1588 q 490 1626 460 1626 q 599 1544 569 1626 q 628 1329 628 1461 q 584 827 628 1135 q 471 118 540 519 q 396 -341 428 -132 q 361 -664 364 -550 q 321 -704 361 -694 z "},"J":{"ha":1113,"x_min":50,"x_max":1169,"o":"m 222 -1128 l 219 -1128 q 160 -1109 194 -1128 q 97 -1037 126 -1090 q 50 -794 50 -940 q 65 -633 50 -725 q 118 -435 79 -540 q 229 -222 157 -331 q 458 33 318 -92 q 738 257 597 158 q 828 770 797 551 q 860 1183 860 989 q 833 1437 860 1357 q 754 1518 807 1517 q 558 1381 674 1518 q 315 993 443 1244 q 233 820 267 897 q 182 694 200 743 q 163 632 164 644 l 163 628 q 150 599 163 613 q 122 586 138 586 q 90 603 104 586 q 81 629 81 607 q 94 689 81 646 q 146 821 108 732 q 321 1174 192 938 q 754 1600 567 1600 q 895 1497 850 1596 q 940 1183 940 1397 q 910 777 940 1003 q 833 326 881 551 q 985 428 922 389 q 1083 488 1047 468 q 1129 507 1119 507 q 1169 465 1163 507 q 1149 431 1169 446 q 1099 401 1146 429 q 976 324 1053 374 q 810 210 900 274 q 628 -465 731 -150 q 426 -954 525 -779 q 222 -1128 325 -1128 m 221 -1047 q 371 -890 286 -1047 q 544 -465 456 -732 q 710 136 633 -199 q 487 -50 600 56 q 296 -268 374 -156 q 169 -543 207 -404 q 131 -797 131 -682 q 169 -1001 131 -928 q 221 -1047 188 -1040 m 144 631 m 144 631 z "},"K":{"ha":1163,"x_min":-103,"x_max":1171,"o":"m 142 -808 q 103 -785 110 -808 q 97 -746 97 -761 l 97 -715 q 147 189 97 -426 q -62 267 28 267 q -91 278 -82 267 q -103 306 -100 290 q -85 340 -103 326 q 171 503 31 418 q 233 1215 206 914 q 264 1536 261 1515 q 304 1572 276 1572 q 344 1532 344 1564 q 319 1253 343 1517 q 257 557 294 990 q 606 806 428 664 q 917 1132 783 949 q 1090 1543 1050 1315 q 1131 1578 1103 1578 q 1171 1536 1171 1572 l 1171 1532 q 977 1079 1126 1279 q 632 725 828 879 q 250 457 436 571 q 232 233 240 344 q 480 45 350 154 q 731 -171 610 -64 q 947 -351 853 -278 q 1086 -424 1042 -424 q 1097 -413 1090 -422 q 1125 -404 1104 -404 q 1165 -444 1157 -404 q 1140 -488 1165 -471 q 1086 -506 1115 -506 q 910 -422 1019 -506 q 631 -190 800 -339 q 225 140 418 3 q 182 -546 194 -260 q 204 -556 192 -546 q 217 -589 217 -567 l 190 -749 q 177 -788 186 -768 q 142 -808 168 -808 m 154 279 l 164 403 q 46 329 99 363 q 154 279 88 315 z "},"L":{"ha":765,"x_min":47,"x_max":975,"o":"m 306 -671 q 215 -658 260 -671 q 132 -614 171 -644 q 95 -567 114 -603 q 63 -453 76 -531 q 50 -235 50 -375 q 114 606 47 61 q 183 1117 147 878 q 245 1509 219 1357 q 272 1668 271 1661 q 314 1700 286 1700 q 353 1660 353 1693 l 353 1653 q 326 1495 351 1646 q 264 1106 300 1344 q 194 596 228 867 q 146 103 160 304 q 132 -226 132 -97 q 149 -478 132 -412 q 183 -551 167 -544 q 307 -590 236 -590 q 464 -557 382 -590 q 624 -474 546 -524 q 765 -376 701 -425 q 865 -292 828 -326 q 906 -257 903 -258 q 935 -244 919 -244 q 975 -285 965 -244 q 961 -314 975 -300 q 927 -347 957 -319 q 847 -415 897 -375 q 733 -499 797 -456 q 597 -582 669 -543 q 451 -646 525 -621 q 306 -671 376 -671 z "},"M":{"ha":1951,"x_min":-210,"x_max":1735,"o":"m 369 629 q 408 783 381 661 q 563 1341 496 1153 q 681 1596 631 1529 q 768 1665 732 1663 l 786 1668 q 912 1522 869 1668 q 973 1101 954 1376 q 1000 435 992 825 q 1018 -29 1007 164 q 1027 -144 1022 -101 q 1035 -203 1032 -186 q 1039 -221 1039 -221 q 1048 -204 1039 -221 q 1073 -144 1057 -187 q 1113 -24 1089 -101 q 1238 461 1175 189 q 1397 1053 1331 861 q 1536 1249 1463 1246 q 1586 1229 1564 1249 q 1637 1066 1624 1190 q 1650 742 1650 942 l 1646 211 q 1650 -31 1646 82 q 1665 -202 1656 -146 q 1683 -275 1675 -258 q 1693 -292 1692 -292 q 1735 -333 1728 -292 q 1722 -362 1735 -353 q 1692 -372 1708 -372 q 1590 -228 1614 -372 q 1565 217 1565 -85 l 1569 735 q 1565 957 1569 856 q 1547 1127 1557 1089 q 1536 1165 1536 1165 q 1526 1152 1536 1167 q 1497 1092 1517 1138 q 1449 953 1478 1046 q 1318 443 1383 731 q 1165 -129 1228 56 q 1028 -314 1103 -314 q 949 -156 968 -314 q 919 433 929 1 q 886 1174 913 821 q 850 1444 869 1354 q 813 1560 831 1533 q 788 1588 796 1588 q 729 1528 771 1592 q 613 1235 688 1464 q 421 463 524 951 q 322 -52 365 192 q 251 -458 278 -296 q 221 -644 225 -619 q 181 -682 221 -675 q 140 -642 147 -682 q 188 -302 146 -600 q 271 481 229 -4 q 299 1071 299 844 q 286 1375 299 1264 q 253 1540 274 1486 q 213 1608 233 1593 q 175 1622 192 1622 q 121 1603 147 1622 q 74 1563 94 1585 q -72 1313 -15 1463 q -129 1064 -129 1164 q -126 1029 -129 1042 q -119 999 -122 1017 q -161 957 -119 965 q -201 992 -192 957 q -210 1063 -210 1028 q -145 1347 -210 1183 q 14 1617 -81 1511 q 103 1684 61 1665 q 176 1703 144 1703 q 300 1626 256 1703 q 363 1406 344 1549 q 381 1068 381 1264 q 369 629 381 758 z "},"N":{"ha":1367,"x_min":-139,"x_max":1151,"o":"m 128 -682 q 88 -642 90 -682 l 88 -637 q 112 -474 88 -633 q 169 -67 136 -315 q 232 465 201 182 q 274 956 261 751 q 286 1300 286 1161 q 276 1558 286 1471 q 247 1674 265 1644 q 203 1704 228 1704 q 128 1670 172 1704 q 41 1558 83 1636 q -30 1350 -1 1481 q -58 1028 -58 1219 q -51 849 -58 939 q -92 808 -51 815 q -118 819 -106 808 q -132 846 -131 829 q -139 1028 -139 943 q -84 1458 -139 1290 q 51 1706 -29 1625 q 204 1786 131 1786 q 286 1753 250 1786 q 323 1692 304 1736 q 355 1556 342 1649 q 368 1294 368 1463 q 346 813 365 1058 q 304 375 326 567 l 317 421 l 346 529 q 647 1403 501 1113 q 936 1693 793 1693 q 1069 1554 1032 1690 q 1107 1124 1107 1418 q 1087 516 1107 867 q 1067 -90 1067 165 q 1077 -316 1068 -243 q 1097 -409 1086 -389 q 1110 -429 1107 -429 q 1151 -468 1142 -429 q 1108 -510 1151 -507 q 1012 -401 1039 -510 q 985 -86 985 -293 q 1005 492 985 147 q 1025 1117 1025 836 q 1022 1272 1025 1199 q 1001 1499 1015 1426 q 969 1593 986 1572 q 936 1613 951 1614 q 858 1574 906 1613 q 745 1419 810 1535 q 601 1085 681 1304 q 425 510 521 865 q 291 -42 349 219 q 201 -474 233 -304 q 168 -647 168 -644 q 128 -682 153 -682 z "},"O":{"ha":1335,"x_min":-54,"x_max":1190,"o":"m 357 -603 q 194 -557 275 -603 q 48 -406 103 -503 q -31 -184 -7 -310 q -54 79 -54 -58 q -26 422 -54 250 q 44 739 3 594 q 83 852 57 779 q 147 1002 108 925 q 235 1133 186 1079 q 339 1188 283 1188 q 383 1144 383 1183 q 340 1106 372 1106 l 338 1106 q 242 1008 301 1106 q 124 714 183 910 q 26 83 26 386 q 76 -268 26 -115 q 233 -486 125 -421 q 358 -521 294 -521 q 601 -398 478 -521 q 831 -56 724 -275 q 1015 454 938 163 q 1110 1103 1110 822 q 1051 1458 1110 1336 q 883 1579 993 1579 q 624 1374 761 1579 q 412 920 503 1185 q 269 392 321 656 q 218 -44 218 128 q 239 -196 218 -146 l 242 -210 q 229 -238 242 -225 q 201 -251 217 -251 q 164 -226 179 -251 q 138 -39 138 -158 q 256 684 138 242 q 556 1418 375 1126 q 883 1660 717 1660 q 972 1643 924 1660 q 1064 1581 1019 1626 q 1140 1449 1108 1535 q 1190 1104 1190 1308 q 1094 433 1190 811 q 892 -112 1010 119 q 636 -474 774 -344 q 357 -603 499 -603 z "},"P":{"ha":1146,"x_min":-121,"x_max":1124,"o":"m -58 -964 q -97 -940 -90 -964 q -103 -901 -103 -917 l -103 -876 q -46 -131 -103 -643 l -81 -133 q -121 -93 -111 -133 q -104 -60 -121 -68 q -67 -51 -87 -51 q -36 -49 -47 -50 q 60 676 3 290 q 186 1359 118 1063 q 325 1725 254 1656 q 369 1742 351 1742 q 402 1731 389 1740 q 415 1701 415 1722 q 402 1672 413 1685 q 374 1660 392 1660 l 374 1660 q 358 1638 371 1661 q 320 1543 344 1615 q 263 1322 296 1471 q 118 524 178 946 q 267 916 168 678 q 493 1367 365 1154 q 761 1656 621 1579 q 860 1679 813 1679 q 1049 1570 974 1679 q 1124 1290 1124 1461 q 1018 808 1124 1074 q 728 318 913 543 q 444 55 618 182 q 38 -119 271 -72 q -15 -701 -1 -469 q 5 -712 -7 -701 q 17 -744 17 -724 l -10 -904 q -23 -944 -14 -924 q -58 -964 -32 -964 m 47 -35 q 467 165 282 15 q 779 516 651 314 q 974 925 907 718 q 1042 1286 1042 1132 q 990 1512 1042 1426 q 858 1597 939 1597 q 797 1582 829 1597 q 584 1360 689 1525 q 385 978 479 1194 q 219 556 292 763 q 103 213 146 350 q 60 68 61 76 l 60 67 q 47 -35 51 3 z "},"Q":{"ha":1396,"x_min":-101,"x_max":1269,"o":"m 1017 -706 q 832 -660 921 -706 q 644 -540 743 -614 q 443 -604 549 -604 q 266 -551 353 -604 q 132 -399 179 -499 q -25 -600 61 -453 q -61 -619 -42 -619 q -88 -607 -75 -619 q -101 -579 -101 -594 q -96 -557 -101 -569 q 103 -318 4 -389 q 71 -58 71 -218 q 169 553 71 206 q 294 890 222 731 q 445 1153 365 1050 q 597 1256 525 1256 q 640 1214 640 1250 q 601 1174 633 1174 l 597 1174 q 440 999 542 1174 q 249 529 338 824 q 151 -57 151 194 q 176 -276 149 -178 q 289 -253 222 -253 q 488 -325 388 -253 l 611 -415 q 644 -439 635 -433 q 1082 374 904 -219 q 1188 1068 1188 761 q 1131 1425 1188 1289 q 960 1579 1075 1561 q 903 1583 932 1583 q 582 1471 746 1583 q 274 1147 418 1358 q 106 822 167 985 q 44 542 44 658 q 68 431 44 472 q 72 411 72 421 q 60 383 72 397 q 32 369 49 369 q -3 390 13 369 q -36 543 -36 453 q 132 1069 -36 769 q 544 1543 300 1369 q 899 1665 724 1665 q 969 1660 933 1665 q 1196 1474 1122 1635 q 1269 1065 1269 1313 q 1160 353 1269 750 q 713 -487 979 -251 q 869 -587 796 -550 q 1017 -625 942 -625 q 1068 -621 1046 -625 q 1108 -661 1100 -621 q 1074 -701 1108 -689 q 1017 -706 1044 -706 m 444 -522 q 574 -487 517 -522 q 481 -417 526 -453 q 388 -358 435 -382 q 289 -335 340 -335 q 201 -354 240 -335 q 315 -486 233 -433 q 444 -522 379 -522 z "},"R":{"ha":1389,"x_min":-121,"x_max":1404,"o":"m 58 -819 q 28 -807 38 -819 q 17 -780 19 -794 q 14 -756 14 -765 q 49 -226 14 -556 l -79 -279 q -108 -267 -96 -281 q -121 -239 -121 -253 q -97 -201 -121 -212 q -53 -181 -72 -189 l 60 -122 q 263 1133 140 604 q 330 1359 300 1283 q 380 1463 360 1435 q 408 1494 400 1490 q 456 1513 438 1513 q 488 1502 474 1511 q 501 1469 501 1493 q 461 1431 494 1431 l 458 1432 q 447 1417 458 1432 q 412 1344 435 1401 q 356 1164 389 1286 q 229 535 281 871 q 404 882 290 683 q 666 1256 518 1081 q 974 1508 814 1431 q 1143 1550 1075 1550 q 1263 1522 1217 1550 q 1331 1464 1308 1493 q 1404 1225 1404 1365 q 1365 1002 1404 1119 q 1247 778 1325 885 q 904 386 1088 558 q 553 93 721 214 q 278 -92 386 -28 l 318 -93 q 551 -134 446 -93 q 741 -233 656 -175 q 896 -351 826 -292 q 1023 -451 965 -410 q 1128 -492 1081 -492 l 1157 -489 q 1199 -529 1194 -489 q 1167 -569 1199 -554 q 1129 -572 1146 -572 q 998 -531 1063 -572 q 863 -431 933 -490 q 713 -314 793 -372 q 534 -215 632 -256 q 315 -174 436 -174 q 132 -199 228 -174 q 101 -556 111 -407 q 122 -566 110 -556 q 133 -596 133 -576 l 131 -628 q 107 -760 125 -662 q 94 -799 104 -779 q 58 -819 85 -819 m 146 -72 q 404 90 254 -11 q 713 321 554 190 q 1010 601 872 451 q 1235 910 1147 751 q 1322 1224 1322 1068 q 1275 1406 1322 1342 q 1144 1469 1228 1469 q 1008 1435 1083 1469 q 642 1094 819 1340 q 338 576 465 847 q 172 138 211 306 l 146 -72 z "},"S":{"ha":1238,"x_min":-62,"x_max":1285,"o":"m 217 -935 q 90 -919 149 -935 q -8 -869 31 -903 q -46 -820 -29 -851 q -62 -744 -62 -789 q 31 -503 -62 -639 q 269 -226 124 -368 q 581 43 415 -85 q 346 268 472 150 q 111 506 219 386 q -11 794 -11 642 q 15 936 -11 864 q 238 1243 81 1107 q 570 1465 394 1379 q 865 1572 746 1551 q 946 1579 908 1579 q 1132 1508 1065 1579 q 1176 1422 1164 1469 q 1188 1329 1188 1374 q 1183 1259 1188 1292 q 1172 1206 1178 1226 q 1167 1182 1167 1185 q 1126 1153 1153 1153 q 1088 1193 1088 1160 q 1089 1206 1088 1200 q 1098 1243 1089 1206 q 1107 1329 1107 1281 q 1099 1397 1107 1364 q 1069 1454 1092 1429 q 949 1499 1033 1499 q 763 1460 874 1499 q 532 1355 651 1422 q 308 1199 413 1288 q 138 1007 204 1110 q 71 796 71 904 q 172 560 71 671 q 413 317 286 435 q 646 93 540 199 q 851 241 751 172 q 1031 362 950 310 q 1163 444 1113 414 q 1222 481 1214 475 q 1244 486 1235 486 q 1285 446 1275 486 q 1265 410 1285 426 q 1179 358 1260 407 q 972 224 1099 308 q 703 33 846 139 q 833 -119 775 -42 q 924 -278 890 -197 q 958 -443 958 -360 q 597 -850 953 -692 q 217 -935 399 -935 m 217 -854 q 564 -776 369 -854 q 878 -444 871 -639 q 810 -231 878 -337 q 639 -17 743 -124 q 358 -256 500 -124 q 117 -518 215 -387 q 19 -744 19 -649 q 72 -828 19 -801 q 217 -854 124 -854 z "},"T":{"ha":732,"x_min":-608,"x_max":1514,"o":"m 218 -903 l 207 -903 q 168 -850 172 -897 l 167 -776 q 269 583 167 -376 q 378 1365 331 1101 q -560 1167 -103 1267 q -592 1175 -578 1167 q -608 1206 -606 1183 q -576 1247 -608 1233 q 393 1451 -351 1296 q 457 1674 431 1629 q 499 1718 483 1719 q 544 1711 522 1726 q 567 1674 567 1696 q 525 1633 567 1642 q 506 1578 518 1621 q 481 1469 494 1535 q 1093 1587 810 1536 q 1460 1638 1376 1638 q 1497 1631 1481 1638 q 1514 1597 1514 1624 q 1501 1568 1513 1581 q 1471 1556 1490 1556 l 1453 1557 q 1107 1507 1385 1557 q 464 1382 829 1457 q 330 384 397 1017 q 251 -643 263 -249 q 260 -667 251 -665 q 300 -719 300 -669 q 281 -796 297 -740 q 218 -903 256 -901 z "},"U":{"ha":1439,"x_min":50,"x_max":1361,"o":"m 1129 -911 q 1081 -893 1103 -911 q 1035 -807 1056 -876 q 1015 -553 1015 -737 q 1073 250 1015 -269 q 1192 1172 1131 769 q 1003 633 1157 1054 q 249 -508 572 -510 q 133 -442 176 -508 q 69 -262 89 -376 q 50 -1 50 -147 q 67 346 50 175 q 99 615 85 517 q 169 1017 131 843 q 224 1188 203 1153 q 257 1221 244 1222 q 299 1214 281 1228 q 317 1178 318 1200 q 309 1151 317 1165 q 288 1138 301 1138 q 231 917 268 1094 q 163 475 194 739 q 132 3 132 204 q 185 -374 132 -262 q 224 -420 206 -412 q 251 -428 242 -428 q 483 -253 361 -422 q 728 184 606 -83 q 960 751 850 451 q 1153 1319 1069 1051 q 1281 1754 1236 1586 q 1322 1785 1297 1785 q 1361 1744 1361 1776 l 1361 1739 q 1331 1552 1360 1729 q 1262 1095 1303 1375 q 1182 499 1221 815 q 1096 -547 1096 -228 q 1102 -727 1096 -668 q 1117 -807 1108 -786 q 1131 -829 1125 -828 l 1140 -828 q 1182 -867 1176 -828 q 1165 -899 1182 -887 q 1129 -911 1147 -911 z "},"V":{"ha":1314,"x_min":-404,"x_max":1565,"o":"m 478 -643 q 364 -519 401 -643 q 310 -160 326 -394 q 282 408 293 75 q 236 1206 272 850 q 201 1419 219 1340 q 165 1535 183 1497 q 126 1583 146 1572 q 88 1593 107 1593 q 29 1580 58 1593 q -25 1550 0 1567 q -222 1347 -132 1475 q -324 1118 -311 1218 q -364 1081 -333 1081 q -404 1121 -404 1090 l -404 1125 q -310 1361 -392 1235 q -118 1581 -229 1488 q 88 1674 -7 1674 q 140 1665 115 1674 q 268 1474 224 1635 q 333 1042 313 1313 q 364 411 353 771 q 403 -287 374 3 q 433 -473 418 -414 q 461 -547 449 -532 q 478 -562 474 -562 q 519 -536 492 -562 q 594 -424 547 -510 q 708 -168 640 -339 q 1000 693 851 213 q 1281 1525 1149 1174 q 1408 1797 1351 1710 q 1518 1883 1464 1883 q 1551 1874 1538 1883 q 1565 1842 1565 1864 q 1524 1803 1557 1803 l 1517 1803 q 1497 1787 1514 1803 q 1446 1705 1481 1771 q 1354 1496 1411 1639 q 1090 707 1233 1168 q 851 -14 958 288 q 654 -479 744 -315 q 478 -643 564 -643 z "},"W":{"ha":1753,"x_min":50,"x_max":1646,"o":"m 192 -667 q 158 -658 174 -667 q 103 -595 132 -653 q 58 -375 74 -537 q 50 -133 50 -271 q 99 642 50 215 q 226 1381 149 1069 q 446 1750 319 1750 q 492 1708 492 1746 q 451 1668 483 1668 l 446 1668 q 422 1652 440 1668 q 374 1570 403 1636 q 306 1360 344 1504 q 178 601 225 1039 q 132 -143 132 164 q 142 -418 132 -324 q 167 -549 153 -512 q 193 -585 181 -585 l 199 -582 q 376 -292 275 -536 q 576 276 476 -49 q 750 886 676 600 q 790 917 764 917 q 831 876 831 910 q 819 744 831 871 q 808 368 808 618 q 832 -33 808 163 q 924 -318 856 -229 q 990 -353 953 -356 q 1090 -306 1043 -353 q 1172 -200 1138 -258 q 1374 258 1285 -21 q 1514 834 1463 538 q 1565 1343 1565 1131 q 1528 1588 1565 1513 q 1512 1608 1518 1604 q 1499 1613 1506 1613 q 1458 1653 1468 1613 q 1499 1694 1458 1686 q 1548 1681 1519 1694 q 1600 1625 1576 1667 q 1635 1506 1625 1579 q 1646 1342 1646 1432 q 1628 1057 1646 1211 q 1583 757 1610 903 q 1420 137 1515 404 q 1213 -283 1325 -131 q 986 -435 1101 -435 q 861 -371 914 -433 q 778 -183 807 -304 q 738 88 749 -61 q 726 379 726 236 l 726 493 q 624 157 710 428 q 448 -326 526 -144 q 306 -587 369 -507 q 192 -667 243 -667 z "},"X":{"ha":1728,"x_min":-314,"x_max":1789,"o":"m -231 -961 q -271 -919 -265 -961 l -271 -914 q 426 468 -149 -379 q 294 1063 357 808 q 203 1330 247 1239 q 118 1454 158 1421 q 43 1488 78 1488 q -62 1438 -10 1488 q -160 1325 -115 1389 q -233 1213 -204 1261 q -249 1193 -240 1201 q -274 1185 -257 1185 q -314 1226 -304 1185 q -307 1247 -314 1238 q -244 1344 -279 1290 q -165 1449 -208 1399 q -69 1534 -121 1500 q 43 1568 -17 1568 q 228 1447 149 1563 q 374 1082 308 1332 q 492 557 429 864 l 493 547 l 489 557 q 833 1030 654 797 q 1167 1453 1011 1263 q 1422 1758 1324 1643 q 1524 1878 1519 1872 q 1554 1892 1538 1892 q 1583 1880 1569 1892 q 1596 1851 1596 1868 q 1585 1825 1596 1839 q 1466 1688 1579 1819 q 1171 1331 1353 1556 q 781 826 989 1107 q 514 450 633 629 q 669 -210 586 100 q 778 -511 733 -429 q 851 -599 824 -593 q 872 -601 860 -601 q 967 -565 906 -601 q 1124 -422 1028 -528 q 1363 -114 1221 -317 q 1537 155 1458 26 q 1663 367 1615 283 q 1713 454 1711 450 q 1747 476 1729 476 q 1776 464 1763 476 q 1789 436 1789 451 q 1783 417 1789 426 q 1734 328 1782 413 q 1606 113 1686 243 q 1428 -160 1525 -18 q 871 -683 1071 -683 q 713 -560 782 -683 q 582 -205 644 -437 q 451 357 519 28 q -190 -929 -71 -425 q -231 -961 -203 -961 z "},"Y":{"ha":1550,"x_min":50,"x_max":1601,"o":"m 581 -1021 q 542 -1012 558 -1021 q 458 -926 488 -993 q 429 -761 429 -858 q 490 -456 429 -615 q 678 -137 550 -297 q 1010 176 807 24 q 1146 904 1089 560 q 1225 1407 1203 1249 q 944 863 1154 1249 q 272 97 518 97 q 108 211 164 97 q 50 532 53 325 q 91 953 50 722 q 189 1342 132 1185 q 242 1447 219 1425 q 283 1468 264 1469 q 317 1454 297 1468 q 338 1417 338 1440 q 297 1376 338 1386 l 289 1376 l 290 1375 q 241 1244 274 1350 q 176 971 208 1139 q 132 540 132 726 q 274 179 132 185 q 352 206 303 179 q 474 309 401 233 q 644 528 546 385 q 872 900 743 671 q 1071 1276 982 1097 q 1213 1569 1160 1454 q 1267 1689 1265 1683 q 1306 1714 1283 1714 q 1344 1672 1344 1706 l 1344 1668 q 1310 1422 1340 1636 q 1227 892 1279 1207 q 1107 247 1175 578 q 1316 378 1217 324 q 1478 463 1415 433 q 1544 493 1542 492 q 1560 496 1554 496 q 1601 456 1592 496 q 1574 417 1601 433 q 1436 349 1572 417 q 1115 154 1300 282 q 1083 128 1093 136 q 936 -460 1015 -194 q 771 -871 857 -725 q 666 -990 715 -958 q 581 -1021 617 -1021 m 581 -939 q 701 -828 629 -939 q 851 -459 779 -696 q 982 51 922 -222 q 698 -242 835 -61 q 519 -657 561 -424 q 511 -764 511 -715 q 531 -894 511 -849 q 581 -939 551 -939 z "},"Z":{"ha":1193,"x_min":-214,"x_max":1292,"o":"m 118 -722 l 104 -722 q 68 -711 89 -721 q 30 -676 47 -701 q 13 -604 13 -651 q 131 -317 19 -464 q 405 -35 242 -171 q 731 208 568 101 l 731 217 q 672 377 731 333 q 518 421 614 421 q 408 410 463 421 q 308 386 353 400 q 234 362 263 372 q 204 350 206 351 l 190 347 q 147 389 156 347 q 164 421 147 406 q 224 468 168 424 q 372 588 281 513 q 573 760 464 663 q 792 967 682 857 q 994 1188 901 1076 q 1144 1402 1086 1299 q 1210 1592 1203 1506 q 1145 1706 1210 1667 q 990 1746 1081 1746 q 673 1672 860 1746 q 272 1458 486 1599 q -3 1254 101 1347 q -128 1117 -107 1161 q -164 1093 -143 1093 q -199 1109 -183 1090 q -203 1150 -214 1128 q -40 1329 -168 1218 q 269 1554 89 1440 q 643 1747 450 1668 q 992 1826 836 1826 q 1137 1799 1068 1826 q 1249 1719 1206 1772 q 1292 1592 1292 1667 l 1289 1557 q 1087 1176 1260 1388 q 709 776 914 964 q 379 489 504 588 q 425 496 383 490 q 517 501 467 501 q 718 444 633 501 q 810 261 803 386 q 1006 385 924 335 q 1138 460 1089 435 q 1200 486 1188 486 q 1239 444 1232 486 q 1219 410 1239 425 q 1094 339 1211 406 q 810 163 976 272 q 709 -161 793 11 q 485 -487 625 -333 q 284 -660 382 -597 q 118 -722 186 -722 m 119 -642 q 310 -542 185 -642 q 552 -274 436 -442 q 717 100 668 -107 l 719 113 l 718 100 q 432 -117 574 3 q 195 -362 290 -236 q 94 -604 100 -487 q 100 -636 94 -631 q 113 -642 106 -642 l 119 -642 z "},"[":{"ha":675,"x_min":50,"x_max":625,"o":"m 92 -786 q 64 -774 78 -786 q 50 -744 50 -762 l 311 1699 q 326 1724 314 1714 q 351 1735 338 1735 l 585 1732 q 625 1692 615 1732 q 585 1651 625 1661 l 388 1654 l 136 -699 l 304 -678 q 333 -689 319 -678 q 347 -718 346 -700 q 311 -758 347 -746 l 92 -786 z "},"\\":{"ha":717,"x_min":-133,"x_max":667,"o":"m 622 -849 l 617 -849 q 582 -807 582 -835 q 586 -753 586 -789 q 514 -327 586 -614 q 336 300 442 -40 q 125 954 231 640 q -53 1473 19 1268 q -131 1690 -126 1678 q -133 1704 -133 1697 q -119 1733 -133 1722 q -92 1744 -106 1744 q -56 1718 -69 1744 q 32 1474 -43 1686 q 213 949 107 1263 q 422 297 318 635 q 596 -327 525 -40 q 667 -758 667 -614 q 661 -819 667 -789 q 622 -849 656 -849 z "},"]":{"ha":701,"x_min":50,"x_max":651,"o":"m 293 -771 l 90 -765 q 50 -724 57 -765 q 92 -683 50 -692 l 257 -689 l 565 1667 l 360 1671 q 319 1713 329 1671 q 360 1753 319 1743 l 613 1746 q 639 1733 626 1746 q 651 1706 651 1721 l 333 -735 q 319 -760 331 -750 q 293 -771 307 -771 z "},"^":{"ha":603,"x_min":50,"x_max":553,"o":"m 90 1139 q 50 1181 60 1139 q 58 1206 50 1193 l 303 1514 q 338 1529 317 1529 q 369 1510 356 1526 q 550 1213 446 1390 l 553 1199 q 542 1169 553 1179 q 514 1156 532 1160 q 475 1179 490 1156 q 331 1418 424 1272 l 122 1154 q 90 1139 107 1139 z "},"_":{"ha":1188,"x_min":50,"x_max":1024,"o":"m 983 -90 l 90 -60 q 50 -18 57 -60 q 90 21 50 14 l 985 -10 q 1012 -22 1000 -10 q 1024 -49 1024 -33 q 1013 -77 1024 -64 q 983 -90 1003 -90 z "},"`":{"ha":325,"x_min":50,"x_max":275,"o":"m 235 1450 q 204 1464 218 1450 l 60 1619 q 50 1646 50 1633 q 63 1674 50 1661 q 92 1688 76 1688 q 121 1674 107 1688 l 265 1518 q 275 1490 275 1504 q 264 1464 275 1478 q 235 1450 253 1450 z "},"a":{"ha":928,"x_min":-82,"x_max":996,"o":"m 460 -160 q 369 -112 404 -160 q 335 29 335 -65 q 366 281 335 144 q 419 485 397 418 q 361 406 419 485 q 187 188 257 263 q 74 89 117 114 q 4 64 31 64 l -10 65 q -57 94 -32 67 q -82 189 -82 121 q -11 488 -82 308 q 153 746 60 668 q 268 786 214 786 q 352 766 315 786 q 413 718 389 746 q 443 667 436 690 q 499 752 476 717 q 524 792 521 788 q 581 803 553 821 q 600 775 601 790 q 599 760 599 760 q 524 545 567 678 q 449 270 482 413 q 415 29 415 128 q 431 -61 415 -29 q 449 -78 440 -79 l 461 -79 q 605 17 519 -79 q 774 247 690 114 q 919 499 858 379 q 957 521 936 521 q 984 509 972 521 q 996 482 996 497 q 993 465 996 474 q 967 415 993 464 q 899 294 942 367 q 801 143 856 222 q 460 -160 597 -160 m 6 146 q 42 163 13 146 q 132 247 71 181 q 296 453 193 314 q 368 557 333 506 q 376 593 376 572 q 335 679 376 639 q 309 697 325 688 q 269 706 293 706 q 200 681 239 706 q 61 456 124 615 q -1 193 -1 296 q 6 146 -1 165 z "},"b":{"ha":942,"x_min":-118,"x_max":1019,"o":"m 64 -361 q 10 -340 29 -361 q -6 -320 1 -335 q -14 -283 -14 -306 q 29 -167 -14 -243 q 216 35 96 -68 q 474 229 336 138 q 499 399 499 317 q 486 501 499 451 q 444 584 474 551 q 364 617 414 617 q 293 592 329 617 q 157 436 218 539 q 58 241 96 333 q 17 125 21 149 l -37 -231 q -54 -257 -40 -249 q -83 -265 -68 -265 q -118 -224 -118 -251 l -118 -219 q 86 1046 -35 354 q 200 1572 150 1383 q 278 1790 246 1738 q 339 1838 311 1842 q 381 1796 371 1838 q 356 1760 381 1774 q 344 1744 354 1760 q 317 1682 335 1729 q 275 1539 300 1635 q 164 1017 226 1350 q 67 450 104 676 q 135 556 90 499 q 240 655 181 613 q 364 697 299 697 q 519 616 458 697 q 579 401 579 535 q 571 293 579 336 q 749 403 664 354 q 892 483 835 453 q 960 519 950 514 q 978 524 969 524 q 1006 511 993 524 q 1019 483 1019 499 q 996 447 1019 463 q 927 410 993 446 q 759 313 861 374 q 542 176 657 253 q 418 -76 501 49 q 210 -296 335 -201 q 125 -347 161 -332 q 64 -361 89 -361 m 68 -282 l 68 -281 l 64 -281 q 96 -271 72 -281 q 163 -231 119 -261 q 328 -67 260 -156 q 425 96 396 22 q 242 -49 333 32 q 99 -211 151 -131 q 74 -258 79 -240 q 68 -282 68 -275 z "},"c":{"ha":911,"x_min":-89,"x_max":976,"o":"m 150 -165 q -23 -85 43 -165 q -89 133 -89 -4 q -28 443 -89 268 q 136 767 33 618 q 201 849 161 804 q 289 928 240 894 q 389 961 338 961 q 490 901 457 958 q 522 738 522 843 q 513 602 522 668 q 492 464 504 536 q 453 426 486 431 q 411 467 411 426 q 419 521 411 479 q 434 620 426 563 q 442 739 442 678 q 430 842 442 806 q 388 881 418 879 q 196 713 308 881 q 22 331 83 546 q 1 241 11 294 q -8 131 -8 188 q 28 -21 -8 42 q 150 -83 65 -83 q 344 -18 236 -83 q 560 142 451 47 q 759 335 668 238 q 904 501 850 432 q 936 515 919 515 q 964 503 951 515 q 976 475 976 490 q 967 449 976 463 q 922 394 965 446 q 804 265 878 343 q 639 104 731 188 q 150 -165 340 -165 z "},"d":{"ha":933,"x_min":-100,"x_max":882,"o":"m 706 -939 q 656 -925 678 -939 q 547 -688 582 -881 q 511 -189 511 -496 q 538 434 511 111 q 603 975 565 757 q 562 869 603 975 q 403 483 521 764 q 263 206 325 311 q 154 46 201 100 q 72 -26 107 -8 q 10 -44 36 -44 q -42 -28 -11 -46 q -89 39 -72 -11 q -100 128 -100 79 q -84 266 -100 193 q -47 403 -68 339 q 99 676 15 576 q 269 776 183 776 q 355 749 318 776 q 403 692 392 721 q 731 1586 557 1056 q 804 1811 767 1711 q 842 1836 819 1836 q 882 1797 872 1836 q 881 1783 882 1790 q 874 1764 881 1783 l 808 1560 q 649 685 707 1179 q 592 -196 592 190 q 625 -681 592 -504 q 706 -858 658 -858 q 738 -844 721 -858 q 771 -810 754 -829 q 803 -794 786 -794 q 843 -836 833 -794 q 833 -862 843 -849 q 764 -922 796 -906 q 706 -939 732 -939 m 11 38 q 49 53 24 38 q 113 121 74 69 q 208 274 153 172 q 340 543 264 375 q 346 585 346 563 q 324 663 346 632 q 268 694 301 694 q 208 671 242 694 q 49 426 118 597 q -19 126 -19 254 q -11 64 -19 88 q 0 41 -6 44 q 10 38 6 38 l 11 38 z "},"e":{"ha":810,"x_min":-83,"x_max":874,"o":"m 135 -140 q -24 -69 36 -140 q -83 133 -83 3 q -64 304 -83 208 q 38 603 -24 486 q 168 776 99 719 q 301 832 238 832 q 426 706 418 824 q 386 601 426 649 q 217 510 318 535 q 72 485 117 486 q -1 132 -1 281 q 22 4 -1 44 q 76 -48 44 -36 q 135 -60 108 -60 q 178 -54 163 -60 q 378 56 272 -29 q 581 244 485 142 q 738 421 676 346 q 801 501 799 496 q 833 517 817 517 q 861 504 849 517 q 874 476 874 492 q 865 453 874 465 q 826 401 861 446 q 734 290 792 357 q 603 148 676 222 q 450 8 531 74 q 288 -99 369 -57 q 135 -140 207 -140 m 110 572 q 220 596 154 576 q 325 656 286 615 q 346 707 346 679 q 307 750 346 749 q 215 713 268 750 q 110 572 161 675 z "},"f":{"ha":456,"x_min":-200,"x_max":640,"o":"m 29 -1022 q 3 -1012 14 -1022 q -57 -819 -42 -968 q -72 -504 -72 -669 q -67 -253 -72 -369 q 50 868 -43 353 l -160 868 q -200 908 -190 868 q -160 950 -200 942 l 65 950 q 458 1800 215 1726 q 499 1806 481 1806 q 541 1797 522 1806 q 571 1779 560 1789 q 626 1667 611 1740 q 640 1514 640 1593 q 630 1337 640 1418 q 615 1233 619 1256 q 575 1200 603 1200 q 535 1240 535 1208 l 535 1246 q 558 1514 558 1376 q 549 1641 558 1586 q 517 1717 539 1696 q 499 1725 513 1725 q 482 1721 492 1725 q 156 988 297 1660 l 147 950 l 464 950 q 492 938 479 950 q 504 908 504 925 q 464 868 504 878 l 132 868 q 41 162 72 532 q 10 -494 10 -208 q 17 -745 10 -647 q 35 -893 24 -843 q 56 -950 46 -943 q 69 -982 69 -965 q 57 -1009 69 -996 q 29 -1022 44 -1022 z "},"g":{"ha":1079,"x_min":-106,"x_max":1147,"o":"m 53 -1721 q -49 -1660 -12 -1721 q -86 -1492 -86 -1599 q -31 -1174 -86 -1360 q 265 -552 74 -857 q 651 4 457 -247 q 697 494 697 307 q 668 694 697 643 q 656 708 660 708 l 654 708 q 629 692 651 708 q 556 613 607 676 q 376 350 474 504 q 222 122 290 218 q 97 -28 153 25 q -10 -81 40 -81 q -56 -66 -29 -82 q -97 -1 -82 -50 q -106 79 -106 32 q -47 397 -106 206 q 28 581 -26 468 q 165 756 82 693 q 292 794 229 794 q 419 751 363 794 q 485 656 475 707 q 571 751 526 713 q 657 789 615 789 q 696 780 675 789 q 739 738 717 771 q 769 633 760 697 q 779 489 779 568 q 751 129 779 304 q 975 394 881 290 q 1075 504 1069 499 q 1106 518 1092 518 q 1147 478 1138 518 q 1135 450 1147 464 q 1076 385 1132 446 q 931 217 1021 324 q 729 -31 840 110 q 424 -1251 599 -812 q 235 -1598 332 -1475 q 53 -1721 138 -1721 m 50 -1639 q 123 -1600 78 -1639 q 226 -1469 168 -1561 q 349 -1221 283 -1378 q 626 -151 506 -815 l 629 -140 l 626 -164 q 299 -653 463 -379 q 47 -1199 136 -926 q -6 -1490 -6 -1379 q 50 -1639 -6 -1636 m -10 1 q 104 99 29 1 q 260 322 179 196 q 406 544 342 447 q 411 589 411 564 q 377 678 411 644 q 290 713 343 713 q 210 686 253 713 q 47 417 118 617 q -25 82 -25 218 q -22 25 -25 49 q -10 1 -18 1 z "},"h":{"ha":1178,"x_min":-114,"x_max":1242,"o":"m -72 -522 q -114 -483 -108 -518 l -114 -451 q 76 928 -114 -7 q 236 1611 158 1321 q 299 1819 278 1761 q 335 1910 319 1876 q 368 1957 351 1943 q 413 1965 388 1972 q 440 1924 438 1956 q 414 1886 440 1894 q 401 1859 414 1885 q 367 1767 389 1833 q 313 1581 346 1700 q 154 901 235 1290 q -12 -106 11 194 q 153 313 38 63 q 474 686 332 686 q 497 683 486 686 q 581 605 554 669 q 625 454 607 540 q 672 293 643 367 q 750 201 700 219 q 775 199 763 199 q 893 242 828 199 q 1053 370 978 294 q 1169 499 1129 446 q 1201 513 1185 513 q 1228 504 1214 513 q 1242 474 1242 489 q 1233 447 1242 461 q 1209 418 1231 444 q 1149 352 1188 392 q 1064 268 1111 313 q 775 117 894 117 q 728 122 750 117 q 603 244 642 153 q 544 435 565 335 q 515 549 531 499 q 481 604 499 599 l 474 606 q 388 543 443 606 q 226 276 319 469 q -32 -483 65 -69 q -72 -522 -33 -517 z "},"i":{"ha":649,"x_min":-61,"x_max":718,"o":"m 99 -150 q 4 -112 39 -150 q -46 -14 -31 -75 q -61 118 -61 47 q -47 297 -61 204 q -15 471 -33 390 q 19 604 4 551 q 35 665 33 657 q 76 694 50 694 q 115 653 115 690 l 114 643 q 53 399 86 554 q 19 114 19 244 q 38 -20 19 29 q 100 -69 57 -69 q 256 27 157 -69 q 460 256 356 124 q 644 504 565 388 q 678 522 660 522 q 718 481 710 522 q 711 457 718 471 q 642 360 707 451 q 481 151 576 269 q 99 -150 231 -150 m 135 946 q 106 959 119 946 q 93 989 93 972 q 106 1017 93 1004 q 135 1031 119 1031 q 165 1017 151 1031 q 178 989 178 1004 q 165 959 178 972 q 135 946 151 946 z "},"j":{"ha":428,"x_min":-742,"x_max":492,"o":"m -594 -1792 q -703 -1724 -664 -1792 q -742 -1554 -742 -1656 q -706 -1310 -742 -1450 q -416 -624 -603 -951 q -50 -61 -229 -297 q -17 307 -26 147 q -7 542 -7 467 q -8 574 -7 564 q -8 593 -8 585 q 3 622 -8 611 q 32 633 15 632 q 67 611 60 633 q 75 540 75 589 q 44 65 75 394 q 228 290 143 192 q 366 444 313 388 q 422 504 419 501 q 451 517 436 517 q 479 503 467 517 q 492 475 492 490 q 482 449 492 463 q 415 378 478 446 q 251 190 353 310 q 29 -90 149 69 q -70 -751 -6 -408 q -251 -1385 -135 -1093 q -420 -1684 -329 -1576 q -594 -1792 -511 -1792 m -596 -1710 q -526 -1677 -568 -1710 q -432 -1567 -483 -1644 q -325 -1356 -381 -1489 q -165 -801 -228 -1107 q -69 -226 -101 -494 q -376 -719 -217 -428 q -626 -1331 -535 -1010 q -661 -1557 -661 -1467 q -647 -1662 -661 -1625 q -610 -1707 -632 -1700 l -596 -1710 m 11 981 q -18 994 -6 981 q -31 1022 -31 1007 q -18 1052 -31 1039 q 11 1065 -6 1065 q 40 1052 28 1065 q 53 1022 53 1039 q 40 994 53 1007 q 11 981 28 981 z "},"k":{"ha":983,"x_min":-137,"x_max":1043,"o":"m -96 -861 l -103 -860 q -123 -850 -108 -860 q -137 -814 -137 -840 q -21 400 -119 -329 q 164 1581 78 1129 q 219 1828 197 1750 q 255 1931 242 1907 q 275 1956 268 1954 q 304 1965 288 1965 q 344 1922 338 1965 q 322 1889 340 1896 q 291 1788 311 1869 q 244 1565 271 1707 q 183 1226 217 1424 q 114 778 150 1029 q 74 492 86 596 q 177 639 114 564 q 313 767 240 714 q 453 819 386 819 q 544 780 508 819 q 579 679 579 740 q 546 553 579 621 q 372 313 467 400 q 192 185 276 225 q 65 139 108 146 q 147 69 89 106 q 308 24 204 32 q 971 489 590 24 q 1003 503 986 503 q 1043 463 1035 503 q 1035 436 1043 450 q 308 -58 633 -58 q 118 -12 188 -51 q 18 67 49 28 q -46 -608 -25 -303 q -46 -657 -46 -657 q -17 -671 -28 -658 q -7 -699 -7 -683 l -8 -711 q -22 -751 -11 -715 q -51 -824 -32 -787 q -96 -861 -69 -861 m 118 410 q 56 273 74 329 q 39 217 39 217 q 149 256 74 222 q 313 369 225 290 q 474 589 401 449 q 497 678 497 643 q 485 725 497 711 q 451 739 474 739 q 288 638 383 739 q 118 410 193 536 z "},"l":{"ha":775,"x_min":-107,"x_max":846,"o":"m 40 -851 q -16 -833 15 -851 q -69 -758 -47 -814 q -107 -458 -107 -646 q -85 -68 -107 -281 q -33 338 -62 144 q 19 663 -4 532 q 124 1194 67 935 q 234 1635 181 1454 q 324 1854 288 1817 q 360 1871 342 1871 q 389 1858 375 1871 q 403 1829 403 1846 q 374 1790 403 1803 q 330 1678 358 1769 q 264 1436 301 1588 q 183 1084 226 1285 q 99 644 140 883 q -25 -458 -25 -79 q 40 -771 -25 -757 q 75 -754 49 -771 q 150 -676 101 -737 q 276 -488 199 -615 q 465 -144 354 -361 q 616 164 547 18 q 726 403 685 310 q 769 501 767 497 q 807 526 785 526 q 846 485 846 524 q 843 471 846 478 q 800 371 842 465 q 690 130 758 276 q 538 -181 621 -17 q 340 -539 424 -404 q 199 -741 257 -674 q 103 -830 140 -808 q 40 -851 65 -851 z "},"m":{"ha":1467,"x_min":-71,"x_max":1531,"o":"m -29 -225 q -62 -212 -53 -225 q -71 -178 -71 -199 q -49 102 -71 -112 q -28 318 -28 317 q 13 654 -11 479 q 38 794 28 757 q 48 820 38 794 q 88 850 58 846 q 117 838 104 850 q 129 810 129 825 q 125 792 129 799 q 117 779 121 785 q 76 507 100 714 q 39 176 51 300 q 149 485 60 254 q 361 715 249 715 q 453 669 411 718 q 531 478 504 600 q 560 261 557 357 l 564 271 q 596 340 575 296 q 879 653 742 653 q 963 617 933 653 q 1010 526 993 581 q 1038 415 1026 472 q 1073 276 1054 328 q 1132 219 1092 225 q 1283 308 1185 219 q 1458 489 1381 396 q 1490 503 1474 503 q 1518 490 1506 503 q 1531 463 1531 478 q 1521 436 1531 450 q 1477 385 1518 432 q 1374 279 1436 339 q 1131 139 1225 139 q 1035 183 1068 139 q 983 290 1001 226 q 954 418 965 354 q 927 525 943 482 q 881 571 911 568 q 765 480 828 571 q 647 262 703 389 q 556 18 592 135 q 515 -10 540 -10 q 475 31 475 0 q 481 154 481 82 q 447 476 481 326 q 361 635 414 625 q 307 599 342 635 q 222 451 272 563 q 106 115 158 293 q 11 -194 54 -62 q -12 -219 3 -214 q -29 -225 -26 -225 z "},"n":{"ha":1068,"x_min":-74,"x_max":1129,"o":"m -33 -169 q -65 -155 -57 -169 q -74 -122 -74 -140 q -49 154 -74 -58 q -24 369 -24 367 q 23 701 4 593 q 54 843 42 810 q 63 863 54 843 q 97 886 72 882 l 99 886 q 126 874 114 886 q 139 844 139 861 q 125 815 139 826 q 92 629 114 776 q 43 242 71 482 q 106 396 43 242 q 413 785 263 785 l 424 785 q 522 673 500 772 q 546 446 544 574 q 560 219 547 318 q 633 108 574 121 q 758 172 681 108 q 915 322 835 235 q 1056 489 996 410 q 1089 506 1071 506 q 1117 493 1104 506 q 1129 465 1129 481 q 1121 440 1129 456 q 1065 370 1117 433 q 933 225 1013 307 q 631 26 743 26 q 533 76 567 26 q 485 201 500 125 q 467 364 471 278 q 461 526 464 450 q 449 652 458 603 q 414 704 440 701 q 366 681 399 704 q 283 578 333 658 q 166 332 233 499 q 15 -117 99 165 l 8 -139 q -15 -164 0 -158 q -33 -169 -29 -169 z "},"o":{"ha":890,"x_min":-79,"x_max":956,"o":"m 97 -118 l 94 -118 q -35 -40 10 -118 q -79 156 -79 38 q -29 438 -79 292 q 101 664 21 585 l 101 661 q 208 756 121 750 q 254 744 229 756 q 301 701 279 732 q 350 577 335 656 q 365 407 365 499 l 365 390 q 517 357 431 357 q 628 372 574 357 q 730 408 683 386 q 812 451 776 429 q 867 488 847 472 q 889 504 888 503 q 915 514 903 514 q 942 501 929 514 q 956 474 956 489 q 942 442 956 457 q 915 422 939 439 q 851 380 892 404 q 758 331 811 356 q 644 291 706 307 q 515 275 582 275 q 360 304 429 275 q 278 10 346 131 q 97 -118 210 -111 m 96 -36 q 188 19 149 -36 q 252 160 228 74 q 283 344 276 246 q 169 449 214 390 q 114 553 125 508 q 35 374 67 489 q 3 153 3 260 q 24 16 3 68 q 92 -36 46 -36 l 96 -36 m 285 443 q 236 656 282 576 q 208 674 219 674 l 204 674 q 190 667 197 674 q 181 633 182 660 q 210 535 181 589 q 285 443 239 481 z "},"p":{"ha":838,"x_min":-194,"x_max":788,"o":"m -122 -1237 q -158 -1249 -137 -1251 q -178 -1240 -162 -1249 q -194 -1203 -194 -1231 q -147 -561 -186 -926 q -64 115 -108 -196 l -87 114 q -129 154 -121 114 q -89 196 -129 188 l -53 197 q 74 950 13 639 q 125 1167 104 1097 q 159 1257 146 1236 q 178 1281 172 1278 q 207 1290 193 1290 q 236 1278 224 1289 q 249 1249 249 1268 q 225 1213 246 1221 q 199 1135 215 1197 q 161 974 182 1074 q 117 744 140 875 q 69 458 93 613 q 160 649 104 543 q 285 856 215 756 q 435 1022 356 956 q 593 1088 514 1088 q 732 1017 676 1088 q 788 835 788 947 q 725 581 788 713 q 547 344 663 450 q 25 122 332 156 q 14 82 19 113 q -106 -1036 -72 -526 l -106 -1046 q -76 -1058 -87 -1049 q -64 -1087 -64 -1068 q -87 -1161 -69 -1111 q -122 -1237 -101 -1214 m 56 207 q 493 406 304 240 q 651 615 596 500 q 706 836 706 729 q 674 962 706 917 q 594 1007 642 1007 q 444 920 524 1007 q 289 705 364 833 q 153 442 214 576 q 56 207 92 308 z "},"q":{"ha":908,"x_min":-81,"x_max":974,"o":"m 247 -1400 q 211 -1383 228 -1400 q 201 -1364 207 -1379 q 194 -1304 194 -1349 q 224 -996 194 -1228 q 338 -256 253 -764 q 485 579 439 331 q 363 406 463 543 q 188 188 258 263 q 75 89 118 114 q 6 64 32 64 l -8 65 q -39 79 -22 67 q -68 118 -56 92 q -81 189 -81 144 q -10 488 -81 307 q 154 746 61 668 q 269 786 217 786 q 353 766 317 786 q 415 718 390 746 q 444 667 439 690 q 501 753 478 717 q 525 792 525 790 q 563 814 542 814 q 589 803 575 814 q 601 774 603 793 q 584 682 601 771 q 528 372 567 593 q 422 -246 489 150 q 353 -669 381 -493 q 309 -960 325 -846 q 286 -1136 293 -1075 q 279 -1211 279 -1197 q 538 -532 351 -1043 q 896 465 725 -21 q 935 493 906 493 q 974 453 974 488 q 962 415 974 450 q 929 319 950 381 q 880 177 908 258 q 817 -2 851 96 q 743 -208 782 -100 q 663 -431 704 -317 q 578 -658 621 -544 q 494 -882 536 -772 q 414 -1090 453 -992 q 313 -1331 347 -1262 q 247 -1400 279 -1400 m 7 146 q 43 163 14 146 q 133 247 72 181 q 297 453 194 314 q 369 557 335 506 q 378 593 378 572 q 336 679 378 639 q 310 697 326 688 q 271 706 294 706 q 201 681 240 706 q 63 456 125 615 q 0 193 0 296 q 4 156 0 172 q 7 146 4 147 z "},"r":{"ha":843,"x_min":-204,"x_max":910,"o":"m 226 -456 q 140 -406 167 -456 q 113 -283 113 -356 q 150 -23 113 -172 q 232 258 188 126 q 303 456 276 389 q 60 424 169 424 q -137 476 -69 424 q -204 613 -204 528 q -164 747 -204 674 q -60 874 -124 821 q 76 926 4 926 q 127 913 108 926 q 154 885 146 899 q 171 813 171 853 q 138 644 171 736 q 82 506 104 551 q 190 517 119 506 q 358 554 260 528 l 367 556 q 396 543 382 556 q 410 514 410 531 l 407 500 q 322 266 371 411 q 233 -31 272 121 q 193 -283 193 -183 q 206 -360 193 -333 q 226 -375 210 -375 q 279 -350 240 -375 q 390 -239 318 -325 q 575 25 461 -153 q 703 240 646 138 q 797 407 761 342 q 833 476 832 472 q 869 499 849 499 q 897 486 885 499 q 910 457 910 474 q 904 438 910 449 q 826 293 900 429 q 644 -18 753 157 q 447 -295 528 -200 q 313 -423 365 -390 q 226 -456 260 -456 m -6 510 q 90 813 72 678 q 83 840 90 835 q 76 844 76 844 q -20 800 31 844 q -103 692 -71 756 q -117 656 -111 676 q -124 611 -124 635 q -116 570 -124 590 q -83 534 -108 550 q -6 510 -57 518 z "},"s":{"ha":753,"x_min":-14,"x_max":826,"o":"m 233 -319 q 158 -289 190 -319 q 140 -262 149 -281 q 131 -217 131 -244 q 147 -143 131 -186 q 208 -43 164 -100 q 347 115 264 26 q 181 243 286 183 q 43 344 94 294 q -14 472 -8 393 q 32 606 -14 539 q 145 727 78 672 q 283 816 213 782 q 406 850 354 850 q 492 819 453 850 q 549 713 536 776 q 563 607 563 649 l 561 571 q 547 544 560 556 q 521 533 535 533 q 479 575 479 543 l 481 611 q 474 682 481 646 q 452 743 468 718 q 404 768 436 768 q 375 764 392 768 q 239 698 310 744 q 117 591 168 651 q 67 474 67 531 l 68 460 q 139 369 78 410 q 275 282 200 328 q 404 174 350 236 q 757 521 685 457 q 785 533 771 533 q 813 521 799 533 q 826 492 826 508 q 813 463 826 478 q 690 343 803 453 q 451 104 576 233 q 479 -10 479 56 q 438 -160 479 -89 q 340 -275 397 -231 q 233 -319 282 -319 m 233 -237 q 278 -222 253 -237 q 325 -178 297 -208 q 375 -104 353 -147 q 397 -11 397 -61 q 389 40 397 31 q 271 -94 322 -31 q 213 -215 213 -176 q 233 -237 213 -242 z "},"t":{"ha":465,"x_min":-631,"x_max":1464,"o":"m -161 -1250 q -171 -1249 -165 -1250 q -190 -1240 -174 -1249 q -206 -1200 -206 -1231 q -83 -33 -189 -803 q 135 1350 24 738 q -177 1310 -43 1328 q -401 1278 -311 1292 q -539 1258 -492 1265 q -590 1250 -586 1250 q -631 1290 -624 1250 q -596 1331 -631 1318 q -474 1349 -579 1333 q -207 1388 -369 1365 q 149 1433 -44 1411 l 213 1776 q 284 2100 257 1999 q 326 2230 311 2201 q 347 2260 340 2258 q 374 2268 360 2268 q 415 2226 415 2264 q 396 2193 411 2201 q 361 2080 385 2174 q 306 1826 338 1986 q 233 1443 274 1665 q 678 1487 450 1468 q 1092 1506 907 1506 q 1299 1495 1208 1506 q 1440 1463 1389 1485 q 1464 1425 1464 1449 q 1451 1397 1460 1408 q 1422 1385 1443 1385 l 1408 1388 q 1094 1425 1311 1425 q 678 1406 911 1425 q 219 1360 446 1386 q 22 121 125 838 q -115 -1040 -82 -596 l -115 -1046 q -87 -1058 -99 -1049 q -75 -1087 -75 -1068 l -76 -1096 q -83 -1117 -76 -1097 q -99 -1161 -89 -1137 q -124 -1226 -111 -1201 q -161 -1250 -136 -1250 z "},"u":{"ha":1143,"x_min":-62,"x_max":1215,"o":"m 592 -392 q 488 -315 522 -389 q 453 -53 453 -242 q 467 235 453 76 q 497 485 482 393 l 453 386 q 79 -104 238 -104 q -29 -35 4 -96 q -62 135 -62 25 q -42 347 -62 236 q 1 540 -21 457 q 31 644 24 622 q 71 672 43 676 q 107 644 106 667 q 108 621 108 621 q 50 394 82 539 q 18 129 18 249 q 32 21 18 61 q 81 -22 46 -19 q 135 6 99 -22 q 233 130 172 35 q 379 419 293 225 q 512 753 460 607 q 567 910 564 900 q 606 935 583 935 q 644 893 644 929 l 644 888 q 574 442 613 722 q 535 -57 535 163 q 544 -207 535 -144 q 572 -299 553 -269 q 586 -310 582 -310 q 713 -233 642 -310 q 860 -35 785 -157 q 1008 228 936 86 q 1138 508 1079 371 q 1175 533 1153 533 q 1203 522 1190 533 q 1215 494 1215 510 q 1213 479 1215 486 q 1151 343 1213 478 q 997 40 1090 208 q 592 -392 758 -392 z "},"v":{"ha":972,"x_min":-10,"x_max":1038,"o":"m 110 -147 l 107 -147 q 60 -124 75 -147 q 43 -87 46 -100 q 3 160 15 -8 q -10 500 -10 329 q 6 871 -10 713 q 30 1006 15 960 q 60 1067 44 1051 q 92 1082 76 1082 q 119 1069 106 1082 q 132 1042 132 1057 q 118 1010 132 1025 q 97 946 107 1001 q 81 778 88 890 q 72 490 74 667 q 79 231 72 347 q 96 40 86 114 q 114 -53 106 -35 q 129 -31 117 -50 q 165 31 142 -12 q 226 149 189 74 q 314 339 263 224 q 428 608 381 492 q 479 732 476 725 q 517 756 493 756 q 557 719 550 751 q 578 613 563 676 q 618 488 593 550 q 678 383 643 425 q 760 340 714 340 q 867 386 813 340 q 964 490 921 432 q 996 504 979 504 q 1024 492 1011 504 q 1038 464 1038 479 q 1028 438 1038 451 q 761 258 883 258 q 660 292 704 258 q 583 377 615 326 q 532 481 551 428 q 503 575 513 535 q 379 289 468 490 q 208 -53 271 43 q 110 -147 146 -150 z "},"w":{"ha":1531,"x_min":-64,"x_max":1590,"o":"m 43 -267 q -10 -247 15 -267 q -49 -173 -35 -226 q -64 -21 -64 -119 q 7 588 -64 190 q 48 763 31 707 q 78 833 65 818 q 111 851 93 851 q 139 839 126 851 q 151 807 151 826 q 135 774 151 785 q 92 594 119 732 q 41 285 65 457 q 17 -21 17 113 q 27 -147 17 -100 q 43 -206 38 -194 q 63 -185 49 -203 q 106 -114 78 -167 q 222 197 164 3 q 315 563 279 390 q 356 594 331 594 q 396 563 383 594 q 431 417 407 504 q 489 243 456 331 q 563 95 522 156 q 649 35 604 35 q 734 107 689 35 q 824 292 779 179 q 906 536 868 406 q 974 788 944 667 q 1014 819 989 819 q 1053 785 1047 814 q 1062 731 1053 781 q 1092 614 1071 682 q 1151 485 1113 546 q 1247 400 1189 425 q 1303 390 1274 390 q 1522 494 1397 390 q 1549 504 1536 504 q 1577 492 1564 504 q 1590 464 1590 479 q 1575 432 1590 447 q 1303 308 1426 308 q 1188 340 1238 308 q 1101 417 1138 371 q 1042 513 1065 464 q 1010 603 1019 563 q 946 393 996 550 q 794 56 867 160 q 649 -47 722 -47 q 575 -26 611 -47 q 434 165 490 35 q 357 379 378 296 q 298 160 338 294 q 205 -93 258 26 q 92 -253 151 -212 q 43 -267 64 -267 z "},"x":{"ha":999,"x_min":-165,"x_max":1072,"o":"m -125 -394 q -153 -382 -140 -394 q -165 -354 -165 -369 q -161 -336 -165 -346 q 92 117 -54 -104 q 46 262 65 188 q 12 405 26 336 q -12 530 -3 474 q -26 622 -21 586 q -31 665 -31 658 q -19 692 -31 679 q 10 707 -8 706 q 50 669 38 707 q 74 515 50 667 q 149 204 99 363 q 515 703 342 493 q 612 810 589 793 q 646 828 635 828 q 686 788 676 828 q 664 751 686 765 q 605 684 651 739 q 490 540 558 629 q 342 340 422 451 q 182 107 263 229 q 271 -59 222 3 q 376 -121 319 -121 q 536 -48 451 -112 q 702 109 621 17 q 849 294 783 201 q 956 449 915 386 q 999 515 996 511 q 1032 535 1014 535 q 1059 522 1046 535 q 1072 494 1072 510 q 1067 472 1072 485 q 1018 397 1061 463 q 906 235 975 331 q 751 45 836 140 q 575 -119 665 -50 q 400 -200 485 -187 q 376 -201 388 -201 q 235 -138 297 -201 q 129 25 172 -75 q -87 -371 7 -164 q -125 -394 -103 -394 z "},"y":{"ha":1115,"x_min":-44,"x_max":1208,"o":"m 133 -1596 q 30 -1533 72 -1596 q -12 -1360 -12 -1469 q 24 -1114 -12 -1254 q 301 -472 124 -767 q 651 28 479 -178 q 749 953 732 692 q 592 625 676 793 q 417 312 507 457 q 240 76 326 167 q 81 -15 154 -15 q -15 50 15 -15 q -44 210 -44 115 q -28 394 -44 303 q -3 529 -12 486 q 27 639 4 560 q 86 797 50 718 q 167 903 122 875 q 186 907 176 907 q 225 867 217 907 q 204 832 225 847 q 78 511 151 796 q 38 207 38 331 q 50 97 38 129 q 78 65 63 65 q 244 199 153 82 q 425 481 335 317 q 591 806 515 646 q 714 1071 667 967 l 753 1156 q 774 1194 763 1178 q 806 1210 786 1210 q 833 1199 819 1208 q 846 1168 846 1190 q 840 1063 846 1151 q 821 832 833 974 q 790 513 808 690 q 749 142 772 336 q 938 347 849 258 q 1082 487 1026 436 q 1140 539 1138 538 q 1167 549 1154 549 q 1195 535 1182 549 q 1208 507 1208 522 q 1193 475 1208 492 q 1155 442 1192 475 q 1054 347 1118 408 q 909 199 990 286 q 736 4 828 113 q 729 -7 732 -3 q 622 -665 685 -349 q 478 -1189 560 -982 q 309 -1488 400 -1381 q 133 -1596 218 -1596 m 133 -1514 q 202 -1481 160 -1514 q 296 -1371 244 -1449 q 403 -1160 347 -1293 q 535 -692 478 -971 q 631 -129 592 -414 q 340 -565 490 -304 q 103 -1135 190 -826 q 68 -1360 68 -1269 q 85 -1479 68 -1447 q 133 -1514 101 -1511 z "},"z":{"ha":1225,"x_min":-14,"x_max":1289,"o":"m 119 -1289 q 7 -1128 11 -1289 q 64 -844 7 -1019 q 384 -263 181 -521 q 793 172 588 -6 q 744 286 781 247 q 662 338 708 325 q 571 350 615 350 q 477 342 522 350 q 396 335 432 335 q 336 349 367 335 q 306 397 306 364 q 429 536 299 442 q 574 658 504 592 q 654 786 643 724 l 656 806 q 557 906 656 904 q 438 872 506 906 q 242 707 335 817 q 92 514 150 597 l 58 468 q 26 451 44 451 q -1 465 11 451 q -14 492 -14 478 q -6 517 -14 504 l 26 560 q 185 766 86 649 q 401 946 285 883 q 557 986 488 986 q 685 937 633 986 q 736 807 736 888 l 735 778 q 653 623 722 694 q 510 498 585 551 q 407 415 435 444 l 389 417 q 469 424 422 417 q 569 431 517 431 q 665 419 615 431 q 758 378 714 408 q 839 290 803 347 q 864 236 860 251 q 1042 381 961 319 q 1174 476 1124 443 q 1225 511 1224 510 q 1249 518 1239 518 q 1276 506 1264 518 q 1289 478 1289 493 q 1271 443 1289 460 q 1215 406 1268 442 q 1073 302 1161 369 q 878 140 985 235 l 878 119 q 847 -110 878 13 q 776 -340 817 -232 q 414 -1047 631 -731 q 119 -1289 240 -1289 m 119 -1207 q 207 -1162 149 -1207 q 349 -1001 265 -1117 q 656 -429 529 -736 q 796 67 783 -122 q 436 -331 624 -89 q 143 -871 249 -574 q 100 -1024 113 -961 q 88 -1128 88 -1087 q 96 -1191 88 -1175 q 119 -1207 104 -1207 z "},"{":{"ha":972,"x_min":204,"x_max":922,"o":"m 508 -832 l 501 -832 q 307 -706 365 -801 q 249 -471 249 -611 q 272 -242 249 -362 q 326 -4 296 -122 q 379 219 356 114 q 403 404 403 325 q 385 495 403 465 q 315 525 367 525 q 283 522 299 525 q 246 517 268 518 q 204 554 210 517 q 226 593 204 576 q 402 753 347 658 q 473 963 457 849 q 490 1196 489 1076 q 514 1444 492 1317 q 619 1664 536 1571 q 883 1776 701 1757 q 911 1764 901 1776 q 922 1736 921 1751 q 888 1696 922 1708 q 624 1531 685 1672 q 579 1316 585 1439 q 568 1061 574 1193 q 524 808 563 929 q 381 599 486 688 q 456 535 428 590 q 485 401 485 481 q 461 208 485 317 q 407 -19 438 99 q 353 -254 376 -137 q 329 -471 329 -371 q 371 -658 329 -586 q 517 -751 413 -731 q 549 -793 549 -765 q 508 -832 539 -832 z "},"|":{"ha":615,"x_min":149,"x_max":467,"o":"m 207 -844 l 201 -844 q 161 -811 174 -844 q 149 -593 149 -728 q 186 105 149 -314 q 267 894 224 524 q 333 1432 310 1264 q 368 1683 356 1606 q 386 1782 381 1761 q 394 1803 392 1803 q 426 1819 410 1819 q 467 1781 457 1819 q 464 1764 467 1772 q 450 1686 460 1751 q 426 1513 440 1621 q 393 1263 411 1404 q 356 957 375 1122 q 318 613 338 792 q 231 -594 231 -219 q 235 -719 231 -672 q 242 -803 239 -767 q 207 -844 242 -831 z "},"}":{"ha":767,"x_min":50,"x_max":717,"o":"m 94 -837 l 90 -837 q 63 -826 75 -837 q 50 -797 51 -815 q 86 -757 50 -769 q 233 -703 181 -746 q 308 -590 286 -661 q 329 -424 329 -518 q 311 -199 329 -319 q 276 42 293 -79 q 258 267 258 163 q 307 503 258 408 q 468 628 356 599 q 442 747 442 668 q 471 931 442 828 q 538 1145 500 1035 q 606 1359 576 1256 q 636 1543 636 1463 q 599 1660 636 1622 q 465 1697 563 1697 l 415 1696 q 375 1738 385 1696 q 411 1778 375 1765 l 463 1781 q 658 1714 599 1781 q 717 1542 717 1647 q 688 1346 717 1453 q 620 1129 658 1239 q 552 920 582 1019 q 522 747 522 821 q 535 678 522 706 q 585 643 549 651 q 615 603 615 628 q 576 563 608 563 q 433 524 485 558 q 361 425 382 489 q 340 268 340 361 q 358 51 340 168 q 392 -189 375 -67 q 410 -422 410 -311 q 379 -624 410 -535 q 279 -769 349 -714 q 94 -837 210 -824 z "},"~":{"ha":963,"x_min":219,"x_max":729,"o":"m 260 375 q 230 390 240 375 q 219 418 219 406 l 222 432 q 247 485 232 451 q 289 548 263 519 q 358 576 315 576 q 441 544 397 572 q 524 489 485 517 q 585 461 563 461 q 621 495 603 464 q 650 561 639 526 q 690 589 667 589 q 729 549 729 581 q 728 535 729 542 q 688 450 721 508 q 588 379 654 392 q 503 408 549 379 q 419 464 458 436 q 357 494 381 492 q 338 480 351 494 q 300 408 324 465 q 286 385 296 394 q 260 375 276 375 z "},"":{"ha":628,"x_min":149,"x_max":493,"o":"m 189 -375 q 161 -362 174 -375 q 149 -332 149 -349 l 151 -319 q 168 -238 156 -306 q 199 -65 181 -171 q 238 172 217 42 q 281 442 258 301 q 323 716 303 582 q 359 964 343 850 q 384 1158 375 1078 q 393 1265 393 1238 l 393 1272 q 405 1301 393 1289 q 433 1314 417 1314 q 475 1269 471 1314 q 431 892 475 1194 q 361 432 386 589 q 349 350 357 404 q 328 226 340 296 q 304 79 317 156 q 279 -72 292 3 q 256 -207 267 -146 q 237 -308 244 -268 q 225 -356 229 -347 q 189 -375 208 -375 m 451 1518 q 422 1531 435 1518 q 408 1560 408 1544 q 422 1590 408 1576 q 451 1603 435 1603 q 480 1590 467 1603 q 493 1560 493 1576 q 480 1531 493 1544 q 451 1518 467 1518 z "},"":{"ha":1149,"x_min":178,"x_max":931,"o":"m 479 -408 q 451 -400 464 -408 q 433 -376 438 -392 q 428 -271 428 -339 q 439 29 428 -146 q 389 25 421 25 q 286 47 335 25 q 208 118 238 69 q 178 247 178 167 q 271 576 178 390 q 508 840 364 761 q 524 995 515 924 q 540 1115 532 1067 q 553 1178 547 1164 q 589 1201 568 1201 q 617 1190 603 1201 q 631 1160 631 1178 q 616 1082 625 1142 q 592 871 607 1022 q 622 872 592 871 q 675 860 654 872 q 707 836 696 849 q 731 788 724 815 q 738 738 738 761 q 733 688 738 710 q 726 661 728 665 q 712 639 724 647 q 688 631 700 631 q 646 672 646 638 q 652 701 649 686 q 656 739 656 717 q 644 782 656 768 q 638 788 643 786 q 621 790 633 790 q 582 783 599 789 q 528 139 551 468 q 714 242 621 176 q 863 360 807 308 q 890 369 876 369 q 931 329 922 369 q 917 299 931 314 q 876 263 911 293 q 784 192 840 233 q 660 113 728 151 q 522 50 592 74 q 508 -269 508 -150 q 514 -367 508 -347 q 479 -408 514 -394 m 390 107 q 444 113 421 107 q 497 739 471 492 q 328 513 396 664 q 260 246 260 363 q 277 159 260 189 q 324 118 294 129 q 390 107 354 107 z "},"":{"ha":1114,"x_min":50,"x_max":1064,"o":"m 142 -211 q 101 -202 118 -211 q 79 -185 85 -193 q 50 -107 50 -151 q 78 -11 50 -61 q 108 26 86 3 q 171 70 131 50 q 271 90 211 90 l 292 89 q 386 542 347 286 q 178 497 299 531 l 168 496 q 126 536 132 496 q 157 576 126 563 q 400 625 289 613 q 469 938 429 788 q 572 1194 510 1089 q 749 1331 660 1331 q 858 1262 814 1326 q 903 1107 903 1197 q 890 1036 903 1075 q 846 997 876 997 q 818 1010 831 997 q 806 1039 806 1024 q 813 1070 806 1056 q 821 1107 821 1085 q 797 1207 821 1154 q 750 1250 782 1240 q 710 1233 736 1250 q 642 1151 683 1215 q 548 919 585 1057 q 485 632 511 782 l 518 633 q 847 575 678 633 q 874 538 874 560 q 861 509 874 522 q 832 496 849 496 l 821 497 q 526 551 669 551 l 469 549 q 425 301 446 422 q 371 75 404 181 q 588 24 486 43 q 788 6 689 6 q 990 60 943 6 q 1022 76 1006 76 q 1064 35 1054 76 q 1056 11 1064 24 q 949 -56 1019 -36 q 788 -76 878 -76 q 574 -57 692 -76 q 344 -1 456 -37 q 213 -189 301 -131 q 142 -211 169 -211 m 142 -131 q 171 -118 156 -131 q 263 10 231 -79 q 187 -11 214 10 q 147 -54 160 -32 q 132 -106 132 -83 q 134 -126 132 -122 q 142 -131 136 -131 z "},"":{"ha":375,"x_min":50,"x_max":325,"o":"m 92 1508 q 63 1522 76 1508 q 50 1550 50 1535 q 63 1580 50 1567 q 92 1593 76 1593 q 122 1580 108 1593 q 135 1550 135 1567 q 122 1522 135 1535 q 92 1508 108 1508 m 283 1510 q 254 1523 267 1510 q 242 1551 242 1536 q 254 1581 242 1568 q 283 1594 267 1594 q 313 1581 300 1594 q 325 1551 325 1568 q 313 1523 325 1536 q 283 1510 300 1510 z "},"":{"ha":1186,"x_min":50,"x_max":1136,"o":"m 433 756 q 242 808 329 756 q 102 950 154 860 q 50 1157 50 1040 q 148 1513 58 1335 q 352 1812 238 1690 q 536 1933 467 1933 q 574 1921 556 1933 q 592 1888 592 1908 q 580 1860 592 1874 q 553 1847 568 1847 q 538 1849 542 1847 q 533 1851 535 1851 q 490 1828 525 1851 q 396 1739 454 1804 q 194 1419 271 1594 q 151 1297 171 1365 q 132 1154 132 1228 q 165 1003 132 1075 q 285 878 199 931 q 435 838 354 838 q 622 878 528 838 q 792 981 715 919 q 921 1106 861 1035 q 1017 1256 981 1176 q 1054 1415 1054 1336 q 1043 1492 1054 1456 q 906 1696 1000 1624 q 711 1768 813 1768 q 615 1743 656 1768 q 593 1738 603 1738 q 553 1778 561 1738 q 571 1813 553 1796 q 711 1850 635 1850 q 953 1762 838 1850 q 1121 1517 1069 1674 q 1136 1414 1136 1465 q 1095 1231 1136 1322 q 988 1058 1054 1139 q 843 917 921 978 q 649 803 757 850 q 433 756 542 756 m 500 1093 q 418 1122 456 1093 q 381 1217 381 1151 q 410 1342 381 1271 q 490 1465 439 1413 q 606 1524 540 1518 q 656 1508 640 1524 q 676 1474 671 1493 q 681 1440 681 1454 q 675 1396 681 1411 q 636 1369 661 1369 q 609 1382 622 1369 q 596 1413 596 1394 q 599 1443 599 1431 l 599 1447 q 603 1443 600 1447 q 534 1400 567 1443 q 482 1303 501 1357 q 463 1215 463 1250 q 473 1181 463 1186 q 500 1175 483 1175 q 610 1215 549 1175 q 701 1285 671 1256 q 728 1294 715 1294 q 769 1254 760 1294 q 756 1224 769 1238 q 706 1183 746 1214 q 610 1122 667 1151 q 500 1093 554 1093 z "},"":{"ha":1186,"x_min":50,"x_max":1136,"o":"m 433 756 q 242 808 329 756 q 102 951 154 860 q 50 1157 50 1042 q 144 1513 58 1340 q 324 1801 231 1686 q 451 1922 418 1915 q 476 1917 469 1918 q 483 1914 483 1915 l 465 1914 q 428 1906 443 1914 q 394 1897 413 1897 q 367 1910 381 1897 q 354 1939 354 1924 q 392 1983 354 1971 q 464 1996 429 1996 q 660 1949 546 1996 q 882 1820 774 1901 q 1063 1634 990 1739 q 1136 1414 1136 1529 q 1095 1231 1136 1322 q 988 1060 1054 1140 q 843 917 921 979 q 649 802 757 849 q 433 756 542 756 m 435 838 q 622 878 529 838 q 792 981 714 919 q 976 1181 899 1064 q 1054 1415 1054 1297 q 984 1610 1054 1517 q 810 1774 914 1703 q 600 1885 706 1846 q 590 1890 590 1889 l 614 1886 q 593 1900 597 1900 q 592 1894 590 1900 l 592 1886 q 580 1860 592 1872 q 553 1847 568 1847 q 539 1849 543 1847 q 535 1851 535 1851 q 490 1827 525 1851 q 396 1739 456 1803 q 194 1419 271 1596 q 151 1297 171 1365 q 132 1154 132 1228 q 165 1003 132 1075 q 285 878 199 931 q 435 838 356 838 m 431 1010 l 428 1010 q 406 1017 424 1010 q 389 1056 389 1025 q 392 1133 389 1100 q 383 1135 392 1133 q 366 1146 375 1138 q 357 1172 357 1154 q 372 1208 357 1200 q 401 1221 386 1215 q 417 1344 407 1278 q 449 1507 435 1454 q 474 1577 464 1560 q 490 1597 485 1594 q 522 1610 504 1610 q 563 1567 563 1604 q 542 1532 560 1542 q 535 1518 536 1518 l 539 1538 q 567 1563 540 1539 q 628 1606 593 1588 q 679 1618 658 1618 q 724 1606 707 1618 q 747 1586 740 1594 q 771 1513 771 1554 q 735 1396 771 1451 q 651 1297 699 1340 q 567 1229 604 1254 q 628 1190 599 1218 q 667 1163 657 1163 q 715 1122 711 1163 q 701 1091 715 1100 q 667 1081 686 1082 q 608 1101 633 1081 q 557 1140 583 1121 q 493 1160 531 1160 l 475 1160 l 471 1115 q 478 1092 478 1108 q 469 1053 478 1092 q 431 1010 461 1015 m 486 1272 q 564 1331 517 1292 q 650 1419 611 1371 q 689 1511 689 1468 q 687 1531 689 1526 q 679 1536 685 1536 q 661 1532 671 1536 q 601 1479 632 1517 q 545 1397 571 1442 q 503 1315 519 1351 q 486 1272 486 1279 z "},"":{"ha":401,"x_min":50,"x_max":353,"o":"m 196 1392 q 94 1434 138 1392 q 50 1538 50 1476 q 94 1656 50 1613 q 211 1704 138 1699 q 303 1672 260 1704 q 351 1565 353 1633 q 333 1488 351 1528 q 280 1419 314 1447 q 196 1392 246 1392 m 194 1474 l 206 1475 q 256 1512 243 1483 q 269 1567 269 1540 q 211 1624 271 1624 l 201 1622 q 172 1614 189 1621 q 143 1590 156 1607 q 131 1538 131 1572 q 194 1474 131 1479 z "},"":{"ha":325,"x_min":50,"x_max":275,"o":"m 90 1450 q 61 1464 72 1450 q 50 1490 50 1478 q 60 1518 50 1504 l 204 1674 q 233 1688 218 1688 q 262 1674 249 1688 q 275 1646 275 1661 q 265 1619 275 1633 l 121 1464 q 90 1450 107 1450 z "},"":{"ha":563,"x_min":50,"x_max":513,"o":"m 158 -1406 q 86 -1403 99 -1406 q 50 -1361 50 -1389 q 90 -1321 58 -1321 l 93 -1321 q 160 -1324 96 -1321 q 267 -1315 207 -1324 q 374 -1281 328 -1307 q 429 -1203 419 -1254 q 431 -1183 431 -1193 q 395 -1128 431 -1142 q 306 -1114 360 -1114 q 247 -1118 271 -1114 q 206 -1124 224 -1122 q 176 -1112 190 -1124 q 163 -1083 163 -1100 l 164 -1074 q 235 -821 215 -876 q 271 -799 250 -799 q 299 -811 286 -799 q 313 -840 313 -824 q 294 -904 308 -857 q 258 -1035 281 -951 q 307 -1032 269 -1032 q 393 -1042 349 -1032 q 469 -1081 438 -1053 q 513 -1183 513 -1122 l 510 -1214 q 433 -1338 494 -1297 q 292 -1392 371 -1379 q 158 -1406 214 -1406 m 296 -864 z "},"":{"ha":1038,"x_min":-4,"x_max":760,"o":"m 229 -412 q 60 -346 124 -412 q -4 -174 -4 -279 q 78 89 -4 -56 q 289 374 163 222 q 521 703 415 525 q 647 1097 626 881 l 631 1068 q 594 1049 614 1049 q 567 1061 581 1049 q 554 1089 554 1074 q 560 1111 554 1099 q 635 1230 608 1189 q 694 1271 663 1271 q 722 1261 708 1269 q 736 1226 736 1253 q 691 915 736 1058 q 576 649 646 772 q 426 420 506 526 q 272 222 346 314 q 149 47 199 129 q 78 -174 78 -76 q 115 -289 78 -247 q 231 -331 153 -331 q 290 -324 258 -331 q 472 -217 386 -301 q 613 -31 558 -133 q 668 138 668 72 q 662 165 668 153 q 656 192 656 176 q 667 219 656 207 q 694 232 679 232 q 737 199 725 232 q 749 136 749 167 q 685 -65 749 54 q 522 -281 622 -183 q 307 -404 421 -378 q 229 -412 265 -412 m 717 1494 q 688 1508 701 1494 q 675 1536 675 1521 q 688 1566 675 1553 q 717 1579 701 1579 q 747 1566 733 1579 q 760 1536 760 1553 q 747 1508 760 1521 q 717 1494 733 1494 z "},"":{"ha":1390,"x_min":-349,"x_max":1340,"o":"m 949 -744 q 919 -731 933 -744 q 853 -450 853 -664 q 881 -81 853 -296 q 949 375 910 133 q 357 274 636 335 q 110 -318 233 -53 q -208 -722 -69 -697 q -236 -725 -221 -725 q -283 -715 -257 -725 q -336 -679 -310 -706 q -349 -650 -349 -665 q -336 -622 -349 -635 q -307 -610 -324 -610 q -279 -622 -293 -610 q -236 -644 -254 -644 q -83 -509 -164 -633 q 83 -185 -3 -385 q 260 250 169 14 q -3 171 140 221 q -18 167 -7 167 q -58 206 -50 167 q -31 246 -58 231 q 296 343 132 303 q 350 482 322 408 q 598 1103 489 850 q 801 1489 707 1357 q 988 1621 894 1621 q 1103 1530 1067 1617 q 1140 1292 1140 1443 q 1112 914 1140 1129 q 1046 468 1083 699 q 1296 499 1154 482 l 1300 499 q 1340 458 1332 499 q 1304 417 1340 431 q 1033 385 1157 401 q 965 -67 996 158 q 935 -456 935 -293 q 945 -594 935 -537 q 979 -675 956 -650 q 989 -703 989 -689 q 976 -731 989 -718 q 949 -744 964 -744 m 392 364 q 961 458 644 419 q 1029 910 999 685 q 1060 1299 1060 1135 q 983 1539 1060 1540 q 931 1515 963 1539 q 851 1421 899 1490 q 740 1221 804 1351 q 425 454 588 888 l 392 364 m 1015 1778 q 985 1792 999 1778 l 840 1947 q 831 1974 831 1961 q 844 2002 831 1989 q 872 2015 857 2015 q 901 2001 888 2015 l 1046 1846 q 1056 1818 1056 1832 q 1044 1792 1056 1806 q 1015 1778 1033 1778 z "},"":{"ha":1390,"x_min":-349,"x_max":1340,"o":"m 949 -744 q 919 -731 933 -744 q 853 -450 853 -664 q 881 -81 853 -296 q 949 375 910 133 q 357 274 636 335 q 110 -318 233 -53 q -208 -722 -69 -697 q -236 -725 -221 -725 q -283 -715 -257 -725 q -336 -679 -310 -706 q -349 -650 -349 -665 q -336 -622 -349 -635 q -307 -610 -324 -610 q -279 -622 -293 -610 q -236 -644 -254 -644 q -83 -509 -164 -633 q 83 -185 -3 -385 q 260 250 169 14 q -3 171 140 221 q -18 167 -7 167 q -58 206 -50 167 q -31 246 -58 231 q 296 343 132 303 q 350 482 322 408 q 598 1103 489 850 q 801 1489 707 1357 q 988 1621 894 1621 q 1103 1530 1067 1617 q 1140 1292 1140 1443 q 1112 914 1140 1129 q 1046 468 1083 699 q 1296 499 1154 482 l 1300 499 q 1340 458 1332 499 q 1304 417 1340 431 q 1033 385 1157 401 q 965 -67 996 158 q 935 -456 935 -293 q 945 -594 935 -537 q 979 -675 956 -650 q 989 -703 989 -689 q 976 -731 989 -718 q 949 -744 964 -744 m 392 364 q 961 458 644 419 q 1029 910 999 685 q 1060 1299 1060 1135 q 983 1539 1060 1540 q 931 1515 963 1539 q 851 1421 899 1490 q 740 1221 804 1351 q 425 454 588 888 l 392 364 m 1017 1768 q 988 1782 999 1768 q 976 1808 976 1796 q 986 1836 976 1822 l 1131 1992 q 1160 2006 1144 2006 q 1188 1992 1175 2006 q 1201 1964 1201 1979 q 1192 1938 1201 1951 l 1047 1782 q 1017 1768 1033 1768 z "},"":{"ha":1390,"x_min":-349,"x_max":1340,"o":"m 949 -744 q 919 -731 933 -744 q 853 -450 853 -664 q 881 -81 853 -296 q 949 375 910 133 q 357 274 636 335 q 110 -318 233 -53 q -208 -722 -69 -697 q -236 -725 -221 -725 q -283 -715 -257 -725 q -336 -679 -310 -706 q -349 -650 -349 -665 q -336 -622 -349 -635 q -307 -610 -324 -610 q -279 -622 -293 -610 q -236 -644 -254 -644 q -83 -509 -164 -633 q 83 -185 -3 -385 q 260 250 169 14 q -3 171 140 221 q -18 167 -7 167 q -58 206 -50 167 q -31 246 -58 231 q 296 343 132 303 q 350 482 322 408 q 598 1103 489 850 q 801 1489 707 1357 q 988 1621 894 1621 q 1103 1530 1067 1617 q 1140 1292 1140 1443 q 1112 914 1140 1129 q 1046 468 1083 699 q 1296 499 1154 482 l 1300 499 q 1340 458 1332 499 q 1304 417 1340 431 q 1033 385 1157 401 q 965 -67 996 158 q 935 -456 935 -293 q 945 -594 935 -537 q 979 -675 956 -650 q 989 -703 989 -689 q 976 -731 989 -718 q 949 -744 964 -744 m 392 364 q 961 458 644 419 q 1029 910 999 685 q 1060 1299 1060 1135 q 983 1539 1060 1540 q 931 1515 963 1539 q 851 1421 899 1490 q 740 1221 804 1351 q 425 454 588 888 l 392 364 m 850 1782 q 810 1824 821 1782 q 818 1849 810 1835 l 1004 2082 q 1039 2097 1021 2097 q 1071 2076 1060 2094 l 1206 1867 q 1211 1844 1211 1854 q 1198 1817 1211 1829 q 1169 1804 1185 1804 q 1135 1822 1151 1804 l 1032 1986 l 882 1797 q 850 1782 867 1782 z "},"":{"ha":1390,"x_min":-349,"x_max":1340,"o":"m 949 -744 q 919 -731 933 -744 q 853 -450 853 -664 q 881 -81 853 -296 q 949 375 910 133 q 357 274 636 335 q 110 -318 233 -53 q -208 -722 -69 -697 q -236 -725 -221 -725 q -283 -715 -257 -725 q -336 -679 -310 -706 q -349 -650 -349 -665 q -336 -622 -349 -635 q -307 -610 -324 -610 q -279 -622 -293 -610 q -236 -644 -254 -644 q -83 -509 -164 -633 q 83 -185 -3 -385 q 260 250 169 14 q -3 171 140 221 q -18 167 -7 167 q -58 206 -50 167 q -31 246 -58 231 q 296 343 132 303 q 350 482 322 408 q 598 1103 489 850 q 801 1489 707 1357 q 988 1621 894 1621 q 1103 1530 1067 1617 q 1140 1292 1140 1443 q 1112 914 1140 1129 q 1046 468 1083 699 q 1296 499 1154 482 l 1300 499 q 1340 458 1332 499 q 1304 417 1340 431 q 1033 385 1157 401 q 965 -67 996 158 q 935 -456 935 -293 q 945 -594 935 -537 q 979 -675 956 -650 q 989 -703 989 -689 q 976 -731 989 -718 q 949 -744 964 -744 m 392 364 q 961 458 644 419 q 1029 910 999 685 q 1060 1299 1060 1135 q 983 1539 1060 1540 q 931 1515 963 1539 q 851 1421 899 1490 q 740 1221 804 1351 q 425 454 588 888 l 392 364 m 90 1479 q 50 1519 61 1479 q 56 1540 50 1532 q 73 1588 60 1558 q 108 1642 86 1618 q 164 1667 131 1667 q 272 1608 214 1663 q 308 1579 289 1594 q 333 1564 328 1564 q 374 1647 351 1578 q 414 1678 388 1678 q 454 1636 454 1672 l 453 1626 q 433 1574 447 1608 q 394 1512 418 1540 q 335 1483 369 1483 q 270 1508 304 1483 q 207 1557 236 1532 q 161 1586 178 1582 q 156 1577 164 1589 q 132 1514 149 1565 q 117 1490 126 1500 q 90 1479 108 1479 z "},"":{"ha":1390,"x_min":-349,"x_max":1340,"o":"m 949 -744 q 919 -731 933 -744 q 853 -450 853 -664 q 881 -81 853 -296 q 949 375 910 133 q 357 274 636 335 q 110 -318 233 -53 q -208 -722 -69 -697 q -236 -725 -221 -725 q -283 -715 -257 -725 q -336 -679 -310 -706 q -349 -650 -349 -665 q -336 -622 -349 -635 q -307 -610 -324 -610 q -279 -622 -293 -610 q -236 -644 -254 -644 q -83 -509 -164 -633 q 83 -185 -3 -385 q 260 250 169 14 q -3 171 140 221 q -18 167 -7 167 q -58 206 -50 167 q -31 246 -58 231 q 296 343 132 303 q 350 482 322 408 q 598 1103 489 850 q 801 1489 707 1357 q 988 1621 894 1621 q 1103 1530 1067 1617 q 1140 1292 1140 1443 q 1112 914 1140 1129 q 1046 468 1083 699 q 1296 499 1154 482 l 1300 499 q 1340 458 1332 499 q 1304 417 1340 431 q 1033 385 1157 401 q 965 -67 996 158 q 935 -456 935 -293 q 945 -594 935 -537 q 979 -675 956 -650 q 989 -703 989 -689 q 976 -731 989 -718 q 949 -744 964 -744 m 392 364 q 961 458 644 419 q 1029 910 999 685 q 1060 1299 1060 1135 q 983 1539 1060 1540 q 931 1515 963 1539 q 851 1421 899 1490 q 740 1221 804 1351 q 425 454 588 888 l 392 364 m 938 1818 q 909 1831 922 1818 q 896 1860 896 1844 q 909 1890 896 1876 q 938 1903 922 1903 q 967 1890 954 1903 q 981 1860 981 1876 q 967 1831 981 1844 q 938 1818 954 1818 m 1129 1819 q 1100 1833 1113 1819 q 1088 1861 1088 1846 q 1100 1891 1088 1878 q 1129 1904 1113 1904 q 1158 1891 1146 1904 q 1171 1861 1171 1878 q 1158 1833 1171 1846 q 1129 1819 1146 1819 z "},"":{"ha":1390,"x_min":-349,"x_max":1340,"o":"m 949 -744 q 919 -731 933 -744 q 853 -450 853 -664 q 881 -81 853 -296 q 949 375 910 133 q 357 274 636 335 q 110 -318 233 -53 q -208 -722 -69 -697 q -236 -725 -221 -725 q -283 -715 -257 -725 q -336 -679 -310 -706 q -349 -650 -349 -665 q -336 -622 -349 -635 q -307 -610 -324 -610 q -279 -622 -293 -610 q -236 -644 -254 -644 q -83 -509 -164 -633 q 83 -185 -3 -385 q 260 250 169 14 q -3 171 140 221 q -18 167 -7 167 q -58 206 -50 167 q -31 246 -58 231 q 296 343 132 303 q 350 482 322 408 q 598 1103 489 850 q 801 1489 707 1357 q 988 1621 894 1621 q 1103 1530 1067 1617 q 1140 1292 1140 1443 q 1112 914 1140 1129 q 1046 468 1083 699 q 1296 499 1154 482 l 1300 499 q 1340 458 1332 499 q 1304 417 1340 431 q 1033 385 1157 401 q 965 -67 996 158 q 935 -456 935 -293 q 945 -594 935 -537 q 979 -675 956 -650 q 989 -703 989 -689 q 976 -731 989 -718 q 949 -744 964 -744 m 392 364 q 961 458 644 419 q 1029 910 999 685 q 1060 1299 1060 1135 q 983 1539 1060 1540 q 931 1515 963 1539 q 851 1421 899 1490 q 740 1221 804 1351 q 425 454 588 888 l 392 364 m 1010 1806 q 908 1848 951 1806 q 864 1951 864 1890 q 908 2069 864 2026 q 1025 2118 951 2113 q 1117 2086 1074 2118 q 1165 1979 1167 2047 q 1147 1901 1165 1942 q 1094 1833 1128 1861 q 1010 1806 1060 1806 m 1008 1888 l 1019 1889 q 1070 1926 1057 1897 q 1083 1981 1083 1954 q 1025 2038 1085 2038 l 1015 2036 q 986 2028 1003 2035 q 957 2003 969 2021 q 944 1951 944 1986 q 1008 1888 944 1893 z "},"":{"ha":1296,"x_min":-108,"x_max":1367,"o":"m 325 -581 q 101 -519 199 -581 q -53 -335 3 -457 q -108 -37 -108 -214 q -32 444 -108 172 q 181 979 44 715 q 420 1350 300 1213 q 638 1501 540 1488 l 664 1503 q 793 1446 739 1503 q 865 1281 844 1386 q 886 1057 886 1176 q 871 799 886 926 q 841 587 856 672 q 824 489 826 501 q 783 457 811 457 q 755 469 767 460 q 743 499 743 479 l 743 504 q 783 752 763 597 q 804 1060 804 907 q 791 1247 804 1165 q 747 1375 778 1328 q 661 1422 717 1422 q 460 1272 575 1413 q 233 910 344 1131 q 48 437 122 689 q -26 -37 -26 185 q -5 -226 -26 -133 q 73 -388 17 -319 q 232 -486 129 -457 q 325 -499 279 -499 q 533 -444 431 -499 q 731 -302 636 -390 q 910 -108 826 -214 q 1063 105 993 -1 q 1182 300 1132 211 q 1260 444 1232 389 q 1289 504 1288 500 q 1325 526 1304 526 q 1353 515 1339 526 q 1367 485 1367 503 l 1364 472 q 1338 418 1363 468 q 1267 285 1313 368 q 1158 103 1221 203 q 1018 -100 1096 3 q 658 -463 832 -346 q 325 -581 485 -581 m 208 -1118 q 136 -1115 149 -1118 q 100 -1074 100 -1101 q 140 -1033 108 -1033 l 143 -1033 q 210 -1036 146 -1033 q 317 -1028 257 -1036 q 424 -993 378 -1019 q 479 -915 469 -967 q 481 -896 481 -906 q 445 -840 481 -854 q 356 -826 410 -826 q 297 -831 321 -826 q 256 -836 274 -835 q 226 -824 240 -836 q 213 -796 213 -812 l 214 -786 q 285 -533 265 -589 q 321 -511 300 -511 q 349 -524 336 -511 q 363 -553 363 -536 q 344 -617 358 -569 q 308 -747 331 -664 q 357 -744 319 -744 q 443 -755 399 -744 q 519 -793 488 -765 q 563 -896 563 -835 l 560 -926 q 483 -1051 544 -1010 q 342 -1105 421 -1092 q 208 -1118 264 -1118 m 346 -576 z "},"":{"ha":1269,"x_min":-176,"x_max":1342,"o":"m 104 -711 q -99 -635 -24 -711 q -176 -449 -174 -558 q -115 -226 -176 -346 q 39 16 -54 -106 q 235 246 132 138 q 425 437 338 354 q 561 560 513 519 q 385 600 500 569 q 147 688 271 631 q -64 836 24 746 q -114 971 -114 894 q -8 1228 -114 1086 q 286 1503 97 1369 q 969 1789 611 1728 q 1072 1799 1025 1799 q 1293 1706 1222 1799 q 1331 1626 1319 1669 q 1342 1535 1342 1582 q 1327 1406 1342 1471 q 1293 1286 1313 1340 q 1258 1197 1274 1232 q 1240 1158 1243 1163 q 1201 1135 1225 1135 q 1174 1148 1185 1139 q 1164 1176 1164 1157 q 1168 1194 1164 1185 q 1183 1227 1169 1196 q 1215 1308 1197 1258 q 1247 1418 1233 1358 q 1261 1533 1261 1478 q 1220 1667 1261 1618 q 1072 1717 1179 1717 q 981 1708 1031 1717 q 477 1529 706 1660 q 108 1242 249 1399 q -33 971 -33 1086 q -3 890 -33 922 q 179 763 71 814 q 397 682 288 711 q 581 640 507 653 q 661 626 656 626 q 696 589 690 621 q 681 556 696 569 q 597 483 675 551 q 403 302 518 414 q 176 58 289 190 q -16 -208 63 -75 q -94 -447 -94 -340 q -44 -577 -93 -525 q 104 -629 4 -629 q 343 -564 204 -629 q 645 -367 501 -485 q 884 -149 789 -250 q 989 -12 979 -47 q 986 6 986 -6 q 1026 46 986 38 q 1072 -8 1063 46 q 971 -172 1058 -76 q 844 -303 883 -268 q 447 -601 644 -490 q 104 -711 250 -711 m 1011 -31 m 713 1881 q 682 1894 696 1881 l 538 2050 q 528 2076 528 2064 q 541 2105 528 2092 q 569 2118 554 2118 q 599 2104 585 2118 l 743 1949 q 753 1921 753 1935 q 742 1894 753 1908 q 713 1881 731 1881 z "},"":{"ha":1269,"x_min":-176,"x_max":1342,"o":"m 104 -711 q -99 -635 -24 -711 q -176 -449 -174 -558 q -115 -226 -176 -346 q 39 16 -54 -106 q 235 246 132 138 q 425 437 338 354 q 561 560 513 519 q 385 600 500 569 q 147 688 271 631 q -64 836 24 746 q -114 971 -114 894 q -8 1228 -114 1086 q 286 1503 97 1369 q 969 1789 611 1728 q 1072 1799 1025 1799 q 1293 1706 1222 1799 q 1331 1626 1319 1669 q 1342 1535 1342 1582 q 1327 1406 1342 1471 q 1293 1286 1313 1340 q 1258 1197 1274 1232 q 1240 1158 1243 1163 q 1201 1135 1225 1135 q 1174 1148 1185 1139 q 1164 1176 1164 1157 q 1168 1194 1164 1185 q 1183 1227 1169 1196 q 1215 1308 1197 1258 q 1247 1418 1233 1358 q 1261 1533 1261 1478 q 1220 1667 1261 1618 q 1072 1717 1179 1717 q 981 1708 1031 1717 q 477 1529 706 1660 q 108 1242 249 1399 q -33 971 -33 1086 q -3 890 -33 922 q 179 763 71 814 q 397 682 288 711 q 581 640 507 653 q 661 626 656 626 q 696 589 690 621 q 681 556 696 569 q 597 483 675 551 q 403 302 518 414 q 176 58 289 190 q -16 -208 63 -75 q -94 -447 -94 -340 q -44 -577 -93 -525 q 104 -629 4 -629 q 343 -564 204 -629 q 645 -367 501 -485 q 884 -149 789 -250 q 989 -12 979 -47 q 986 6 986 -6 q 1026 46 986 38 q 1072 -8 1063 46 q 971 -172 1058 -76 q 844 -303 883 -268 q 447 -601 644 -490 q 104 -711 250 -711 m 1011 -31 m 714 1871 q 685 1885 696 1871 q 674 1911 674 1899 q 683 1939 674 1925 l 828 2094 q 857 2108 842 2108 q 885 2095 872 2108 q 899 2067 899 2082 q 889 2040 899 2054 l 744 1885 q 714 1871 731 1871 z "},"":{"ha":1269,"x_min":-176,"x_max":1342,"o":"m 104 -711 q -99 -635 -24 -711 q -176 -449 -174 -558 q -115 -226 -176 -346 q 39 16 -54 -106 q 235 246 132 138 q 425 437 338 354 q 561 560 513 519 q 385 600 500 569 q 147 688 271 631 q -64 836 24 746 q -114 971 -114 894 q -8 1228 -114 1086 q 286 1503 97 1369 q 969 1789 611 1728 q 1072 1799 1025 1799 q 1293 1706 1222 1799 q 1331 1626 1319 1669 q 1342 1535 1342 1582 q 1327 1406 1342 1471 q 1293 1286 1313 1340 q 1258 1197 1274 1232 q 1240 1158 1243 1163 q 1201 1135 1225 1135 q 1174 1148 1185 1139 q 1164 1176 1164 1157 q 1168 1194 1164 1185 q 1183 1227 1169 1196 q 1215 1308 1197 1258 q 1247 1418 1233 1358 q 1261 1533 1261 1478 q 1220 1667 1261 1618 q 1072 1717 1179 1717 q 981 1708 1031 1717 q 477 1529 706 1660 q 108 1242 249 1399 q -33 971 -33 1086 q -3 890 -33 922 q 179 763 71 814 q 397 682 288 711 q 581 640 507 653 q 661 626 656 626 q 696 589 690 621 q 681 556 696 569 q 597 483 675 551 q 403 302 518 414 q 176 58 289 190 q -16 -208 63 -75 q -94 -447 -94 -340 q -44 -577 -93 -525 q 104 -629 4 -629 q 343 -564 204 -629 q 645 -367 501 -485 q 884 -149 789 -250 q 989 -12 979 -47 q 986 6 986 -6 q 1026 46 986 38 q 1072 -8 1063 46 q 971 -172 1058 -76 q 844 -303 883 -268 q 447 -601 644 -490 q 104 -711 250 -711 m 1011 -31 m 547 1885 q 507 1926 518 1885 q 515 1951 507 1938 l 701 2185 q 736 2200 718 2200 q 768 2179 757 2197 l 903 1969 q 908 1947 908 1957 q 895 1919 908 1932 q 867 1907 882 1907 q 832 1925 849 1907 l 729 2089 l 579 1900 q 547 1885 564 1885 z "},"":{"ha":1269,"x_min":-176,"x_max":1342,"o":"m 104 -711 q -99 -635 -24 -711 q -176 -449 -174 -558 q -115 -226 -176 -346 q 39 16 -54 -106 q 235 246 132 138 q 425 437 338 354 q 561 560 513 519 q 385 600 500 569 q 147 688 271 631 q -64 836 24 746 q -114 971 -114 894 q -8 1228 -114 1086 q 286 1503 97 1369 q 969 1789 611 1728 q 1072 1799 1025 1799 q 1293 1706 1222 1799 q 1331 1626 1319 1669 q 1342 1535 1342 1582 q 1327 1406 1342 1471 q 1293 1286 1313 1340 q 1258 1197 1274 1232 q 1240 1158 1243 1163 q 1201 1135 1225 1135 q 1174 1148 1185 1139 q 1164 1176 1164 1157 q 1168 1194 1164 1185 q 1183 1227 1169 1196 q 1215 1308 1197 1258 q 1247 1418 1233 1358 q 1261 1533 1261 1478 q 1220 1667 1261 1618 q 1072 1717 1179 1717 q 981 1708 1031 1717 q 477 1529 706 1660 q 108 1242 249 1399 q -33 971 -33 1086 q -3 890 -33 922 q 179 763 71 814 q 397 682 288 711 q 581 640 507 653 q 661 626 656 626 q 696 589 690 621 q 681 556 696 569 q 597 483 675 551 q 403 302 518 414 q 176 58 289 190 q -16 -208 63 -75 q -94 -447 -94 -340 q -44 -577 -93 -525 q 104 -629 4 -629 q 343 -564 204 -629 q 645 -367 501 -485 q 884 -149 789 -250 q 989 -12 979 -47 q 986 6 986 -6 q 1026 46 986 38 q 1072 -8 1063 46 q 971 -172 1058 -76 q 844 -303 883 -268 q 447 -601 644 -490 q 104 -711 250 -711 m 1011 -31 m 635 1921 q 606 1934 619 1921 q 593 1963 593 1947 q 606 1992 593 1979 q 635 2006 619 2006 q 665 1992 651 2006 q 678 1963 678 1979 q 665 1934 678 1947 q 635 1921 651 1921 m 826 1922 q 797 1935 810 1922 q 785 1964 785 1949 q 797 1994 785 1981 q 826 2007 810 2007 q 856 1994 843 2007 q 868 1964 868 1981 q 856 1935 868 1949 q 826 1922 843 1922 z "},"":{"ha":760,"x_min":50,"x_max":628,"o":"m 321 -704 l 319 -704 q 279 -664 289 -704 q 385 102 293 -411 q 531 1069 478 615 q 546 1332 546 1233 q 532 1501 546 1460 q 506 1543 518 1542 q 492 1546 500 1546 q 440 1525 467 1546 q 396 1482 414 1504 q 272 1285 332 1411 q 171 1006 211 1158 q 131 706 131 853 q 147 547 131 622 q 200 411 164 472 q 206 390 206 400 q 192 363 206 375 q 164 350 179 350 q 129 368 146 350 q 67 534 85 446 q 50 707 50 622 q 61 865 50 790 q 85 994 72 939 q 333 1536 169 1342 q 420 1607 381 1588 q 490 1626 460 1626 q 599 1544 569 1626 q 628 1329 628 1461 q 584 827 628 1135 q 471 118 540 519 q 396 -341 428 -132 q 361 -664 364 -550 q 321 -704 361 -694 m 476 1785 q 446 1799 460 1785 l 301 1954 q 292 1981 292 1968 q 305 2009 292 1996 q 333 2022 318 2022 q 363 2008 349 2022 l 507 1853 q 517 1825 517 1839 q 506 1799 517 1813 q 476 1785 494 1785 z "},"":{"ha":760,"x_min":50,"x_max":663,"o":"m 321 -704 l 319 -704 q 279 -664 289 -704 q 385 102 293 -411 q 531 1069 478 615 q 546 1332 546 1233 q 532 1501 546 1460 q 506 1543 518 1542 q 492 1546 500 1546 q 440 1525 467 1546 q 396 1482 414 1504 q 272 1285 332 1411 q 171 1006 211 1158 q 131 706 131 853 q 147 547 131 622 q 200 411 164 472 q 206 390 206 400 q 192 363 206 375 q 164 350 179 350 q 129 368 146 350 q 67 534 85 446 q 50 707 50 622 q 61 865 50 790 q 85 994 72 939 q 333 1536 169 1342 q 420 1607 381 1588 q 490 1626 460 1626 q 599 1544 569 1626 q 628 1329 628 1461 q 584 827 628 1135 q 471 118 540 519 q 396 -341 428 -132 q 361 -664 364 -550 q 321 -704 361 -694 m 478 1775 q 449 1789 460 1775 q 438 1815 438 1803 q 447 1843 438 1829 l 592 1999 q 621 2013 606 2013 q 649 1999 636 2013 q 663 1971 663 1986 q 653 1944 663 1958 l 508 1789 q 478 1775 494 1775 z "},"":{"ha":760,"x_min":50,"x_max":672,"o":"m 321 -704 l 319 -704 q 279 -664 289 -704 q 385 102 293 -411 q 531 1069 478 615 q 546 1332 546 1233 q 532 1501 546 1460 q 506 1543 518 1542 q 492 1546 500 1546 q 440 1525 467 1546 q 396 1482 414 1504 q 272 1285 332 1411 q 171 1006 211 1158 q 131 706 131 853 q 147 547 131 622 q 200 411 164 472 q 206 390 206 400 q 192 363 206 375 q 164 350 179 350 q 129 368 146 350 q 67 534 85 446 q 50 707 50 622 q 61 865 50 790 q 85 994 72 939 q 333 1536 169 1342 q 420 1607 381 1588 q 490 1626 460 1626 q 599 1544 569 1626 q 628 1329 628 1461 q 584 827 628 1135 q 471 118 540 519 q 396 -341 428 -132 q 361 -664 364 -550 q 321 -704 361 -694 m 311 1789 q 271 1831 282 1789 q 279 1856 271 1842 l 465 2089 q 500 2104 482 2104 q 532 2083 521 2101 l 667 1874 q 672 1851 672 1861 q 659 1824 672 1836 q 631 1811 646 1811 q 596 1829 613 1811 l 493 1993 l 343 1804 q 311 1789 328 1789 z "},"":{"ha":760,"x_min":50,"x_max":632,"o":"m 321 -704 l 319 -704 q 279 -664 289 -704 q 385 102 293 -411 q 531 1069 478 615 q 546 1332 546 1233 q 532 1501 546 1460 q 506 1543 518 1542 q 492 1546 500 1546 q 440 1525 467 1546 q 396 1482 414 1504 q 272 1285 332 1411 q 171 1006 211 1158 q 131 706 131 853 q 147 547 131 622 q 200 411 164 472 q 206 390 206 400 q 192 363 206 375 q 164 350 179 350 q 129 368 146 350 q 67 534 85 446 q 50 707 50 622 q 61 865 50 790 q 85 994 72 939 q 333 1536 169 1342 q 420 1607 381 1588 q 490 1626 460 1626 q 599 1544 569 1626 q 628 1329 628 1461 q 584 827 628 1135 q 471 118 540 519 q 396 -341 428 -132 q 361 -664 364 -550 q 321 -704 361 -694 m 399 1825 q 370 1838 383 1825 q 357 1867 357 1851 q 370 1897 357 1883 q 399 1910 383 1910 q 428 1897 415 1910 q 442 1867 442 1883 q 428 1838 442 1851 q 399 1825 415 1825 m 590 1826 q 561 1840 574 1826 q 549 1868 549 1853 q 561 1898 549 1885 q 590 1911 574 1911 q 619 1898 607 1911 q 632 1868 632 1885 q 619 1840 632 1853 q 590 1826 607 1826 z "},"":{"ha":1367,"x_min":-139,"x_max":1151,"o":"m 128 -682 q 88 -642 90 -682 l 88 -637 q 112 -474 88 -633 q 169 -67 136 -315 q 232 465 201 182 q 274 956 261 751 q 286 1300 286 1161 q 276 1558 286 1471 q 247 1674 265 1644 q 203 1704 228 1704 q 128 1670 172 1704 q 41 1558 83 1636 q -30 1350 -1 1481 q -58 1028 -58 1219 q -51 849 -58 939 q -92 808 -51 815 q -118 819 -106 808 q -132 846 -131 829 q -139 1028 -139 943 q -84 1458 -139 1290 q 51 1706 -29 1625 q 204 1786 131 1786 q 286 1753 250 1786 q 323 1692 304 1736 q 355 1556 342 1649 q 368 1294 368 1463 q 346 813 365 1058 q 304 375 326 567 l 317 421 l 346 529 q 647 1403 501 1113 q 936 1693 793 1693 q 1069 1554 1032 1690 q 1107 1124 1107 1418 q 1087 516 1107 867 q 1067 -90 1067 165 q 1077 -316 1068 -243 q 1097 -409 1086 -389 q 1110 -429 1107 -429 q 1151 -468 1142 -429 q 1108 -510 1151 -507 q 1012 -401 1039 -510 q 985 -86 985 -293 q 1005 492 985 147 q 1025 1117 1025 836 q 1022 1272 1025 1199 q 1001 1499 1015 1426 q 969 1593 986 1572 q 936 1613 951 1614 q 858 1574 906 1613 q 745 1419 810 1535 q 601 1085 681 1304 q 425 510 521 865 q 291 -42 349 219 q 201 -474 233 -304 q 168 -647 168 -644 q 128 -682 153 -682 m 90 1479 q 50 1519 61 1479 q 56 1540 50 1532 q 73 1588 60 1558 q 108 1642 86 1618 q 164 1667 131 1667 q 272 1608 214 1663 q 308 1579 289 1594 q 333 1564 328 1564 q 374 1647 351 1578 q 414 1678 388 1678 q 454 1636 454 1672 l 453 1626 q 433 1574 447 1608 q 394 1512 418 1540 q 335 1483 369 1483 q 270 1508 304 1483 q 207 1557 236 1532 q 161 1586 178 1582 q 156 1577 164 1589 q 132 1514 149 1565 q 117 1490 126 1500 q 90 1479 108 1479 z "},"":{"ha":1335,"x_min":-54,"x_max":1190,"o":"m 357 -603 q 194 -557 275 -603 q 48 -406 103 -503 q -31 -184 -7 -310 q -54 79 -54 -58 q -26 422 -54 250 q 44 739 3 594 q 83 852 57 779 q 147 1002 108 925 q 235 1133 186 1079 q 339 1188 283 1188 q 383 1144 383 1183 q 340 1106 372 1106 l 338 1106 q 242 1008 301 1106 q 124 714 183 910 q 26 83 26 386 q 76 -268 26 -115 q 233 -486 125 -421 q 358 -521 294 -521 q 601 -398 478 -521 q 831 -56 724 -275 q 1015 454 938 163 q 1110 1103 1110 822 q 1051 1458 1110 1336 q 883 1579 993 1579 q 624 1374 761 1579 q 412 920 503 1185 q 269 392 321 656 q 218 -44 218 128 q 239 -196 218 -146 l 242 -210 q 229 -238 242 -225 q 201 -251 217 -251 q 164 -226 179 -251 q 138 -39 138 -158 q 256 684 138 242 q 556 1418 375 1126 q 883 1660 717 1660 q 972 1643 924 1660 q 1064 1581 1019 1626 q 1140 1449 1108 1535 q 1190 1104 1190 1308 q 1094 433 1190 811 q 892 -112 1010 119 q 636 -474 774 -344 q 357 -603 499 -603 m 851 1796 q 821 1810 835 1796 l 676 1965 q 667 1992 667 1979 q 680 2020 667 2007 q 708 2033 693 2033 q 738 2019 724 2033 l 882 1864 q 892 1836 892 1850 q 881 1810 892 1824 q 851 1796 869 1796 z "},"":{"ha":1335,"x_min":-54,"x_max":1190,"o":"m 357 -603 q 194 -557 275 -603 q 48 -406 103 -503 q -31 -184 -7 -310 q -54 79 -54 -58 q -26 422 -54 250 q 44 739 3 594 q 83 852 57 779 q 147 1002 108 925 q 235 1133 186 1079 q 339 1188 283 1188 q 383 1144 383 1183 q 340 1106 372 1106 l 338 1106 q 242 1008 301 1106 q 124 714 183 910 q 26 83 26 386 q 76 -268 26 -115 q 233 -486 125 -421 q 358 -521 294 -521 q 601 -398 478 -521 q 831 -56 724 -275 q 1015 454 938 163 q 1110 1103 1110 822 q 1051 1458 1110 1336 q 883 1579 993 1579 q 624 1374 761 1579 q 412 920 503 1185 q 269 392 321 656 q 218 -44 218 128 q 239 -196 218 -146 l 242 -210 q 229 -238 242 -225 q 201 -251 217 -251 q 164 -226 179 -251 q 138 -39 138 -158 q 256 684 138 242 q 556 1418 375 1126 q 883 1660 717 1660 q 972 1643 924 1660 q 1064 1581 1019 1626 q 1140 1449 1108 1535 q 1190 1104 1190 1308 q 1094 433 1190 811 q 892 -112 1010 119 q 636 -474 774 -344 q 357 -603 499 -603 m 853 1786 q 824 1800 835 1786 q 813 1826 813 1814 q 822 1854 813 1840 l 967 2010 q 996 2024 981 2024 q 1024 2010 1011 2024 q 1038 1982 1038 1997 q 1028 1956 1038 1969 l 883 1800 q 853 1786 869 1786 z "},"":{"ha":1335,"x_min":-54,"x_max":1190,"o":"m 357 -603 q 194 -557 275 -603 q 48 -406 103 -503 q -31 -184 -7 -310 q -54 79 -54 -58 q -26 422 -54 250 q 44 739 3 594 q 83 852 57 779 q 147 1002 108 925 q 235 1133 186 1079 q 339 1188 283 1188 q 383 1144 383 1183 q 340 1106 372 1106 l 338 1106 q 242 1008 301 1106 q 124 714 183 910 q 26 83 26 386 q 76 -268 26 -115 q 233 -486 125 -421 q 358 -521 294 -521 q 601 -398 478 -521 q 831 -56 724 -275 q 1015 454 938 163 q 1110 1103 1110 822 q 1051 1458 1110 1336 q 883 1579 993 1579 q 624 1374 761 1579 q 412 920 503 1185 q 269 392 321 656 q 218 -44 218 128 q 239 -196 218 -146 l 242 -210 q 229 -238 242 -225 q 201 -251 217 -251 q 164 -226 179 -251 q 138 -39 138 -158 q 256 684 138 242 q 556 1418 375 1126 q 883 1660 717 1660 q 972 1643 924 1660 q 1064 1581 1019 1626 q 1140 1449 1108 1535 q 1190 1104 1190 1308 q 1094 433 1190 811 q 892 -112 1010 119 q 636 -474 774 -344 q 357 -603 499 -603 m 686 1800 q 646 1842 657 1800 q 654 1867 646 1853 l 840 2100 q 875 2115 857 2115 q 907 2094 896 2113 l 1042 1885 q 1047 1863 1047 1872 q 1034 1835 1047 1847 q 1006 1822 1021 1822 q 971 1840 988 1822 l 868 2004 l 718 1815 q 686 1800 703 1800 z "},"":{"ha":1335,"x_min":-54,"x_max":1190,"o":"m 357 -603 q 194 -557 275 -603 q 48 -406 103 -503 q -31 -184 -7 -310 q -54 79 -54 -58 q -26 422 -54 250 q 44 739 3 594 q 83 852 57 779 q 147 1002 108 925 q 235 1133 186 1079 q 339 1188 283 1188 q 383 1144 383 1183 q 340 1106 372 1106 l 338 1106 q 242 1008 301 1106 q 124 714 183 910 q 26 83 26 386 q 76 -268 26 -115 q 233 -486 125 -421 q 358 -521 294 -521 q 601 -398 478 -521 q 831 -56 724 -275 q 1015 454 938 163 q 1110 1103 1110 822 q 1051 1458 1110 1336 q 883 1579 993 1579 q 624 1374 761 1579 q 412 920 503 1185 q 269 392 321 656 q 218 -44 218 128 q 239 -196 218 -146 l 242 -210 q 229 -238 242 -225 q 201 -251 217 -251 q 164 -226 179 -251 q 138 -39 138 -158 q 256 684 138 242 q 556 1418 375 1126 q 883 1660 717 1660 q 972 1643 924 1660 q 1064 1581 1019 1626 q 1140 1449 1108 1535 q 1190 1104 1190 1308 q 1094 433 1190 811 q 892 -112 1010 119 q 636 -474 774 -344 q 357 -603 499 -603 m 90 1479 q 50 1519 61 1479 q 56 1540 50 1532 q 73 1588 60 1558 q 108 1642 86 1618 q 164 1667 131 1667 q 272 1608 214 1663 q 308 1579 289 1594 q 333 1564 328 1564 q 374 1647 351 1578 q 414 1678 388 1678 q 454 1636 454 1672 l 453 1626 q 433 1574 447 1608 q 394 1512 418 1540 q 335 1483 369 1483 q 270 1508 304 1483 q 207 1557 236 1532 q 161 1586 178 1582 q 156 1577 164 1589 q 132 1514 149 1565 q 117 1490 126 1500 q 90 1479 108 1479 z "},"":{"ha":1335,"x_min":-54,"x_max":1190,"o":"m 357 -603 q 194 -557 275 -603 q 48 -406 103 -503 q -31 -184 -7 -310 q -54 79 -54 -58 q -26 422 -54 250 q 44 739 3 594 q 83 852 57 779 q 147 1002 108 925 q 235 1133 186 1079 q 339 1188 283 1188 q 383 1144 383 1183 q 340 1106 372 1106 l 338 1106 q 242 1008 301 1106 q 124 714 183 910 q 26 83 26 386 q 76 -268 26 -115 q 233 -486 125 -421 q 358 -521 294 -521 q 601 -398 478 -521 q 831 -56 724 -275 q 1015 454 938 163 q 1110 1103 1110 822 q 1051 1458 1110 1336 q 883 1579 993 1579 q 624 1374 761 1579 q 412 920 503 1185 q 269 392 321 656 q 218 -44 218 128 q 239 -196 218 -146 l 242 -210 q 229 -238 242 -225 q 201 -251 217 -251 q 164 -226 179 -251 q 138 -39 138 -158 q 256 684 138 242 q 556 1418 375 1126 q 883 1660 717 1660 q 972 1643 924 1660 q 1064 1581 1019 1626 q 1140 1449 1108 1535 q 1190 1104 1190 1308 q 1094 433 1190 811 q 892 -112 1010 119 q 636 -474 774 -344 q 357 -603 499 -603 m 774 1836 q 745 1849 758 1836 q 732 1878 732 1863 q 745 1908 732 1894 q 774 1921 758 1921 q 803 1908 790 1921 q 817 1878 817 1894 q 803 1849 817 1863 q 774 1836 790 1836 m 965 1838 q 936 1851 949 1838 q 924 1879 924 1864 q 936 1909 924 1896 q 965 1922 949 1922 q 994 1909 982 1922 q 1007 1879 1007 1896 q 994 1851 1007 1864 q 965 1838 982 1838 z "},"":{"ha":854,"x_min":206,"x_max":649,"o":"m 264 303 q 224 344 235 303 q 238 375 224 360 l 360 483 l 224 575 q 206 608 206 590 q 247 649 206 642 q 268 642 257 649 l 424 539 l 564 663 q 590 672 578 672 q 632 631 621 672 q 618 600 632 617 l 494 492 l 631 401 q 649 367 649 385 q 636 339 649 351 q 608 326 624 326 q 585 335 597 326 l 431 438 l 292 313 q 264 303 278 303 z "},"":{"ha":1335,"x_min":-54,"x_max":1190,"o":"m 357 -603 q 193 -557 275 -603 q 11 -331 68 -482 q -50 -66 -46 -179 q -54 83 -54 47 q -31 389 -54 235 q 44 739 -3 579 q 102 902 61 797 q 204 1097 143 1007 q 346 1188 265 1186 q 383 1143 382 1182 q 340 1106 378 1107 l 338 1106 q 244 1010 304 1106 q 124 714 183 914 q 39 313 51 472 q 26 86 26 153 q 181 -446 26 -315 q 751 833 268 -117 q 886 1106 858 1047 q 957 1244 914 1164 q 1058 1436 1038 1393 q 883 1579 1003 1579 q 624 1374 763 1579 q 377 815 478 1143 q 247 273 276 488 q 218 -40 218 58 q 238 -196 218 -142 q 242 -212 242 -204 q 201 -251 242 -246 q 164 -228 178 -251 q 136 -33 136 -156 q 156 211 136 71 q 303 851 197 514 q 556 1418 410 1189 q 883 1660 717 1660 q 972 1644 924 1660 q 1065 1581 1021 1628 q 1140 1449 1110 1535 q 1190 1104 1190 1311 q 1094 433 1190 803 q 613 -497 911 -228 q 357 -603 485 -603 m 358 -522 q 560 -435 457 -522 q 1015 454 840 -182 q 1110 1106 1110 811 q 1089 1336 1110 1258 l 1064 1285 q 813 776 1010 1168 q 249 -494 311 -221 q 358 -522 299 -522 z "},"":{"ha":1439,"x_min":50,"x_max":1361,"o":"m 1129 -911 q 1081 -893 1103 -911 q 1035 -807 1056 -876 q 1015 -553 1015 -737 q 1073 250 1015 -269 q 1192 1172 1131 769 q 1003 633 1157 1054 q 249 -508 572 -510 q 133 -442 176 -508 q 69 -262 89 -376 q 50 -1 50 -147 q 67 346 50 175 q 99 615 85 517 q 169 1017 131 843 q 224 1188 203 1153 q 257 1221 244 1222 q 299 1214 281 1228 q 317 1178 318 1200 q 309 1151 317 1165 q 288 1138 301 1138 q 231 917 268 1094 q 163 475 194 739 q 132 3 132 204 q 185 -374 132 -262 q 224 -420 206 -412 q 251 -428 242 -428 q 483 -253 361 -422 q 728 184 606 -83 q 960 751 850 451 q 1153 1319 1069 1051 q 1281 1754 1236 1586 q 1322 1785 1297 1785 q 1361 1744 1361 1776 l 1361 1739 q 1331 1552 1360 1729 q 1262 1095 1303 1375 q 1182 499 1221 815 q 1096 -547 1096 -228 q 1102 -727 1096 -668 q 1117 -807 1108 -786 q 1131 -829 1125 -828 l 1140 -828 q 1182 -867 1176 -828 q 1165 -899 1182 -887 q 1129 -911 1147 -911 m 725 1579 q 694 1593 708 1579 l 550 1749 q 540 1775 540 1763 q 553 1803 540 1790 q 582 1817 567 1817 q 611 1803 597 1817 l 756 1647 q 765 1619 765 1633 q 754 1593 765 1607 q 725 1579 743 1579 z "},"":{"ha":1439,"x_min":50,"x_max":1361,"o":"m 1129 -911 q 1081 -893 1103 -911 q 1035 -807 1056 -876 q 1015 -553 1015 -737 q 1073 250 1015 -269 q 1192 1172 1131 769 q 1003 633 1157 1054 q 249 -508 572 -510 q 133 -442 176 -508 q 69 -262 89 -376 q 50 -1 50 -147 q 67 346 50 175 q 99 615 85 517 q 169 1017 131 843 q 224 1188 203 1153 q 257 1221 244 1222 q 299 1214 281 1228 q 317 1178 318 1200 q 309 1151 317 1165 q 288 1138 301 1138 q 231 917 268 1094 q 163 475 194 739 q 132 3 132 204 q 185 -374 132 -262 q 224 -420 206 -412 q 251 -428 242 -428 q 483 -253 361 -422 q 728 184 606 -83 q 960 751 850 451 q 1153 1319 1069 1051 q 1281 1754 1236 1586 q 1322 1785 1297 1785 q 1361 1744 1361 1776 l 1361 1739 q 1331 1552 1360 1729 q 1262 1095 1303 1375 q 1182 499 1221 815 q 1096 -547 1096 -228 q 1102 -727 1096 -668 q 1117 -807 1108 -786 q 1131 -829 1125 -828 l 1140 -828 q 1182 -867 1176 -828 q 1165 -899 1182 -887 q 1129 -911 1147 -911 m 726 1569 q 697 1583 708 1569 q 686 1610 686 1597 q 696 1638 686 1624 l 840 1793 q 869 1807 854 1807 q 898 1794 885 1807 q 911 1765 911 1781 q 901 1739 911 1753 l 757 1583 q 726 1569 743 1569 z "},"":{"ha":1439,"x_min":50,"x_max":1361,"o":"m 1129 -911 q 1081 -893 1103 -911 q 1035 -807 1056 -876 q 1015 -553 1015 -737 q 1073 250 1015 -269 q 1192 1172 1131 769 q 1003 633 1157 1054 q 249 -508 572 -510 q 133 -442 176 -508 q 69 -262 89 -376 q 50 -1 50 -147 q 67 346 50 175 q 99 615 85 517 q 169 1017 131 843 q 224 1188 203 1153 q 257 1221 244 1222 q 299 1214 281 1228 q 317 1178 318 1200 q 309 1151 317 1165 q 288 1138 301 1138 q 231 917 268 1094 q 163 475 194 739 q 132 3 132 204 q 185 -374 132 -262 q 224 -420 206 -412 q 251 -428 242 -428 q 483 -253 361 -422 q 728 184 606 -83 q 960 751 850 451 q 1153 1319 1069 1051 q 1281 1754 1236 1586 q 1322 1785 1297 1785 q 1361 1744 1361 1776 l 1361 1739 q 1331 1552 1360 1729 q 1262 1095 1303 1375 q 1182 499 1221 815 q 1096 -547 1096 -228 q 1102 -727 1096 -668 q 1117 -807 1108 -786 q 1131 -829 1125 -828 l 1140 -828 q 1182 -867 1176 -828 q 1165 -899 1182 -887 q 1129 -911 1147 -911 m 560 1583 q 519 1625 531 1583 q 528 1650 519 1636 l 714 1883 q 749 1899 731 1899 q 781 1878 769 1896 l 915 1668 q 921 1646 921 1656 q 908 1618 921 1631 q 879 1606 894 1606 q 844 1624 861 1606 l 742 1788 l 592 1599 q 560 1583 576 1583 z "},"":{"ha":1439,"x_min":50,"x_max":1361,"o":"m 1129 -911 q 1081 -893 1103 -911 q 1035 -807 1056 -876 q 1015 -553 1015 -737 q 1073 250 1015 -269 q 1192 1172 1131 769 q 1003 633 1157 1054 q 249 -508 572 -510 q 133 -442 176 -508 q 69 -262 89 -376 q 50 -1 50 -147 q 67 346 50 175 q 99 615 85 517 q 169 1017 131 843 q 224 1188 203 1153 q 257 1221 244 1222 q 299 1214 281 1228 q 317 1178 318 1200 q 309 1151 317 1165 q 288 1138 301 1138 q 231 917 268 1094 q 163 475 194 739 q 132 3 132 204 q 185 -374 132 -262 q 224 -420 206 -412 q 251 -428 242 -428 q 483 -253 361 -422 q 728 184 606 -83 q 960 751 850 451 q 1153 1319 1069 1051 q 1281 1754 1236 1586 q 1322 1785 1297 1785 q 1361 1744 1361 1776 l 1361 1739 q 1331 1552 1360 1729 q 1262 1095 1303 1375 q 1182 499 1221 815 q 1096 -547 1096 -228 q 1102 -727 1096 -668 q 1117 -807 1108 -786 q 1131 -829 1125 -828 l 1140 -828 q 1182 -867 1176 -828 q 1165 -899 1182 -887 q 1129 -911 1147 -911 m 647 1619 q 619 1633 632 1619 q 606 1661 606 1646 q 619 1691 606 1678 q 647 1704 632 1704 q 677 1691 664 1704 q 690 1661 690 1678 q 677 1633 690 1646 q 647 1619 664 1619 m 839 1621 q 810 1634 822 1621 q 797 1663 797 1647 q 810 1692 797 1679 q 839 1706 822 1706 q 868 1692 856 1706 q 881 1663 881 1679 q 868 1634 881 1647 q 839 1621 856 1621 z "},"":{"ha":1550,"x_min":50,"x_max":1601,"o":"m 581 -1021 q 542 -1012 558 -1021 q 458 -926 488 -993 q 429 -761 429 -858 q 490 -456 429 -615 q 678 -137 550 -297 q 1010 176 807 24 q 1146 904 1089 560 q 1225 1407 1203 1249 q 944 863 1154 1249 q 272 97 518 97 q 108 211 164 97 q 50 532 53 325 q 91 953 50 722 q 189 1342 132 1185 q 242 1447 219 1425 q 283 1468 264 1469 q 317 1454 297 1468 q 338 1417 338 1440 q 297 1376 338 1386 l 289 1376 l 290 1375 q 241 1244 274 1350 q 176 971 208 1139 q 132 540 132 726 q 274 179 132 185 q 352 206 303 179 q 474 309 401 233 q 644 528 546 385 q 872 900 743 671 q 1071 1276 982 1097 q 1213 1569 1160 1454 q 1267 1689 1265 1683 q 1306 1714 1283 1714 q 1344 1672 1344 1706 l 1344 1668 q 1310 1422 1340 1636 q 1227 892 1279 1207 q 1107 247 1175 578 q 1316 378 1217 324 q 1478 463 1415 433 q 1544 493 1542 492 q 1560 496 1554 496 q 1601 456 1592 496 q 1574 417 1601 433 q 1436 349 1572 417 q 1115 154 1300 282 q 1083 128 1093 136 q 936 -460 1015 -194 q 771 -871 857 -725 q 666 -990 715 -958 q 581 -1021 617 -1021 m 581 -939 q 701 -828 629 -939 q 851 -459 779 -696 q 982 51 922 -222 q 698 -242 835 -61 q 519 -657 561 -424 q 511 -764 511 -715 q 531 -894 511 -849 q 581 -939 551 -939 m 714 1647 q 685 1661 696 1647 q 674 1688 674 1675 q 683 1715 674 1701 l 828 1871 q 857 1885 842 1885 q 885 1872 872 1885 q 899 1843 899 1858 q 889 1817 899 1831 l 744 1661 q 714 1647 731 1647 z "},"":{"ha":928,"x_min":-82,"x_max":996,"o":"m 460 -160 q 369 -112 404 -160 q 335 29 335 -65 q 366 281 335 144 q 419 485 397 418 q 361 406 419 485 q 187 188 257 263 q 74 89 117 114 q 4 64 31 64 l -10 65 q -57 94 -32 67 q -82 189 -82 121 q -11 488 -82 308 q 153 746 60 668 q 268 786 214 786 q 352 766 315 786 q 413 718 389 746 q 443 667 436 690 q 499 752 476 717 q 524 792 521 788 q 581 803 553 821 q 600 775 601 790 q 599 760 599 760 q 524 545 567 678 q 449 270 482 413 q 415 29 415 128 q 431 -61 415 -29 q 449 -78 440 -79 l 461 -79 q 605 17 519 -79 q 774 247 690 114 q 919 499 858 379 q 957 521 936 521 q 984 509 972 521 q 996 482 996 497 q 993 465 996 474 q 967 415 993 464 q 899 294 942 367 q 801 143 856 222 q 460 -160 597 -160 m 6 146 q 42 163 13 146 q 132 247 71 181 q 296 453 193 314 q 368 557 333 506 q 376 593 376 572 q 335 679 376 639 q 309 697 325 688 q 269 706 293 706 q 200 681 239 706 q 61 456 124 615 q -1 193 -1 296 q 6 146 -1 165 m 293 947 q 263 961 276 947 l 118 1117 q 108 1143 108 1131 q 122 1172 108 1158 q 150 1185 135 1185 q 179 1171 165 1185 l 324 1015 q 333 988 333 1001 q 322 961 333 975 q 293 947 311 947 z "},"":{"ha":928,"x_min":-82,"x_max":996,"o":"m 460 -160 q 369 -112 404 -160 q 335 29 335 -65 q 366 281 335 144 q 419 485 397 418 q 361 406 419 485 q 187 188 257 263 q 74 89 117 114 q 4 64 31 64 l -10 65 q -57 94 -32 67 q -82 189 -82 121 q -11 488 -82 308 q 153 746 60 668 q 268 786 214 786 q 352 766 315 786 q 413 718 389 746 q 443 667 436 690 q 499 752 476 717 q 524 792 521 788 q 581 803 553 821 q 600 775 601 790 q 599 760 599 760 q 524 545 567 678 q 449 270 482 413 q 415 29 415 128 q 431 -61 415 -29 q 449 -78 440 -79 l 461 -79 q 605 17 519 -79 q 774 247 690 114 q 919 499 858 379 q 957 521 936 521 q 984 509 972 521 q 996 482 996 497 q 993 465 996 474 q 967 415 993 464 q 899 294 942 367 q 801 143 856 222 q 460 -160 597 -160 m 6 146 q 42 163 13 146 q 132 247 71 181 q 296 453 193 314 q 368 557 333 506 q 376 593 376 572 q 335 679 376 639 q 309 697 325 688 q 269 706 293 706 q 200 681 239 706 q 61 456 124 615 q -1 193 -1 296 q 6 146 -1 165 m 294 938 q 265 951 276 938 q 254 978 254 965 q 264 1006 254 992 l 408 1161 q 438 1175 422 1175 q 466 1162 453 1175 q 479 1133 479 1149 q 469 1107 479 1121 l 325 951 q 294 938 311 938 z "},"":{"ha":928,"x_min":-82,"x_max":996,"o":"m 460 -160 q 369 -112 404 -160 q 335 29 335 -65 q 366 281 335 144 q 419 485 397 418 q 361 406 419 485 q 187 188 257 263 q 74 89 117 114 q 4 64 31 64 l -10 65 q -57 94 -32 67 q -82 189 -82 121 q -11 488 -82 308 q 153 746 60 668 q 268 786 214 786 q 352 766 315 786 q 413 718 389 746 q 443 667 436 690 q 499 752 476 717 q 524 792 521 788 q 581 803 553 821 q 600 775 601 790 q 599 760 599 760 q 524 545 567 678 q 449 270 482 413 q 415 29 415 128 q 431 -61 415 -29 q 449 -78 440 -79 l 461 -79 q 605 17 519 -79 q 774 247 690 114 q 919 499 858 379 q 957 521 936 521 q 984 509 972 521 q 996 482 996 497 q 993 465 996 474 q 967 415 993 464 q 899 294 942 367 q 801 143 856 222 q 460 -160 597 -160 m 6 146 q 42 163 13 146 q 132 247 71 181 q 296 453 193 314 q 368 557 333 506 q 376 593 376 572 q 335 679 376 639 q 309 697 325 688 q 269 706 293 706 q 200 681 239 706 q 61 456 124 615 q -1 193 -1 296 q 6 146 -1 165 m 128 951 q 88 993 99 951 q 96 1018 88 1004 l 282 1251 q 317 1267 299 1267 q 349 1246 338 1264 l 483 1036 q 489 1014 489 1024 q 476 986 489 999 q 447 974 463 974 q 413 992 429 974 l 310 1156 l 160 967 q 128 951 144 951 z "},"":{"ha":928,"x_min":-82,"x_max":996,"o":"m 460 -160 q 369 -112 404 -160 q 335 29 335 -65 q 366 281 335 144 q 419 485 397 418 q 361 406 419 485 q 187 188 257 263 q 74 89 117 114 q 4 64 31 64 l -10 65 q -57 94 -32 67 q -82 189 -82 121 q -11 488 -82 308 q 153 746 60 668 q 268 786 214 786 q 352 766 315 786 q 413 718 389 746 q 443 667 436 690 q 499 752 476 717 q 524 792 521 788 q 581 803 553 821 q 600 775 601 790 q 599 760 599 760 q 524 545 567 678 q 449 270 482 413 q 415 29 415 128 q 431 -61 415 -29 q 449 -78 440 -79 l 461 -79 q 605 17 519 -79 q 774 247 690 114 q 919 499 858 379 q 957 521 936 521 q 984 509 972 521 q 996 482 996 497 q 993 465 996 474 q 967 415 993 464 q 899 294 942 367 q 801 143 856 222 q 460 -160 597 -160 m 6 146 q 42 163 13 146 q 132 247 71 181 q 296 453 193 314 q 368 557 333 506 q 376 593 376 572 q 335 679 376 639 q 309 697 325 688 q 269 706 293 706 q 200 681 239 706 q 61 456 124 615 q -1 193 -1 296 q 6 146 -1 165 m 90 1479 q 50 1519 61 1479 q 56 1540 50 1532 q 73 1588 60 1558 q 108 1642 86 1618 q 164 1667 131 1667 q 272 1608 214 1663 q 308 1579 289 1594 q 333 1564 328 1564 q 374 1647 351 1578 q 414 1678 388 1678 q 454 1636 454 1672 l 453 1626 q 433 1574 447 1608 q 394 1512 418 1540 q 335 1483 369 1483 q 270 1508 304 1483 q 207 1557 236 1532 q 161 1586 178 1582 q 156 1577 164 1589 q 132 1514 149 1565 q 117 1490 126 1500 q 90 1479 108 1479 z "},"":{"ha":928,"x_min":-82,"x_max":996,"o":"m 460 -160 q 369 -112 404 -160 q 335 29 335 -65 q 366 281 335 144 q 419 485 397 418 q 361 406 419 485 q 187 188 257 263 q 74 89 117 114 q 4 64 31 64 l -10 65 q -57 94 -32 67 q -82 189 -82 121 q -11 488 -82 308 q 153 746 60 668 q 268 786 214 786 q 352 766 315 786 q 413 718 389 746 q 443 667 436 690 q 499 752 476 717 q 524 792 521 788 q 581 803 553 821 q 600 775 601 790 q 599 760 599 760 q 524 545 567 678 q 449 270 482 413 q 415 29 415 128 q 431 -61 415 -29 q 449 -78 440 -79 l 461 -79 q 605 17 519 -79 q 774 247 690 114 q 919 499 858 379 q 957 521 936 521 q 984 509 972 521 q 996 482 996 497 q 993 465 996 474 q 967 415 993 464 q 899 294 942 367 q 801 143 856 222 q 460 -160 597 -160 m 6 146 q 42 163 13 146 q 132 247 71 181 q 296 453 193 314 q 368 557 333 506 q 376 593 376 572 q 335 679 376 639 q 309 697 325 688 q 269 706 293 706 q 200 681 239 706 q 61 456 124 615 q -1 193 -1 296 q 6 146 -1 165 m 215 988 q 187 1001 200 988 q 174 1029 174 1014 q 187 1059 174 1046 q 215 1072 200 1072 q 245 1059 232 1072 q 258 1029 258 1046 q 245 1001 258 1014 q 215 988 232 988 m 407 989 q 378 1002 390 989 q 365 1031 365 1015 q 378 1060 365 1047 q 407 1074 390 1074 q 436 1060 424 1074 q 449 1031 449 1047 q 436 1002 449 1015 q 407 989 424 989 z "},"":{"ha":928,"x_min":-82,"x_max":996,"o":"m 460 -160 q 369 -112 404 -160 q 335 29 335 -65 q 366 281 335 144 q 419 485 397 418 q 361 406 419 485 q 187 188 257 263 q 74 89 117 114 q 4 64 31 64 l -10 65 q -57 94 -32 67 q -82 189 -82 121 q -11 488 -82 308 q 153 746 60 668 q 268 786 214 786 q 352 766 315 786 q 413 718 389 746 q 443 667 436 690 q 499 752 476 717 q 524 792 521 788 q 581 803 553 821 q 600 775 601 790 q 599 760 599 760 q 524 545 567 678 q 449 270 482 413 q 415 29 415 128 q 431 -61 415 -29 q 449 -78 440 -79 l 461 -79 q 605 17 519 -79 q 774 247 690 114 q 919 499 858 379 q 957 521 936 521 q 984 509 972 521 q 996 482 996 497 q 993 465 996 474 q 967 415 993 464 q 899 294 942 367 q 801 143 856 222 q 460 -160 597 -160 m 6 146 q 42 163 13 146 q 132 247 71 181 q 296 453 193 314 q 368 557 333 506 q 376 593 376 572 q 335 679 376 639 q 309 697 325 688 q 269 706 293 706 q 200 681 239 706 q 61 456 124 615 q -1 193 -1 296 q 6 146 -1 165 m 288 975 q 185 1017 229 975 q 142 1121 142 1060 q 185 1239 142 1196 q 303 1288 229 1282 q 394 1256 351 1288 q 443 1149 444 1217 q 424 1071 443 1111 q 372 1003 406 1031 q 288 975 338 975 m 286 1057 l 297 1058 q 348 1095 335 1067 q 361 1150 361 1124 q 303 1207 363 1207 l 293 1206 q 264 1197 281 1204 q 235 1173 247 1190 q 222 1121 222 1156 q 286 1057 222 1063 z "},"":{"ha":911,"x_min":-89,"x_max":976,"o":"m 150 -165 q -23 -85 43 -165 q -89 133 -89 -4 q -28 443 -89 268 q 136 767 33 618 q 201 849 161 804 q 289 928 240 894 q 389 961 338 961 q 490 901 457 958 q 522 738 522 843 q 513 602 522 668 q 492 464 504 536 q 453 426 486 431 q 411 467 411 426 q 419 521 411 479 q 434 620 426 563 q 442 739 442 678 q 430 842 442 806 q 388 881 418 879 q 196 713 308 881 q 22 331 83 546 q 1 241 11 294 q -8 131 -8 188 q 28 -21 -8 42 q 150 -83 65 -83 q 344 -18 236 -83 q 560 142 451 47 q 759 335 668 238 q 904 501 850 432 q 936 515 919 515 q 964 503 951 515 q 976 475 976 490 q 967 449 976 463 q 922 394 965 446 q 804 265 878 343 q 639 104 731 188 q 150 -165 340 -165 m 36 -696 q -36 -693 -24 -696 q -72 -651 -72 -679 q -32 -611 -64 -611 l -29 -611 q 38 -614 -26 -611 q 145 -606 85 -614 q 251 -571 206 -597 q 307 -493 297 -544 q 308 -474 308 -483 q 273 -418 308 -432 q 183 -404 238 -404 q 125 -408 149 -404 q 83 -414 101 -412 q 54 -402 68 -414 q 40 -374 40 -390 l 42 -364 q 113 -111 93 -167 q 149 -89 128 -89 q 177 -101 164 -89 q 190 -131 190 -114 q 172 -194 186 -147 q 136 -325 158 -242 q 185 -322 147 -322 q 271 -333 226 -322 q 347 -371 315 -343 q 390 -474 390 -412 l 388 -504 q 310 -628 372 -587 q 170 -683 249 -669 q 36 -696 92 -696 m 174 -154 z "},"":{"ha":810,"x_min":-83,"x_max":874,"o":"m 135 -140 q -24 -69 36 -140 q -83 133 -83 3 q -64 304 -83 208 q 38 603 -24 486 q 168 776 99 719 q 301 832 238 832 q 426 706 418 824 q 386 601 426 649 q 217 510 318 535 q 72 485 117 486 q -1 132 -1 281 q 22 4 -1 44 q 76 -48 44 -36 q 135 -60 108 -60 q 178 -54 163 -60 q 378 56 272 -29 q 581 244 485 142 q 738 421 676 346 q 801 501 799 496 q 833 517 817 517 q 861 504 849 517 q 874 476 874 492 q 865 453 874 465 q 826 401 861 446 q 734 290 792 357 q 603 148 676 222 q 450 8 531 74 q 288 -99 369 -57 q 135 -140 207 -140 m 110 572 q 220 596 154 576 q 325 656 286 615 q 346 707 346 679 q 307 750 346 749 q 215 713 268 750 q 110 572 161 675 m 267 940 q 236 954 250 940 l 92 1110 q 82 1136 82 1124 q 95 1165 82 1151 q 124 1178 108 1178 q 153 1164 139 1178 l 297 1008 q 307 981 307 994 q 296 954 307 968 q 267 940 285 940 z "},"":{"ha":810,"x_min":-83,"x_max":874,"o":"m 135 -140 q -24 -69 36 -140 q -83 133 -83 3 q -64 304 -83 208 q 38 603 -24 486 q 168 776 99 719 q 301 832 238 832 q 426 706 418 824 q 386 601 426 649 q 217 510 318 535 q 72 485 117 486 q -1 132 -1 281 q 22 4 -1 44 q 76 -48 44 -36 q 135 -60 108 -60 q 178 -54 163 -60 q 378 56 272 -29 q 581 244 485 142 q 738 421 676 346 q 801 501 799 496 q 833 517 817 517 q 861 504 849 517 q 874 476 874 492 q 865 453 874 465 q 826 401 861 446 q 734 290 792 357 q 603 148 676 222 q 450 8 531 74 q 288 -99 369 -57 q 135 -140 207 -140 m 110 572 q 220 596 154 576 q 325 656 286 615 q 346 707 346 679 q 307 750 346 749 q 215 713 268 750 q 110 572 161 675 m 268 931 q 239 944 250 931 q 228 971 228 958 q 238 999 228 985 l 382 1154 q 411 1168 396 1168 q 440 1155 426 1168 q 453 1126 453 1142 q 443 1100 453 1114 l 299 944 q 268 931 285 931 z "},"":{"ha":810,"x_min":-83,"x_max":874,"o":"m 135 -140 q -24 -69 36 -140 q -83 133 -83 3 q -64 304 -83 208 q 38 603 -24 486 q 168 776 99 719 q 301 832 238 832 q 426 706 418 824 q 386 601 426 649 q 217 510 318 535 q 72 485 117 486 q -1 132 -1 281 q 22 4 -1 44 q 76 -48 44 -36 q 135 -60 108 -60 q 178 -54 163 -60 q 378 56 272 -29 q 581 244 485 142 q 738 421 676 346 q 801 501 799 496 q 833 517 817 517 q 861 504 849 517 q 874 476 874 492 q 865 453 874 465 q 826 401 861 446 q 734 290 792 357 q 603 148 676 222 q 450 8 531 74 q 288 -99 369 -57 q 135 -140 207 -140 m 110 572 q 220 596 154 576 q 325 656 286 615 q 346 707 346 679 q 307 750 346 749 q 215 713 268 750 q 110 572 161 675 m 101 944 q 61 986 72 944 q 69 1011 61 997 l 256 1244 q 290 1260 272 1260 q 322 1239 311 1257 l 457 1029 q 463 1007 463 1017 q 449 979 463 992 q 421 967 436 967 q 386 985 403 967 l 283 1149 l 133 960 q 101 944 118 944 z "},"":{"ha":810,"x_min":-83,"x_max":874,"o":"m 135 -140 q -24 -69 36 -140 q -83 133 -83 3 q -64 304 -83 208 q 38 603 -24 486 q 168 776 99 719 q 301 832 238 832 q 426 706 418 824 q 386 601 426 649 q 217 510 318 535 q 72 485 117 486 q -1 132 -1 281 q 22 4 -1 44 q 76 -48 44 -36 q 135 -60 108 -60 q 178 -54 163 -60 q 378 56 272 -29 q 581 244 485 142 q 738 421 676 346 q 801 501 799 496 q 833 517 817 517 q 861 504 849 517 q 874 476 874 492 q 865 453 874 465 q 826 401 861 446 q 734 290 792 357 q 603 148 676 222 q 450 8 531 74 q 288 -99 369 -57 q 135 -140 207 -140 m 110 572 q 220 596 154 576 q 325 656 286 615 q 346 707 346 679 q 307 750 346 749 q 215 713 268 750 q 110 572 161 675 m 189 981 q 160 994 174 981 q 147 1022 147 1007 q 160 1052 147 1039 q 189 1065 174 1065 q 219 1052 206 1065 q 232 1022 232 1039 q 219 994 232 1007 q 189 981 206 981 m 381 982 q 351 995 364 982 q 339 1024 339 1008 q 351 1053 339 1040 q 381 1067 364 1067 q 410 1053 397 1067 q 422 1024 422 1040 q 410 995 422 1008 q 381 982 397 982 z "},"":{"ha":649,"x_min":-71,"x_max":718,"o":"m 99 -150 q 4 -112 39 -150 q -46 -14 -31 -75 q -61 118 -61 47 q -47 297 -61 204 q -15 471 -33 390 q 19 604 4 551 q 35 665 33 657 q 76 694 50 694 q 115 653 115 690 l 114 643 q 53 399 86 554 q 19 114 19 244 q 38 -20 19 29 q 100 -69 57 -69 q 256 27 157 -69 q 460 256 356 124 q 644 504 565 388 q 678 522 660 522 q 718 481 710 522 q 711 457 718 471 q 642 360 707 451 q 481 151 576 269 q 99 -150 231 -150 m 114 889 q 83 903 97 889 l -61 1058 q -71 1085 -71 1072 q -58 1113 -71 1100 q -29 1126 -44 1126 q 0 1113 -14 1126 l 144 957 q 154 929 154 943 q 143 903 154 917 q 114 889 132 889 z "},"":{"ha":649,"x_min":-61,"x_max":718,"o":"m 99 -150 q 4 -112 39 -150 q -46 -14 -31 -75 q -61 118 -61 47 q -47 297 -61 204 q -15 471 -33 390 q 19 604 4 551 q 35 665 33 657 q 76 694 50 694 q 115 653 115 690 l 114 643 q 53 399 86 554 q 19 114 19 244 q 38 -20 19 29 q 100 -69 57 -69 q 256 27 157 -69 q 460 256 356 124 q 644 504 565 388 q 678 522 660 522 q 718 481 710 522 q 711 457 718 471 q 642 360 707 451 q 481 151 576 269 q 99 -150 231 -150 m 115 879 q 86 893 97 879 q 75 919 75 907 q 85 947 75 933 l 229 1103 q 258 1117 243 1117 q 287 1103 274 1117 q 300 1075 300 1090 q 290 1049 300 1063 l 146 893 q 115 879 132 879 z "},"":{"ha":649,"x_min":-92,"x_max":718,"o":"m 99 -150 q 4 -112 39 -150 q -46 -14 -31 -75 q -61 118 -61 47 q -47 297 -61 204 q -15 471 -33 390 q 19 604 4 551 q 35 665 33 657 q 76 694 50 694 q 115 653 115 690 l 114 643 q 53 399 86 554 q 19 114 19 244 q 38 -20 19 29 q 100 -69 57 -69 q 256 27 157 -69 q 460 256 356 124 q 644 504 565 388 q 678 522 660 522 q 718 481 710 522 q 711 457 718 471 q 642 360 707 451 q 481 151 576 269 q 99 -150 231 -150 m -51 893 q -92 935 -81 893 q -83 960 -92 946 l 103 1193 q 138 1208 119 1208 q 169 1188 158 1206 l 304 978 q 310 956 310 965 q 297 928 310 940 q 268 915 283 915 q 233 933 250 915 l 131 1097 l -19 908 q -51 893 -35 893 z "},"":{"ha":649,"x_min":-61,"x_max":718,"o":"m 99 -150 q 4 -112 39 -150 q -46 -14 -31 -75 q -61 118 -61 47 q -47 297 -61 204 q -15 471 -33 390 q 19 604 4 551 q 35 665 33 657 q 76 694 50 694 q 115 653 115 690 l 114 643 q 53 399 86 554 q 19 114 19 244 q 38 -20 19 29 q 100 -69 57 -69 q 256 27 157 -69 q 460 256 356 124 q 644 504 565 388 q 678 522 660 522 q 718 481 710 522 q 711 457 718 471 q 642 360 707 451 q 481 151 576 269 q 99 -150 231 -150 m 36 929 q 8 942 21 929 q -6 971 -6 956 q 8 1001 -6 988 q 36 1014 21 1014 q 66 1001 53 1014 q 79 971 79 988 q 66 942 79 956 q 36 929 53 929 m 228 931 q 199 944 211 931 q 186 972 186 957 q 199 1002 186 989 q 228 1015 211 1015 q 257 1002 244 1015 q 269 972 269 989 q 257 944 269 957 q 228 931 244 931 z "},"":{"ha":1068,"x_min":-74,"x_max":1129,"o":"m -33 -169 q -65 -155 -57 -169 q -74 -122 -74 -140 q -49 154 -74 -58 q -24 369 -24 367 q 23 701 4 593 q 54 843 42 810 q 63 863 54 843 q 97 886 72 882 l 99 886 q 126 874 114 886 q 139 844 139 861 q 125 815 139 826 q 92 629 114 776 q 43 242 71 482 q 106 396 43 242 q 413 785 263 785 l 424 785 q 522 673 500 772 q 546 446 544 574 q 560 219 547 318 q 633 108 574 121 q 758 172 681 108 q 915 322 835 235 q 1056 489 996 410 q 1089 506 1071 506 q 1117 493 1104 506 q 1129 465 1129 481 q 1121 440 1129 456 q 1065 370 1117 433 q 933 225 1013 307 q 631 26 743 26 q 533 76 567 26 q 485 201 500 125 q 467 364 471 278 q 461 526 464 450 q 449 652 458 603 q 414 704 440 701 q 366 681 399 704 q 283 578 333 658 q 166 332 233 499 q 15 -117 99 165 l 8 -139 q -15 -164 0 -158 q -33 -169 -29 -169 m 90 1479 q 50 1519 61 1479 q 56 1540 50 1532 q 73 1588 60 1558 q 108 1642 86 1618 q 164 1667 131 1667 q 272 1608 214 1663 q 308 1579 289 1594 q 333 1564 328 1564 q 374 1647 351 1578 q 414 1678 388 1678 q 454 1636 454 1672 l 453 1626 q 433 1574 447 1608 q 394 1512 418 1540 q 335 1483 369 1483 q 270 1508 304 1483 q 207 1557 236 1532 q 161 1586 178 1582 q 156 1577 164 1589 q 132 1514 149 1565 q 117 1490 126 1500 q 90 1479 108 1479 z "},"":{"ha":890,"x_min":-79,"x_max":956,"o":"m 97 -118 l 94 -118 q -35 -40 10 -118 q -79 156 -79 38 q -29 438 -79 292 q 101 664 21 585 l 101 661 q 208 756 121 750 q 254 744 229 756 q 301 701 279 732 q 350 577 335 656 q 365 407 365 499 l 365 390 q 517 357 431 357 q 628 372 574 357 q 730 408 683 386 q 812 451 776 429 q 867 488 847 472 q 889 504 888 503 q 915 514 903 514 q 942 501 929 514 q 956 474 956 489 q 942 442 956 457 q 915 422 939 439 q 851 380 892 404 q 758 331 811 356 q 644 291 706 307 q 515 275 582 275 q 360 304 429 275 q 278 10 346 131 q 97 -118 210 -111 m 96 -36 q 188 19 149 -36 q 252 160 228 74 q 283 344 276 246 q 169 449 214 390 q 114 553 125 508 q 35 374 67 489 q 3 153 3 260 q 24 16 3 68 q 92 -36 46 -36 l 96 -36 m 285 443 q 236 656 282 576 q 208 674 219 674 l 204 674 q 190 667 197 674 q 181 633 182 660 q 210 535 181 589 q 285 443 239 481 m 201 885 q 171 899 185 885 l 26 1054 q 17 1081 17 1068 q 30 1109 17 1096 q 58 1122 43 1122 q 88 1108 74 1122 l 232 953 q 242 925 242 939 q 231 899 242 913 q 201 885 219 885 z "},"":{"ha":890,"x_min":-79,"x_max":956,"o":"m 97 -118 l 94 -118 q -35 -40 10 -118 q -79 156 -79 38 q -29 438 -79 292 q 101 664 21 585 l 101 661 q 208 756 121 750 q 254 744 229 756 q 301 701 279 732 q 350 577 335 656 q 365 407 365 499 l 365 390 q 517 357 431 357 q 628 372 574 357 q 730 408 683 386 q 812 451 776 429 q 867 488 847 472 q 889 504 888 503 q 915 514 903 514 q 942 501 929 514 q 956 474 956 489 q 942 442 956 457 q 915 422 939 439 q 851 380 892 404 q 758 331 811 356 q 644 291 706 307 q 515 275 582 275 q 360 304 429 275 q 278 10 346 131 q 97 -118 210 -111 m 96 -36 q 188 19 149 -36 q 252 160 228 74 q 283 344 276 246 q 169 449 214 390 q 114 553 125 508 q 35 374 67 489 q 3 153 3 260 q 24 16 3 68 q 92 -36 46 -36 l 96 -36 m 285 443 q 236 656 282 576 q 208 674 219 674 l 204 674 q 190 667 197 674 q 181 633 182 660 q 210 535 181 589 q 285 443 239 481 m 203 875 q 174 889 185 875 q 163 915 163 903 q 172 943 163 929 l 317 1099 q 346 1113 331 1113 q 374 1099 361 1113 q 388 1071 388 1086 q 378 1044 388 1058 l 233 889 q 203 875 219 875 z "},"":{"ha":890,"x_min":-79,"x_max":956,"o":"m 97 -118 l 94 -118 q -35 -40 10 -118 q -79 156 -79 38 q -29 438 -79 292 q 101 664 21 585 l 101 661 q 208 756 121 750 q 254 744 229 756 q 301 701 279 732 q 350 577 335 656 q 365 407 365 499 l 365 390 q 517 357 431 357 q 628 372 574 357 q 730 408 683 386 q 812 451 776 429 q 867 488 847 472 q 889 504 888 503 q 915 514 903 514 q 942 501 929 514 q 956 474 956 489 q 942 442 956 457 q 915 422 939 439 q 851 380 892 404 q 758 331 811 356 q 644 291 706 307 q 515 275 582 275 q 360 304 429 275 q 278 10 346 131 q 97 -118 210 -111 m 96 -36 q 188 19 149 -36 q 252 160 228 74 q 283 344 276 246 q 169 449 214 390 q 114 553 125 508 q 35 374 67 489 q 3 153 3 260 q 24 16 3 68 q 92 -36 46 -36 l 96 -36 m 285 443 q 236 656 282 576 q 208 674 219 674 l 204 674 q 190 667 197 674 q 181 633 182 660 q 210 535 181 589 q 285 443 239 481 m 36 889 q -4 931 7 889 q 4 956 -4 942 l 190 1189 q 225 1204 207 1204 q 257 1183 246 1201 l 392 974 q 397 951 397 961 q 384 924 397 936 q 356 911 371 911 q 321 929 338 911 l 218 1093 l 68 904 q 36 889 53 889 z "},"":{"ha":890,"x_min":-79,"x_max":956,"o":"m 97 -118 l 94 -118 q -35 -40 10 -118 q -79 156 -79 38 q -29 438 -79 292 q 101 664 21 585 l 101 661 q 208 756 121 750 q 254 744 229 756 q 301 701 279 732 q 350 577 335 656 q 365 407 365 499 l 365 390 q 517 357 431 357 q 628 372 574 357 q 730 408 683 386 q 812 451 776 429 q 867 488 847 472 q 889 504 888 503 q 915 514 903 514 q 942 501 929 514 q 956 474 956 489 q 942 442 956 457 q 915 422 939 439 q 851 380 892 404 q 758 331 811 356 q 644 291 706 307 q 515 275 582 275 q 360 304 429 275 q 278 10 346 131 q 97 -118 210 -111 m 96 -36 q 188 19 149 -36 q 252 160 228 74 q 283 344 276 246 q 169 449 214 390 q 114 553 125 508 q 35 374 67 489 q 3 153 3 260 q 24 16 3 68 q 92 -36 46 -36 l 96 -36 m 285 443 q 236 656 282 576 q 208 674 219 674 l 204 674 q 190 667 197 674 q 181 633 182 660 q 210 535 181 589 q 285 443 239 481 m 90 1479 q 50 1519 61 1479 q 56 1540 50 1532 q 73 1588 60 1558 q 108 1642 86 1618 q 164 1667 131 1667 q 272 1608 214 1663 q 308 1579 289 1594 q 333 1564 328 1564 q 374 1647 351 1578 q 414 1678 388 1678 q 454 1636 454 1672 l 453 1626 q 433 1574 447 1608 q 394 1512 418 1540 q 335 1483 369 1483 q 270 1508 304 1483 q 207 1557 236 1532 q 161 1586 178 1582 q 156 1577 164 1589 q 132 1514 149 1565 q 117 1490 126 1500 q 90 1479 108 1479 z "},"":{"ha":890,"x_min":-79,"x_max":956,"o":"m 97 -118 l 94 -118 q -35 -40 10 -118 q -79 156 -79 38 q -29 438 -79 292 q 101 664 21 585 l 101 661 q 208 756 121 750 q 254 744 229 756 q 301 701 279 732 q 350 577 335 656 q 365 407 365 499 l 365 390 q 517 357 431 357 q 628 372 574 357 q 730 408 683 386 q 812 451 776 429 q 867 488 847 472 q 889 504 888 503 q 915 514 903 514 q 942 501 929 514 q 956 474 956 489 q 942 442 956 457 q 915 422 939 439 q 851 380 892 404 q 758 331 811 356 q 644 291 706 307 q 515 275 582 275 q 360 304 429 275 q 278 10 346 131 q 97 -118 210 -111 m 96 -36 q 188 19 149 -36 q 252 160 228 74 q 283 344 276 246 q 169 449 214 390 q 114 553 125 508 q 35 374 67 489 q 3 153 3 260 q 24 16 3 68 q 92 -36 46 -36 l 96 -36 m 285 443 q 236 656 282 576 q 208 674 219 674 l 204 674 q 190 667 197 674 q 181 633 182 660 q 210 535 181 589 q 285 443 239 481 m 124 925 q 95 938 108 925 q 82 967 82 951 q 95 997 82 983 q 124 1010 108 1010 q 153 997 140 1010 q 167 967 167 983 q 153 938 167 951 q 124 925 140 925 m 315 926 q 286 940 299 926 q 274 968 274 953 q 286 998 274 985 q 315 1011 299 1011 q 344 998 332 1011 q 357 968 357 985 q 344 940 357 953 q 315 926 332 926 z "},"":{"ha":1065,"x_min":206,"x_max":818,"o":"m 778 422 l 246 422 q 206 463 215 422 q 246 503 206 493 l 778 503 q 818 463 810 503 q 778 422 818 431 m 517 611 q 488 624 501 611 q 475 653 475 638 q 488 683 475 669 q 517 696 501 696 q 547 683 533 696 q 560 653 560 669 q 547 624 560 638 q 517 611 533 611 m 472 246 q 444 259 457 246 q 431 289 431 272 q 444 317 431 304 q 472 331 457 331 q 502 317 489 331 q 515 289 515 304 q 502 259 515 272 q 472 246 489 246 z "},"":{"ha":890,"x_min":-79,"x_max":956,"o":"m 224 515 l 265 586 q 236 656 254 626 q 219 670 226 667 q 208 674 213 674 l 203 674 q 192 667 200 674 q 181 636 183 661 q 224 515 182 569 m 94 -36 q 215 67 164 -35 q 283 346 275 192 q 238 379 254 365 l 25 14 l 25 18 q 94 -36 49 -36 m 1 133 l 1 136 l 179 439 q 114 551 126 500 q 18 297 50 463 q 3 153 3 218 q 1 133 3 133 m 285 446 l 285 458 l 279 450 l 285 446 m 96 -118 q -51 -7 -7 -115 q -79 160 -79 68 q -56 346 -79 246 q 101 664 -7 551 l 101 661 q 208 756 118 747 q 301 701 261 756 q 365 414 365 600 l 365 390 q 515 357 426 357 q 579 363 547 357 q 697 394 642 372 q 796 442 753 417 q 863 485 839 467 q 889 504 888 503 q 915 513 903 513 q 947 499 932 513 q 956 472 956 485 q 942 443 956 457 q 909 417 938 438 q 832 368 881 396 q 720 315 783 340 q 604 283 657 290 q 515 275 551 275 q 360 304 425 275 q 289 29 349 156 q 96 -118 215 -115 z "},"":{"ha":1143,"x_min":-62,"x_max":1215,"o":"m 592 -392 q 488 -315 522 -389 q 453 -53 453 -242 q 467 235 453 76 q 497 485 482 393 l 453 386 q 79 -104 238 -104 q -29 -35 4 -96 q -62 135 -62 25 q -42 347 -62 236 q 1 540 -21 457 q 31 644 24 622 q 71 672 43 676 q 107 644 106 667 q 108 621 108 621 q 50 394 82 539 q 18 129 18 249 q 32 21 18 61 q 81 -22 46 -19 q 135 6 99 -22 q 233 130 172 35 q 379 419 293 225 q 512 753 460 607 q 567 910 564 900 q 606 935 583 935 q 644 893 644 929 l 644 888 q 574 442 613 722 q 535 -57 535 163 q 544 -207 535 -144 q 572 -299 553 -269 q 586 -310 582 -310 q 713 -233 642 -310 q 860 -35 785 -157 q 1008 228 936 86 q 1138 508 1079 371 q 1175 533 1153 533 q 1203 522 1190 533 q 1215 494 1215 510 q 1213 479 1215 486 q 1151 343 1213 478 q 997 40 1090 208 q 592 -392 758 -392 m 290 825 q 260 839 274 825 l 115 994 q 106 1021 106 1008 q 119 1049 106 1036 q 147 1063 132 1063 q 176 1049 163 1063 l 321 893 q 331 865 331 879 q 319 839 331 853 q 290 825 308 825 z "},"":{"ha":1143,"x_min":-62,"x_max":1215,"o":"m 592 -392 q 488 -315 522 -389 q 453 -53 453 -242 q 467 235 453 76 q 497 485 482 393 l 453 386 q 79 -104 238 -104 q -29 -35 4 -96 q -62 135 -62 25 q -42 347 -62 236 q 1 540 -21 457 q 31 644 24 622 q 71 672 43 676 q 107 644 106 667 q 108 621 108 621 q 50 394 82 539 q 18 129 18 249 q 32 21 18 61 q 81 -22 46 -19 q 135 6 99 -22 q 233 130 172 35 q 379 419 293 225 q 512 753 460 607 q 567 910 564 900 q 606 935 583 935 q 644 893 644 929 l 644 888 q 574 442 613 722 q 535 -57 535 163 q 544 -207 535 -144 q 572 -299 553 -269 q 586 -310 582 -310 q 713 -233 642 -310 q 860 -35 785 -157 q 1008 228 936 86 q 1138 508 1079 371 q 1175 533 1153 533 q 1203 522 1190 533 q 1215 494 1215 510 q 1213 479 1215 486 q 1151 343 1213 478 q 997 40 1090 208 q 592 -392 758 -392 m 292 815 q 263 829 274 815 q 251 856 251 843 q 261 883 251 869 l 406 1039 q 435 1053 419 1053 q 463 1040 450 1053 q 476 1011 476 1026 q 467 985 476 999 l 322 829 q 292 815 308 815 z "},"":{"ha":1143,"x_min":-62,"x_max":1215,"o":"m 592 -392 q 488 -315 522 -389 q 453 -53 453 -242 q 467 235 453 76 q 497 485 482 393 l 453 386 q 79 -104 238 -104 q -29 -35 4 -96 q -62 135 -62 25 q -42 347 -62 236 q 1 540 -21 457 q 31 644 24 622 q 71 672 43 676 q 107 644 106 667 q 108 621 108 621 q 50 394 82 539 q 18 129 18 249 q 32 21 18 61 q 81 -22 46 -19 q 135 6 99 -22 q 233 130 172 35 q 379 419 293 225 q 512 753 460 607 q 567 910 564 900 q 606 935 583 935 q 644 893 644 929 l 644 888 q 574 442 613 722 q 535 -57 535 163 q 544 -207 535 -144 q 572 -299 553 -269 q 586 -310 582 -310 q 713 -233 642 -310 q 860 -35 785 -157 q 1008 228 936 86 q 1138 508 1079 371 q 1175 533 1153 533 q 1203 522 1190 533 q 1215 494 1215 510 q 1213 479 1215 486 q 1151 343 1213 478 q 997 40 1090 208 q 592 -392 758 -392 m 125 829 q 85 871 96 829 q 93 896 85 882 l 279 1129 q 314 1144 296 1144 q 346 1124 335 1142 l 481 914 q 486 892 486 901 q 473 864 486 876 q 444 851 460 851 q 410 869 426 851 l 307 1033 l 157 844 q 125 829 142 829 z "},"":{"ha":1143,"x_min":-62,"x_max":1215,"o":"m 592 -392 q 488 -315 522 -389 q 453 -53 453 -242 q 467 235 453 76 q 497 485 482 393 l 453 386 q 79 -104 238 -104 q -29 -35 4 -96 q -62 135 -62 25 q -42 347 -62 236 q 1 540 -21 457 q 31 644 24 622 q 71 672 43 676 q 107 644 106 667 q 108 621 108 621 q 50 394 82 539 q 18 129 18 249 q 32 21 18 61 q 81 -22 46 -19 q 135 6 99 -22 q 233 130 172 35 q 379 419 293 225 q 512 753 460 607 q 567 910 564 900 q 606 935 583 935 q 644 893 644 929 l 644 888 q 574 442 613 722 q 535 -57 535 163 q 544 -207 535 -144 q 572 -299 553 -269 q 586 -310 582 -310 q 713 -233 642 -310 q 860 -35 785 -157 q 1008 228 936 86 q 1138 508 1079 371 q 1175 533 1153 533 q 1203 522 1190 533 q 1215 494 1215 510 q 1213 479 1215 486 q 1151 343 1213 478 q 997 40 1090 208 q 592 -392 758 -392 m 213 865 q 184 878 197 865 q 171 907 171 892 q 184 937 171 924 q 213 950 197 950 q 242 937 229 950 q 256 907 256 924 q 242 878 256 892 q 213 865 229 865 m 404 867 q 375 880 388 867 q 363 908 363 893 q 375 938 363 925 q 404 951 388 951 q 433 938 421 951 q 446 908 446 925 q 433 880 446 893 q 404 867 421 867 z "},"":{"ha":1115,"x_min":-44,"x_max":1208,"o":"m 133 -1596 q 30 -1533 72 -1596 q -12 -1360 -12 -1469 q 24 -1114 -12 -1254 q 301 -472 124 -767 q 651 28 479 -178 q 749 953 732 692 q 592 625 676 793 q 417 312 507 457 q 240 76 326 167 q 81 -15 154 -15 q -15 50 15 -15 q -44 210 -44 115 q -28 394 -44 303 q -3 529 -12 486 q 27 639 4 560 q 86 797 50 718 q 167 903 122 875 q 186 907 176 907 q 225 867 217 907 q 204 832 225 847 q 78 511 151 796 q 38 207 38 331 q 50 97 38 129 q 78 65 63 65 q 244 199 153 82 q 425 481 335 317 q 591 806 515 646 q 714 1071 667 967 l 753 1156 q 774 1194 763 1178 q 806 1210 786 1210 q 833 1199 819 1208 q 846 1168 846 1190 q 840 1063 846 1151 q 821 832 833 974 q 790 513 808 690 q 749 142 772 336 q 938 347 849 258 q 1082 487 1026 436 q 1140 539 1138 538 q 1167 549 1154 549 q 1195 535 1182 549 q 1208 507 1208 522 q 1193 475 1208 492 q 1155 442 1192 475 q 1054 347 1118 408 q 909 199 990 286 q 736 4 828 113 q 729 -7 732 -3 q 622 -665 685 -349 q 478 -1189 560 -982 q 309 -1488 400 -1381 q 133 -1596 218 -1596 m 133 -1514 q 202 -1481 160 -1514 q 296 -1371 244 -1449 q 403 -1160 347 -1293 q 535 -692 478 -971 q 631 -129 592 -414 q 340 -565 490 -304 q 103 -1135 190 -826 q 68 -1360 68 -1269 q 85 -1479 68 -1447 q 133 -1514 101 -1511 m 415 1074 q 386 1088 397 1074 q 375 1114 375 1101 q 385 1142 375 1128 l 529 1297 q 558 1311 543 1311 q 587 1298 574 1311 q 600 1269 600 1285 q 590 1243 600 1257 l 446 1088 q 415 1074 432 1074 z "},"":{"ha":1115,"x_min":-44,"x_max":1208,"o":"m 133 -1596 q 30 -1533 72 -1596 q -12 -1360 -12 -1469 q 24 -1114 -12 -1254 q 301 -472 124 -767 q 651 28 479 -178 q 749 953 732 692 q 592 625 676 793 q 417 312 507 457 q 240 76 326 167 q 81 -15 154 -15 q -15 50 15 -15 q -44 210 -44 115 q -28 394 -44 303 q -3 529 -12 486 q 27 639 4 560 q 86 797 50 718 q 167 903 122 875 q 186 907 176 907 q 225 867 217 907 q 204 832 225 847 q 78 511 151 796 q 38 207 38 331 q 50 97 38 129 q 78 65 63 65 q 244 199 153 82 q 425 481 335 317 q 591 806 515 646 q 714 1071 667 967 l 753 1156 q 774 1194 763 1178 q 806 1210 786 1210 q 833 1199 819 1208 q 846 1168 846 1190 q 840 1063 846 1151 q 821 832 833 974 q 790 513 808 690 q 749 142 772 336 q 938 347 849 258 q 1082 487 1026 436 q 1140 539 1138 538 q 1167 549 1154 549 q 1195 535 1182 549 q 1208 507 1208 522 q 1193 475 1208 492 q 1155 442 1192 475 q 1054 347 1118 408 q 909 199 990 286 q 736 4 828 113 q 729 -7 732 -3 q 622 -665 685 -349 q 478 -1189 560 -982 q 309 -1488 400 -1381 q 133 -1596 218 -1596 m 133 -1514 q 202 -1481 160 -1514 q 296 -1371 244 -1449 q 403 -1160 347 -1293 q 535 -692 478 -971 q 631 -129 592 -414 q 340 -565 490 -304 q 103 -1135 190 -826 q 68 -1360 68 -1269 q 85 -1479 68 -1447 q 133 -1514 101 -1511 m 336 1124 q 308 1137 321 1124 q 294 1165 294 1150 q 308 1195 294 1182 q 336 1208 321 1208 q 366 1195 353 1208 q 379 1165 379 1182 q 366 1137 379 1150 q 336 1124 353 1124 m 528 1125 q 499 1138 511 1125 q 486 1167 486 1151 q 499 1197 486 1183 q 528 1210 511 1210 q 557 1197 544 1210 q 569 1167 569 1183 q 557 1138 569 1151 q 528 1125 544 1125 z "},"":{"ha":325,"x_min":50,"x_max":275,"o":"m 235 1450 q 204 1464 218 1450 l 60 1619 q 50 1646 50 1633 q 63 1674 50 1661 q 92 1688 76 1688 q 121 1674 107 1688 l 265 1518 q 275 1490 275 1504 q 264 1464 275 1478 q 235 1450 253 1450 z "},"":{"ha":325,"x_min":50,"x_max":275,"o":"m 90 1450 q 61 1464 72 1450 q 50 1490 50 1478 q 60 1518 50 1504 l 204 1674 q 233 1688 218 1688 q 262 1674 249 1688 q 275 1646 275 1661 q 265 1619 275 1633 l 121 1464 q 90 1450 107 1450 z "},"":{"ha":501,"x_min":50,"x_max":451,"o":"m 90 1425 q 50 1467 61 1425 q 58 1492 50 1478 l 244 1725 q 279 1740 261 1740 q 311 1719 300 1738 l 446 1510 q 451 1488 451 1497 q 438 1460 451 1472 q 410 1447 425 1447 q 375 1465 392 1447 l 272 1629 l 122 1440 q 90 1425 107 1425 z "},"":{"ha":503,"x_min":50,"x_max":454,"o":"m 90 1479 q 50 1519 61 1479 q 56 1540 50 1532 q 73 1588 60 1558 q 108 1642 86 1618 q 164 1667 131 1667 q 272 1608 214 1663 q 308 1579 289 1594 q 333 1564 328 1564 q 374 1647 351 1578 q 414 1678 388 1678 q 454 1636 454 1672 l 453 1626 q 433 1574 447 1608 q 394 1512 418 1540 q 335 1483 369 1483 q 270 1508 304 1483 q 207 1557 236 1532 q 161 1586 178 1582 q 156 1577 164 1589 q 132 1514 149 1565 q 117 1490 126 1500 q 90 1479 108 1479 z "},"":{"ha":375,"x_min":50,"x_max":325,"o":"m 92 1508 q 63 1522 76 1508 q 50 1550 50 1535 q 63 1580 50 1567 q 92 1593 76 1593 q 122 1580 108 1593 q 135 1550 135 1567 q 122 1522 135 1535 q 92 1508 108 1508 m 283 1510 q 254 1523 267 1510 q 242 1551 242 1536 q 254 1581 242 1568 q 283 1594 267 1594 q 313 1581 300 1594 q 325 1551 325 1568 q 313 1523 325 1536 q 283 1510 300 1510 z "},"":{"ha":401,"x_min":50,"x_max":353,"o":"m 196 1392 q 94 1434 138 1392 q 50 1538 50 1476 q 94 1656 50 1613 q 211 1704 138 1699 q 303 1672 260 1704 q 351 1565 353 1633 q 333 1488 351 1528 q 280 1419 314 1447 q 196 1392 246 1392 m 194 1474 l 206 1475 q 256 1512 243 1483 q 269 1567 269 1540 q 211 1624 271 1624 l 201 1622 q 172 1614 189 1621 q 143 1590 156 1607 q 131 1538 131 1572 q 194 1474 131 1479 z "},"":{"ha":501,"x_min":50,"x_max":451,"o":"m 225 1425 l 224 1425 q 190 1443 203 1425 l 56 1656 q 50 1678 50 1667 q 90 1718 50 1708 q 125 1699 108 1718 l 229 1535 l 379 1725 q 411 1739 394 1739 q 438 1726 425 1739 q 451 1699 451 1714 q 442 1674 451 1686 l 257 1439 q 225 1425 242 1425 z "},"":{"ha":563,"x_min":50,"x_max":513,"o":"m 158 -1406 q 86 -1403 99 -1406 q 50 -1361 50 -1389 q 90 -1321 58 -1321 l 93 -1321 q 160 -1324 96 -1321 q 267 -1315 207 -1324 q 374 -1281 328 -1307 q 429 -1203 419 -1254 q 431 -1183 431 -1193 q 395 -1128 431 -1142 q 306 -1114 360 -1114 q 247 -1118 271 -1114 q 206 -1124 224 -1122 q 176 -1112 190 -1124 q 163 -1083 163 -1100 l 164 -1074 q 235 -821 215 -876 q 271 -799 250 -799 q 299 -811 286 -799 q 313 -840 313 -824 q 294 -904 308 -857 q 258 -1035 281 -951 q 307 -1032 269 -1032 q 393 -1042 349 -1032 q 469 -1081 438 -1053 q 513 -1183 513 -1122 l 510 -1214 q 433 -1338 494 -1297 q 292 -1392 371 -1379 q 158 -1406 214 -1406 m 296 -864 z "},"":{"ha":229,"x_min":50,"x_max":179,"o":"m 138 1050 q 99 1078 115 1050 l 51 1221 l 50 1232 q 89 1274 50 1268 q 129 1246 114 1274 l 178 1101 l 179 1092 q 168 1064 179 1078 q 138 1050 157 1050 z "},"":{"ha":229,"x_min":50,"x_max":179,"o":"m 90 1050 q 63 1063 75 1050 q 50 1092 50 1075 l 51 1101 l 99 1246 q 139 1274 114 1274 q 179 1231 179 1268 l 178 1221 l 129 1079 q 114 1058 125 1065 q 90 1050 103 1050 z "},"":{"ha":375,"x_min":50,"x_max":325,"o":"m 138 1050 q 99 1078 115 1050 l 51 1221 l 50 1232 q 89 1274 50 1268 q 129 1246 114 1274 l 178 1101 l 179 1092 q 168 1064 179 1078 q 138 1050 157 1050 m 285 1050 q 246 1078 263 1050 l 200 1219 q 197 1233 197 1226 q 236 1274 197 1265 q 276 1246 261 1274 l 322 1103 q 325 1089 325 1096 q 310 1060 325 1071 q 285 1050 294 1050 z "},"":{"ha":375,"x_min":50,"x_max":325,"o":"m 90 1050 q 63 1063 75 1050 q 50 1092 50 1075 l 51 1101 l 99 1246 q 139 1274 114 1274 q 179 1231 179 1268 l 178 1221 l 129 1079 q 114 1058 125 1065 q 90 1050 103 1050 m 238 1050 q 210 1063 224 1050 q 197 1090 197 1075 l 199 1101 l 246 1246 q 286 1274 261 1274 q 325 1233 325 1268 q 322 1219 325 1226 l 276 1078 q 238 1050 260 1050 z "},"":{"ha":1418,"x_min":192,"x_max":1214,"o":"m 535 -201 l 531 -200 q 356 -100 413 -185 q 300 110 300 -15 q 313 253 300 181 q 342 381 325 325 q 247 358 290 372 q 232 356 236 356 q 192 394 200 356 q 218 433 192 419 q 285 453 244 446 q 368 465 325 460 q 419 599 399 554 q 306 582 339 589 q 265 621 274 582 q 274 646 265 635 q 324 666 283 657 q 458 683 365 675 q 749 1118 594 969 q 844 1183 800 1164 q 922 1201 889 1201 q 1000 1181 968 1201 q 1103 1022 1072 1129 q 1135 826 1135 915 q 1126 743 1135 782 q 1085 704 1118 704 q 1044 746 1044 711 q 1051 783 1047 765 q 1054 826 1054 800 q 1039 959 1054 892 q 994 1073 1024 1026 q 922 1119 965 1119 q 749 1002 851 1119 q 553 692 647 885 q 671 696 600 696 q 828 685 753 696 q 951 644 904 674 q 969 610 969 628 q 929 569 969 579 q 908 575 918 569 q 809 606 872 597 q 669 614 746 614 q 513 607 586 614 q 458 476 478 533 q 611 485 525 485 q 766 472 693 485 q 882 428 839 460 q 897 397 897 413 q 884 369 897 382 q 856 356 871 356 q 832 364 844 356 q 744 394 803 385 q 610 403 685 403 q 431 393 517 403 q 381 113 381 233 q 418 -51 381 7 q 540 -119 456 -110 q 711 -63 626 -117 q 872 70 796 -10 q 1008 230 949 150 q 1103 365 1068 310 q 1139 424 1138 419 q 1174 443 1154 443 q 1201 430 1189 443 q 1214 401 1214 417 q 1210 383 1214 393 q 1178 331 1206 375 q 1103 221 1150 288 q 992 81 1056 154 q 855 -56 929 8 q 699 -160 781 -119 q 535 -201 618 -201 z "},"":{"ha":1238,"x_min":-62,"x_max":1285,"o":"m 217 -935 q 90 -919 149 -935 q -8 -869 31 -903 q -46 -820 -29 -851 q -62 -744 -62 -789 q 31 -503 -62 -639 q 269 -226 124 -368 q 581 43 415 -85 q 346 268 472 150 q 111 506 219 386 q -11 794 -11 642 q 15 936 -11 864 q 238 1243 81 1107 q 570 1465 394 1379 q 865 1572 746 1551 q 946 1579 908 1579 q 1132 1508 1065 1579 q 1176 1422 1164 1469 q 1188 1329 1188 1374 q 1183 1259 1188 1292 q 1172 1206 1178 1226 q 1167 1182 1167 1185 q 1126 1153 1153 1153 q 1088 1193 1088 1160 q 1089 1206 1088 1200 q 1098 1243 1089 1206 q 1107 1329 1107 1281 q 1099 1397 1107 1364 q 1069 1454 1092 1429 q 949 1499 1033 1499 q 763 1460 874 1499 q 532 1355 651 1422 q 308 1199 413 1288 q 138 1007 204 1110 q 71 796 71 904 q 172 560 71 671 q 413 317 286 435 q 646 93 540 199 q 851 241 751 172 q 1031 362 950 310 q 1163 444 1113 414 q 1222 481 1214 475 q 1244 486 1235 486 q 1285 446 1275 486 q 1265 410 1285 426 q 1179 358 1260 407 q 972 224 1099 308 q 703 33 846 139 q 833 -119 775 -42 q 924 -278 890 -197 q 958 -443 958 -360 q 597 -850 953 -692 q 217 -935 399 -935 m 217 -854 q 564 -776 369 -854 q 878 -444 871 -639 q 810 -231 878 -337 q 639 -17 743 -124 q 358 -256 500 -124 q 117 -518 215 -387 q 19 -744 19 -649 q 72 -828 19 -801 q 217 -854 124 -854 m 621 1721 l 619 1721 q 586 1739 599 1721 l 451 1951 q 446 1974 446 1963 q 486 2014 446 2004 q 521 1994 504 2014 l 625 1831 l 775 2021 q 807 2035 790 2035 q 834 2022 821 2035 q 847 1994 847 2010 q 838 1969 847 1982 l 653 1735 q 621 1721 638 1721 z "},"":{"ha":1550,"x_min":50,"x_max":1601,"o":"m 581 -1021 q 542 -1012 558 -1021 q 458 -926 488 -993 q 429 -761 429 -858 q 490 -456 429 -615 q 678 -137 550 -297 q 1010 176 807 24 q 1146 904 1089 560 q 1225 1407 1203 1249 q 944 863 1154 1249 q 272 97 518 97 q 108 211 164 97 q 50 532 53 325 q 91 953 50 722 q 189 1342 132 1185 q 242 1447 219 1425 q 283 1468 264 1469 q 317 1454 297 1468 q 338 1417 338 1440 q 297 1376 338 1386 l 289 1376 l 290 1375 q 241 1244 274 1350 q 176 971 208 1139 q 132 540 132 726 q 274 179 132 185 q 352 206 303 179 q 474 309 401 233 q 644 528 546 385 q 872 900 743 671 q 1071 1276 982 1097 q 1213 1569 1160 1454 q 1267 1689 1265 1683 q 1306 1714 1283 1714 q 1344 1672 1344 1706 l 1344 1668 q 1310 1422 1340 1636 q 1227 892 1279 1207 q 1107 247 1175 578 q 1316 378 1217 324 q 1478 463 1415 433 q 1544 493 1542 492 q 1560 496 1554 496 q 1601 456 1592 496 q 1574 417 1601 433 q 1436 349 1572 417 q 1115 154 1300 282 q 1083 128 1093 136 q 936 -460 1015 -194 q 771 -871 857 -725 q 666 -990 715 -958 q 581 -1021 617 -1021 m 581 -939 q 701 -828 629 -939 q 851 -459 779 -696 q 982 51 922 -222 q 698 -242 835 -61 q 519 -657 561 -424 q 511 -764 511 -715 q 531 -894 511 -849 q 581 -939 551 -939 m 635 1697 q 606 1710 619 1697 q 593 1739 593 1724 q 606 1769 593 1756 q 635 1782 619 1782 q 665 1769 651 1782 q 678 1739 678 1756 q 665 1710 678 1724 q 635 1697 651 1697 m 826 1699 q 797 1712 810 1699 q 785 1740 785 1725 q 797 1770 785 1757 q 826 1783 810 1783 q 856 1770 843 1783 q 868 1740 868 1757 q 856 1712 868 1725 q 826 1699 843 1699 z "},"":{"ha":1193,"x_min":-214,"x_max":1292,"o":"m 118 -722 l 104 -722 q 68 -711 89 -721 q 30 -676 47 -701 q 13 -604 13 -651 q 131 -317 19 -464 q 405 -35 242 -171 q 731 208 568 101 l 731 217 q 672 377 731 333 q 518 421 614 421 q 408 410 463 421 q 308 386 353 400 q 234 362 263 372 q 204 350 206 351 l 190 347 q 147 389 156 347 q 164 421 147 406 q 224 468 168 424 q 372 588 281 513 q 573 760 464 663 q 792 967 682 857 q 994 1188 901 1076 q 1144 1402 1086 1299 q 1210 1592 1203 1506 q 1145 1706 1210 1667 q 990 1746 1081 1746 q 673 1672 860 1746 q 272 1458 486 1599 q -3 1254 101 1347 q -128 1117 -107 1161 q -164 1093 -143 1093 q -199 1109 -183 1090 q -203 1150 -214 1128 q -40 1329 -168 1218 q 269 1554 89 1440 q 643 1747 450 1668 q 992 1826 836 1826 q 1137 1799 1068 1826 q 1249 1719 1206 1772 q 1292 1592 1292 1667 l 1289 1557 q 1087 1176 1260 1388 q 709 776 914 964 q 379 489 504 588 q 425 496 383 490 q 517 501 467 501 q 718 444 633 501 q 810 261 803 386 q 1006 385 924 335 q 1138 460 1089 435 q 1200 486 1188 486 q 1239 444 1232 486 q 1219 410 1239 425 q 1094 339 1211 406 q 810 163 976 272 q 709 -161 793 11 q 485 -487 625 -333 q 284 -660 382 -597 q 118 -722 186 -722 m 119 -642 q 310 -542 185 -642 q 552 -274 436 -442 q 717 100 668 -107 l 719 113 l 718 100 q 432 -117 574 3 q 195 -362 290 -236 q 94 -604 100 -487 q 100 -636 94 -631 q 113 -642 106 -642 l 119 -642 m 592 1908 l 590 1908 q 557 1926 569 1908 l 422 2139 q 417 2161 417 2150 q 457 2201 417 2192 q 492 2182 475 2201 l 596 2018 l 746 2208 q 778 2222 761 2222 q 805 2210 792 2222 q 818 2182 818 2197 q 808 2157 818 2169 l 624 1922 q 592 1908 608 1908 z "},"":{"ha":753,"x_min":-14,"x_max":826,"o":"m 233 -319 q 158 -289 190 -319 q 140 -262 149 -281 q 131 -217 131 -244 q 147 -143 131 -186 q 208 -43 164 -100 q 347 115 264 26 q 181 243 286 183 q 43 344 94 294 q -14 472 -8 393 q 32 606 -14 539 q 145 727 78 672 q 283 816 213 782 q 406 850 354 850 q 492 819 453 850 q 549 713 536 776 q 563 607 563 649 l 561 571 q 547 544 560 556 q 521 533 535 533 q 479 575 479 543 l 481 611 q 474 682 481 646 q 452 743 468 718 q 404 768 436 768 q 375 764 392 768 q 239 698 310 744 q 117 591 168 651 q 67 474 67 531 l 68 460 q 139 369 78 410 q 275 282 200 328 q 404 174 350 236 q 757 521 685 457 q 785 533 771 533 q 813 521 799 533 q 826 492 826 508 q 813 463 826 478 q 690 343 803 453 q 451 104 576 233 q 479 -10 479 56 q 438 -160 479 -89 q 340 -275 397 -231 q 233 -319 282 -319 m 233 -237 q 278 -222 253 -237 q 325 -178 297 -208 q 375 -104 353 -147 q 397 -11 397 -61 q 389 40 397 31 q 271 -94 322 -31 q 213 -215 213 -176 q 233 -237 213 -242 m 296 936 l 294 936 q 261 954 274 936 l 126 1167 q 121 1189 121 1178 q 161 1229 121 1219 q 196 1210 179 1229 l 300 1046 l 450 1236 q 482 1250 465 1250 q 509 1238 496 1250 q 522 1210 522 1225 q 513 1185 522 1197 l 328 950 q 296 936 313 936 z "},"":{"ha":1225,"x_min":-14,"x_max":1289,"o":"m 119 -1289 q 7 -1128 11 -1289 q 64 -844 7 -1019 q 384 -263 181 -521 q 793 172 588 -6 q 744 286 781 247 q 662 338 708 325 q 571 350 615 350 q 477 342 522 350 q 396 335 432 335 q 336 349 367 335 q 306 397 306 364 q 429 536 299 442 q 574 658 504 592 q 654 786 643 724 l 656 806 q 557 906 656 904 q 438 872 506 906 q 242 707 335 817 q 92 514 150 597 l 58 468 q 26 451 44 451 q -1 465 11 451 q -14 492 -14 478 q -6 517 -14 504 l 26 560 q 185 766 86 649 q 401 946 285 883 q 557 986 488 986 q 685 937 633 986 q 736 807 736 888 l 735 778 q 653 623 722 694 q 510 498 585 551 q 407 415 435 444 l 389 417 q 469 424 422 417 q 569 431 517 431 q 665 419 615 431 q 758 378 714 408 q 839 290 803 347 q 864 236 860 251 q 1042 381 961 319 q 1174 476 1124 443 q 1225 511 1224 510 q 1249 518 1239 518 q 1276 506 1264 518 q 1289 478 1289 493 q 1271 443 1289 460 q 1215 406 1268 442 q 1073 302 1161 369 q 878 140 985 235 l 878 119 q 847 -110 878 13 q 776 -340 817 -232 q 414 -1047 631 -731 q 119 -1289 240 -1289 m 119 -1207 q 207 -1162 149 -1207 q 349 -1001 265 -1117 q 656 -429 529 -736 q 796 67 783 -122 q 436 -331 624 -89 q 143 -871 249 -574 q 100 -1024 113 -961 q 88 -1128 88 -1087 q 96 -1191 88 -1175 q 119 -1207 104 -1207 m 461 1117 l 460 1117 q 426 1135 439 1117 l 292 1347 q 286 1369 286 1358 q 326 1410 286 1400 q 361 1390 344 1410 l 465 1226 l 615 1417 q 647 1431 631 1431 q 674 1418 661 1431 q 688 1390 688 1406 q 678 1365 688 1378 l 493 1131 q 461 1117 478 1117 z "},"":{"ha":649,"x_min":-61,"x_max":718,"o":"m 99 -150 q 4 -112 39 -150 q -46 -14 -31 -75 q -61 118 -61 47 q -47 297 -61 204 q -15 471 -33 390 q 19 604 4 551 q 35 665 33 657 q 76 694 50 694 q 115 653 115 690 l 114 643 q 53 399 86 554 q 19 114 19 244 q 38 -20 19 29 q 100 -69 57 -69 q 256 27 157 -69 q 460 256 356 124 q 644 504 565 388 q 678 522 660 522 q 718 481 710 522 q 711 457 718 471 q 642 360 707 451 q 481 151 576 269 q 99 -150 231 -150 z "},"":{"ha":1221,"x_min":-383,"x_max":2092,"o":"m 843 -1199 q 727 -1087 767 -1199 q 688 -732 688 -975 q 783 340 697 -201 l 790 392 q 577 45 721 263 q 296 -310 433 -172 q 119 -408 193 -408 q 58 -387 93 -408 q -3 -304 24 -367 q -33 -169 -24 -249 q -42 4 -42 -89 q -10 477 -42 226 q 49 882 22 728 q 135 1319 90 1118 q -340 1275 -139 1296 q -369 1285 -356 1275 q -383 1315 -382 1296 q -349 1356 -383 1343 q -279 1363 -344 1356 q -102 1380 -214 1369 q 154 1401 10 1390 q 249 1749 204 1628 q 342 1871 293 1871 q 371 1858 357 1871 q 385 1829 385 1846 q 354 1789 385 1801 q 308 1669 339 1769 q 239 1410 276 1569 q 992 1465 575 1439 q 1113 1894 1054 1726 q 1186 2049 1154 2011 q 1243 2083 1218 2086 q 1289 2053 1271 2083 q 1307 1968 1307 2022 q 1274 1732 1307 1875 q 1207 1478 1240 1589 q 1701 1493 1499 1493 q 2068 1458 1990 1493 q 2092 1421 2092 1444 q 2079 1392 2089 1403 q 2049 1381 2069 1381 l 2035 1383 q 1713 1413 1958 1413 q 1183 1394 1489 1413 q 915 658 1057 981 q 806 -128 843 249 q 769 -726 769 -506 q 794 -1024 769 -929 q 843 -1118 818 -1118 q 853 -1116 849 -1118 q 874 -1110 858 -1114 q 903 -1122 894 -1110 q 915 -1150 911 -1133 q 888 -1189 915 -1179 q 843 -1199 861 -1199 m 1078 1471 l 1121 1474 q 1201 1792 1176 1664 q 1226 1971 1226 1919 l 1226 1983 l 1229 1971 q 1218 1948 1228 1969 q 1192 1880 1208 1926 q 1152 1756 1175 1833 q 1100 1564 1129 1679 l 1078 1471 m 119 -326 q 290 -201 179 -326 q 525 114 401 -75 q 753 504 649 303 q 836 683 793 585 q 974 1382 903 1076 q 218 1326 589 1357 q 94 636 149 1010 q 40 7 40 263 q 71 -272 40 -182 q 101 -319 88 -311 q 119 -326 114 -326 m 986 1058 q 1096 1389 1015 1135 l 1057 1388 q 986 1058 1003 1147 z "},"":{"ha":1324,"x_min":-108,"x_max":1328,"o":"m 858 -1199 q 742 -1087 782 -1199 q 703 -732 703 -976 q 794 329 711 -218 l 799 369 l 536 -181 q 339 -539 422 -404 q 197 -741 256 -674 q 101 -830 139 -808 q 39 -851 64 -851 q -17 -833 14 -851 q -71 -758 -49 -814 q -108 -458 -108 -646 q -86 -68 -108 -281 q -35 338 -64 144 q 18 663 -6 532 q 122 1194 65 935 q 233 1635 179 1454 q 322 1854 286 1817 q 358 1871 340 1871 q 388 1858 374 1871 q 401 1829 401 1846 q 372 1790 401 1803 q 328 1678 357 1769 q 263 1436 300 1588 q 182 1084 225 1285 q 97 644 139 883 q -26 -458 -26 -79 q 39 -771 -26 -757 q 74 -754 47 -771 q 149 -676 100 -737 q 275 -488 197 -615 q 464 -144 353 -361 q 615 164 546 18 q 724 403 683 310 q 768 501 765 497 l 861 733 q 1128 1893 994 1501 q 1202 2048 1171 2010 q 1258 2083 1233 2086 q 1328 1963 1324 2083 q 1284 1708 1328 1882 q 1129 1218 1240 1533 q 940 713 1026 929 q 785 -729 785 -225 q 810 -1025 785 -932 q 858 -1118 835 -1118 q 889 -1110 869 -1118 q 932 -1150 928 -1110 q 906 -1188 932 -1178 q 858 -1199 879 -1199 m 1024 1164 q 1205 1726 1161 1539 q 1246 1985 1249 1913 l 1249 1978 q 1238 1956 1247 1976 q 1210 1888 1228 1935 q 1169 1761 1193 1840 q 1115 1564 1146 1682 q 1024 1164 1047 1279 z "}}}
